<?xml version="1.0" encoding="utf-8"?>
<svg viewBox="100 100 29.806 31.938" width="29.806" height="31.938" xmlns="http://www.w3.org/2000/svg">
  <path d="M -369.048 302.38 C -369.703 302.38 -370.257 302.614 -370.71 303.082 C -371.178 303.535 -371.412 304.089 -371.412 304.745 L -371.412 325.817 L -376.727 319.917 C -377.164 319.433 -377.703 319.167 -378.343 319.121 C -378.998 319.089 -379.568 319.292 -380.052 319.729 C -380.536 320.166 -380.793 320.705 -380.825 321.345 C -380.856 322 -380.653 322.57 -380.216 323.054 L -370.804 333.52 C -370.335 334.035 -369.75 334.292 -369.048 334.292 C -368.767 334.292 -368.486 334.238 -368.205 334.129 C -367.206 333.754 -366.706 333.02 -366.706 331.928 L -366.706 304.745 C -366.706 304.089 -366.933 303.535 -367.385 303.082 C -367.853 302.614 -368.408 302.38 -369.048 302.38 L -369.048 302.38 Z M -392.414 303.176 C -393.132 302.364 -393.991 302.154 -394.99 302.544 C -396.004 302.934 -396.512 303.668 -396.512 304.745 L -396.512 331.928 C -396.512 332.583 -396.285 333.145 -395.833 333.613 C -395.364 334.066 -394.802 334.292 -394.147 334.292 C -393.507 334.292 -392.953 334.066 -392.485 333.613 C -392.032 333.145 -391.806 332.583 -391.806 331.928 L -391.806 310.879 L -386.491 316.779 C -386.054 317.263 -385.515 317.521 -384.875 317.552 C -384.22 317.583 -383.65 317.38 -383.166 316.943 C -382.682 316.522 -382.424 315.983 -382.393 315.328 C -382.362 314.672 -382.565 314.102 -383.002 313.618 L -392.414 303.176 Z" data-paper-data="{&quot;glyphName&quot;:&quot;N&quot;,&quot;glyphIndex&quot;:0,&quot;firstGlyphOfWord&quot;:true,&quot;word&quot;:1}" fill="#ffffff" id="element-id-91133" transform="matrix(1, 0, 0, 1, 496.511627, -202.353699)"/>
</svg>