<?xml version="1.0" encoding="utf-8"?>
<svg viewBox="100 100 84.884 70.93" width="84.884" height="70.93" xmlns="http://www.w3.org/2000/svg">
  <g transform="matrix(30.643934, 0, 0, 24.522118, 99.69355, 100.306526)" style="">
    <path d="M1.6 1.95c0.18,-0 0.26,0.15 0.38,0.27 0.06,0.06 0.17,0.06 0.23,0l0.29 -0.29c0.06,-0.06 0.06,-0.17 -0,-0.23l-0.29 -0.29c-0.11,-0.11 -0.24,-0.18 -0.15,-0.25 0.04,-0.03 0.07,-0.05 0.14,-0.05 0.11,-0 0.15,0.09 0.23,0.16 0.04,0.04 0.1,0.04 0.14,0l0.18 -0.18c0.04,-0.04 0.04,-0.1 -0,-0.14l-0.18 -0.18c-0.04,-0.04 -0.1,-0.04 -0.14,-0 -0.07,0.07 -0.13,0.17 -0.23,0.17 -0.1,0 -0.16,-0.1 -0.23,-0.17 -0.04,-0.04 -0.1,-0.04 -0.14,0l-0.18 0.18c-0.04,0.04 -0.04,0.1 0,0.14 0.15,0.15 0.4,0.24 0.28,0.38 -0.09,0.11 -0.19,0.23 -0.33,0.23 -0.17,0 -0.27,-0.17 -0.39,-0.29 -0.06,-0.06 -0.17,-0.06 -0.23,0l-0.07 0.07 -0.22 0.22c-0.06,0.06 -0.06,0.17 0,0.23l0.24 0.24 0.05 0.05c0.06,0.06 0.17,0.06 0.23,0 0.13,-0.13 0.2,-0.27 0.39,-0.27zm-0.3 -1.13l0.56 0.56c-0.07,0.09 -0.17,0.2 -0.26,0.2 -0.12,-0 -0.24,-0.18 -0.32,-0.26 -0.1,-0.1 -0.27,-0.1 -0.38,0l-0.29 0.29c-0.1,0.1 -0.1,0.27 0,0.38l0.29 0.29c0.1,0.1 0.27,0.1 0.38,0 0.09,-0.09 0.18,-0.24 0.32,-0.24 0.11,-0 0.19,0.1 0.26,0.19l-0.56 0.56c-0.12,0.12 -0.31,0.12 -0.43,0l-0.77 -0.77c-0.12,-0.12 -0.12,-0.31 0,-0.43l0.77 -0.77c0.12,-0.12 0.31,-0.12 0.43,0zm1.02 -0.59l0.11 0.11c0.03,0.03 0.08,0.03 0.11,0l0.11 -0.11c0.03,-0.03 0.03,-0.08 0,-0.11l-0.11 -0.11c-0.03,-0.03 -0.08,-0.03 -0.11,0l-0.11 0.11c-0.03,0.03 -0.03,0.08 0,0.11z" style="paint-order: fill; fill-rule: evenodd; fill: rgb(84, 109, 255);"/>
  </g>
</svg>