<svg id="svg" version="1.1" xmlns="http://www.w3.org/2000/svg" xmlns:xlink="http://www.w3.org/1999/xlink" width="400" height="400" viewBox="0, 0, 400,400"><g id="svgg"><path id="path0" d="M106.157 128.468 C 102.003 132.496,101.997 133.499,106.100 137.475 C 110.494 141.732,111.132 141.689,115.724 136.821 C 118.825 133.534,119.001 132.728,117.100 130.514 C 111.869 124.419,110.581 124.178,106.157 128.468 M50.800 155.951 C 47.389 156.688,46.253 157.683,29.200 174.883 C 9.998 194.251,9.609 194.743,9.603 199.689 C 9.597 204.984,9.531 204.900,28.716 224.078 C 48.070 243.426,47.967 243.346,53.436 243.311 C 58.226 243.280,59.067 242.668,72.784 229.222 C 79.393 222.745,84.800 217.303,84.800 217.130 C 84.800 216.454,79.360 211.094,77.937 210.368 C 73.907 208.312,70.643 209.608,64.800 215.586 C 54.845 225.771,51.346 225.338,38.580 212.338 C 30.213 203.817,29.059 200.723,31.890 194.400 C 32.776 192.422,45.641 179.498,47.727 178.490 C 54.439 175.249,57.416 176.120,64.600 183.426 C 71.605 190.550,73.751 191.560,77.561 189.526 C 79.164 188.671,84.800 183.236,84.800 182.545 C 84.800 181.535,60.116 157.602,58.266 156.818 C 56.055 155.882,52.847 155.509,50.800 155.951 M85.200 156.527 C 84.181 157.009,77.732 163.265,76.100 165.355 C 74.090 167.929,75.399 169.957,82.577 175.400 C 91.004 181.789,91.100 183.450,83.475 190.916 C 76.426 197.818,71.425 197.115,62.400 187.950 C 53.953 179.373,53.226 179.433,43.156 189.534 C 32.688 200.034,32.688 200.033,43.015 210.436 C 53.460 220.958,54.049 221.029,61.996 212.702 C 71.615 202.621,76.604 202.729,86.823 213.235 L 91.847 218.400 94.337 218.400 C 97.590 218.400,97.777 218.271,105.327 210.833 C 112.500 203.767,112.869 203.234,112.853 199.949 C 112.838 196.849,113.064 197.130,101.631 185.922 C 91.685 176.169,91.466 175.874,92.794 174.009 C 95.855 169.709,101.211 170.407,106.400 175.782 C 110.905 180.450,111.319 180.396,117.446 174.339 C 124.239 167.623,124.232 167.748,118.090 161.415 C 111.690 154.816,110.931 154.714,106.075 159.804 C 100.466 165.682,97.083 165.733,92.015 160.017 C 88.730 156.312,87.254 155.556,85.200 156.527 " stroke="none" fill="#1052c5" fill-rule="evenodd"></path><path id="path1" d="M129.200 154.201 L 129.200 168.035 132.100 167.918 L 135.000 167.800 135.109 160.300 C 135.171 156.004,135.377 152.800,135.591 152.800 C 135.972 152.800,139.502 157.660,143.956 164.316 L 146.443 168.033 149.521 167.916 L 152.600 167.800 152.600 154.200 L 152.600 140.600 149.600 140.600 L 146.600 140.600 146.400 148.600 C 146.204 156.449,146.186 156.581,145.475 155.600 C 145.076 155.050,142.646 151.450,140.075 147.600 L 135.400 140.600 132.300 140.483 L 129.200 140.366 129.200 154.201 M161.695 154.092 L 161.800 167.800 171.000 167.800 L 180.200 167.800 180.200 164.800 L 180.200 161.800 174.100 161.690 L 168.000 161.579 168.000 159.202 L 168.000 156.824 173.100 156.712 L 178.200 156.600 178.200 154.000 L 178.200 151.400 173.200 151.200 L 168.200 151.000 168.080 148.711 L 167.961 146.422 173.880 146.311 L 179.800 146.200 179.800 143.400 L 179.800 140.600 170.695 140.492 L 161.589 140.385 161.695 154.092 M188.182 140.903 C 188.076 141.180,188.036 147.345,188.094 154.603 L 188.200 167.800 191.400 167.800 L 194.600 167.800 194.712 155.000 C 194.851 139.096,195.148 140.400,191.380 140.400 C 189.335 140.400,188.313 140.561,188.182 140.903 M203.600 154.208 L 203.600 168.016 212.100 167.908 L 220.600 167.800 220.600 164.800 L 220.600 161.800 215.400 161.600 L 210.200 161.400 210.093 150.900 L 209.987 140.400 206.793 140.400 L 203.600 140.400 203.600 154.208 M129.200 192.589 L 129.200 206.464 136.500 206.297 C 144.282 206.120,146.037 205.790,148.002 204.137 C 151.740 200.992,150.940 193.313,146.728 191.909 C 146.490 191.830,146.860 191.202,147.548 190.513 C 148.738 189.324,148.800 189.106,148.799 186.131 C 148.796 179.864,147.527 179.090,136.900 178.872 L 129.200 178.715 129.200 192.589 M165.651 179.504 C 165.444 179.892,164.898 181.242,164.437 182.504 C 163.435 185.253,162.895 186.712,158.411 198.800 C 155.299 207.187,155.213 206.460,159.300 206.316 L 162.600 206.200 163.328 203.900 L 164.056 201.600 169.156 201.600 L 174.257 201.600 175.032 203.900 L 175.807 206.200 178.765 206.319 C 183.062 206.491,182.996 206.896,179.991 198.800 C 179.297 196.930,178.581 194.950,178.400 194.400 C 178.219 193.850,177.504 191.870,176.812 190.000 C 176.119 188.130,175.041 185.160,174.417 183.400 C 173.793 181.640,173.155 179.885,172.999 179.500 C 172.575 178.458,166.209 178.461,165.651 179.504 M189.695 192.452 L 189.800 206.200 192.800 206.200 L 195.800 206.200 195.913 201.943 C 196.087 195.385,196.891 195.423,201.490 202.204 L 204.200 206.200 207.900 206.315 C 212.352 206.453,212.317 206.722,208.556 201.350 L 205.512 197.003 206.656 196.201 C 210.814 193.288,212.230 189.021,210.586 184.362 C 209.036 179.969,206.903 179.101,197.095 178.876 L 189.589 178.704 189.695 192.452 M226.486 180.900 C 225.181 184.298,223.176 189.647,222.400 191.800 C 222.004 192.900,221.104 195.330,220.400 197.200 C 216.673 207.104,216.677 206.171,220.361 206.319 C 223.737 206.454,223.958 206.323,224.800 203.682 L 225.400 201.800 230.580 201.800 L 235.760 201.800 236.367 203.800 C 237.135 206.334,237.222 206.387,240.676 206.394 C 244.088 206.401,244.218 206.266,243.234 203.744 C 242.817 202.675,242.099 200.765,241.638 199.500 C 241.177 198.235,240.453 196.255,240.029 195.100 C 239.605 193.945,238.692 191.380,238.000 189.400 C 236.225 184.321,235.224 181.603,234.575 180.100 L 234.013 178.800 230.653 178.800 L 227.293 178.800 226.486 180.900 M250.583 179.727 C 250.455 180.236,250.406 181.541,250.475 182.627 L 250.600 184.600 255.700 184.712 C 258.789 184.780,260.800 184.983,260.800 185.227 C 260.800 185.551,257.100 190.372,253.348 194.939 C 249.599 199.502,249.163 200.407,249.284 203.366 L 249.400 206.200 259.400 206.200 L 269.400 206.200 269.400 203.200 L 269.400 200.200 263.300 200.090 C 259.945 200.029,257.207 199.849,257.215 199.690 C 257.224 199.530,259.833 196.160,263.015 192.200 L 268.799 185.000 268.799 181.900 L 268.800 178.800 259.808 178.800 L 250.815 178.800 250.583 179.727 M284.949 179.500 C 284.825 179.885,284.182 181.640,283.522 183.400 C 282.861 185.160,281.996 187.500,281.600 188.600 C 281.204 189.700,280.304 192.130,279.600 194.000 C 278.896 195.870,277.961 198.390,277.522 199.600 C 277.084 200.810,276.383 202.675,275.966 203.744 C 274.980 206.272,275.107 206.400,278.600 206.400 C 281.840 206.400,281.842 206.398,282.822 203.600 L 283.451 201.800 288.372 201.687 C 293.784 201.563,294.073 201.679,294.571 204.162 C 294.966 206.128,295.453 206.400,298.582 206.400 C 302.281 206.400,302.182 206.680,300.320 201.473 C 299.440 199.013,298.574 196.550,298.396 196.000 C 298.217 195.450,297.499 193.470,296.800 191.600 C 296.101 189.730,295.381 187.750,295.200 187.200 C 294.542 185.196,292.434 179.579,292.197 179.195 C 291.725 178.432,285.205 178.707,284.949 179.500 M309.000 179.255 C 308.884 179.558,308.836 185.745,308.894 193.003 L 309.000 206.200 312.200 206.200 L 315.400 206.200 315.513 201.938 C 315.683 195.527,316.572 195.543,320.805 202.035 L 323.651 206.400 327.202 206.400 C 331.700 206.400,331.668 206.560,328.162 201.654 C 324.954 197.164,324.734 196.562,326.100 196.029 C 331.921 193.756,331.945 182.784,326.134 179.990 C 323.714 178.827,309.400 178.213,309.000 179.255 M337.200 181.778 L 337.200 184.770 340.900 184.885 L 344.600 185.000 344.800 195.600 L 345.000 206.200 348.000 206.200 L 351.000 206.200 351.107 195.515 L 351.213 184.830 354.907 184.715 L 358.600 184.600 358.600 181.800 L 358.600 179.000 347.900 178.893 L 337.200 178.787 337.200 181.778 M366.000 192.600 L 366.000 206.415 375.300 206.307 L 384.600 206.200 384.600 203.200 L 384.600 200.200 378.600 200.000 L 372.600 199.800 372.600 197.600 L 372.600 195.400 377.600 195.200 L 382.600 195.000 382.600 192.400 L 382.600 189.800 377.600 189.600 L 372.600 189.400 372.600 187.200 L 372.600 185.000 378.400 184.800 L 384.200 184.600 384.200 181.800 L 384.200 179.000 375.100 178.892 L 366.000 178.785 366.000 192.600 M141.645 184.424 C 142.832 185.060,143.307 186.663,142.781 188.258 C 142.261 189.832,141.536 190.095,138.183 189.922 L 135.800 189.800 135.675 187.827 C 135.451 184.285,135.656 184.000,138.434 184.000 C 139.764 184.000,141.209 184.191,141.645 184.424 M203.418 185.782 C 204.399 186.763,204.632 188.092,204.144 189.916 C 203.771 191.309,202.005 192.000,198.820 192.000 L 196.000 192.000 196.000 188.400 L 196.000 184.800 199.218 184.800 C 202.102 184.800,202.538 184.902,203.418 185.782 M322.154 185.252 C 326.236 187.112,323.675 192.000,318.618 192.000 L 315.600 192.000 315.600 188.400 L 315.600 184.800 318.381 184.800 C 319.911 184.800,321.609 185.003,322.154 185.252 M170.692 190.101 C 172.682 196.416,172.730 196.177,169.440 196.320 C 165.776 196.478,165.700 196.349,166.987 192.134 C 169.269 184.660,169.020 184.797,170.692 190.101 M231.200 186.947 C 231.200 187.248,231.740 189.133,232.400 191.135 C 234.165 196.491,234.196 196.400,230.624 196.400 C 227.324 196.400,227.055 196.236,227.606 194.559 C 227.816 193.921,228.350 192.308,228.794 190.973 C 229.237 189.639,229.600 188.280,229.600 187.953 C 229.600 187.317,230.355 186.400,230.880 186.400 C 231.056 186.400,231.200 186.646,231.200 186.947 M289.171 187.300 C 290.069 189.588,291.883 195.832,291.727 196.100 C 291.631 196.265,290.213 196.400,288.576 196.400 C 284.980 196.400,285.023 196.546,286.876 190.537 C 288.189 186.277,288.562 185.751,289.171 187.300 M143.370 195.800 C 144.354 197.103,144.160 199.016,142.946 199.971 C 141.568 201.055,136.240 201.202,135.843 200.167 C 135.498 199.269,135.541 195.393,135.900 195.031 C 136.593 194.333,142.740 194.966,143.370 195.800 " stroke="none" fill="#eeeef6" fill-rule="evenodd"></path><path id="path2" d="M0.000 200.000 L 0.000 400.000 200.000 400.000 L 400.000 400.000 400.000 200.000 L 400.000 0.000 200.000 0.000 L 0.000 0.000 0.000 200.000 M115.448 128.610 C 119.368 132.607,119.395 133.228,115.812 137.098 C 111.511 141.743,110.172 141.825,106.131 137.687 C 101.970 133.426,101.971 132.759,106.141 128.500 C 110.197 124.357,111.290 124.370,115.448 128.610 M135.724 140.012 C 135.816 140.115,138.165 143.619,140.945 147.798 L 146.000 155.397 146.000 147.912 C 146.000 139.289,145.857 139.596,149.874 139.606 C 153.473 139.616,153.224 138.489,153.105 154.227 L 153.000 168.200 150.208 168.320 C 146.018 168.501,146.236 168.674,141.017 161.034 C 138.387 157.183,136.137 154.129,136.017 154.248 C 135.898 154.367,135.710 157.555,135.600 161.332 L 135.400 168.200 132.463 168.318 C 128.091 168.494,128.399 169.564,128.406 154.251 C 128.412 141.027,128.469 140.340,129.600 139.871 C 130.265 139.595,135.460 139.714,135.724 140.012 M179.969 140.163 C 180.259 140.512,180.392 141.842,180.318 143.663 L 180.200 146.600 174.500 146.711 L 168.800 146.822 168.800 148.611 L 168.800 150.400 173.351 150.400 C 178.816 150.400,178.885 150.450,178.719 154.264 L 178.600 157.000 173.700 157.112 L 168.800 157.225 168.800 159.202 L 168.800 161.179 174.700 161.289 L 180.600 161.400 180.718 164.565 C 180.802 166.827,180.688 167.824,180.318 168.059 C 179.725 168.436,162.393 168.526,161.433 168.157 C 160.414 167.766,160.479 140.627,161.500 140.032 C 162.666 139.353,179.396 139.472,179.969 140.163 M194.300 139.852 L 195.200 140.093 195.200 154.039 L 195.200 167.985 194.292 168.213 C 193.792 168.338,192.127 168.387,190.592 168.320 L 187.800 168.200 187.695 154.227 C 187.613 143.314,187.700 140.183,188.095 139.933 C 188.686 139.558,192.992 139.502,194.300 139.852 M210.417 140.414 C 210.621 140.736,210.791 145.545,210.794 151.100 L 210.800 161.200 215.567 161.200 C 221.881 161.200,221.600 161.033,221.600 164.800 C 221.600 167.271,221.469 167.965,220.967 168.157 C 219.708 168.641,203.787 168.427,203.280 167.920 C 202.741 167.381,202.575 141.355,203.106 140.560 C 203.856 139.437,209.725 139.320,210.417 140.414 M58.562 156.818 C 60.646 157.804,84.800 181.445,84.800 182.498 C 84.800 183.298,80.311 187.821,78.168 189.179 C 74.395 191.572,71.033 190.516,66.436 185.494 C 55.224 173.246,52.000 173.421,38.760 187.000 C 31.602 194.341,31.004 195.316,31.032 199.600 C 31.062 204.174,31.690 205.131,40.106 213.437 C 47.758 220.988,48.188 221.311,51.400 221.950 C 55.971 222.858,58.836 221.546,64.085 216.138 C 72.294 207.682,75.943 207.240,82.300 213.929 C 83.675 215.376,84.800 216.758,84.800 217.000 C 84.800 218.003,60.632 241.442,58.600 242.410 C 55.279 243.992,50.379 243.804,47.452 241.982 C 43.478 239.509,11.889 207.782,10.605 204.973 C 9.119 201.724,9.109 197.934,10.578 194.610 C 12.014 191.365,44.496 158.533,47.800 156.988 C 51.416 155.297,55.222 155.237,58.562 156.818 M91.348 159.261 C 97.816 165.746,99.658 165.808,106.000 159.755 C 111.255 154.739,111.668 154.773,117.682 160.699 C 124.226 167.147,124.256 167.825,118.270 173.923 C 111.769 180.547,111.424 180.597,106.256 175.674 C 100.870 170.543,97.125 169.914,93.414 173.518 C 91.154 175.713,90.669 175.010,102.590 186.823 C 116.455 200.562,116.366 199.761,105.244 210.900 L 97.756 218.400 95.052 218.400 C 91.263 218.400,91.193 218.352,85.524 211.900 C 80.925 206.665,75.753 204.555,71.160 206.040 C 67.975 207.069,66.731 207.996,61.740 213.062 L 56.480 218.400 54.020 218.400 C 50.642 218.400,50.290 218.155,42.749 210.527 C 32.897 200.562,32.838 199.914,41.042 191.524 C 52.381 179.927,54.380 179.249,59.792 185.171 C 71.630 198.124,77.145 198.677,86.176 187.814 C 90.525 182.583,89.936 180.995,81.200 174.406 C 73.527 168.618,73.405 167.802,79.300 161.719 C 86.145 154.656,86.653 154.552,91.348 159.261 M145.918 179.266 C 149.516 181.051,150.898 187.107,148.460 190.404 L 147.545 191.642 148.581 192.456 C 152.584 195.605,151.459 203.140,146.600 205.731 C 144.652 206.770,130.099 207.312,128.986 206.388 C 128.350 205.861,128.086 179.889,128.706 178.960 C 129.646 177.553,142.943 177.790,145.918 179.266 M172.873 178.500 C 173.917 179.334,183.328 206.072,182.714 206.461 C 182.124 206.836,176.771 206.917,175.853 206.565 C 175.517 206.436,174.947 205.446,174.588 204.365 L 173.936 202.400 169.200 202.400 L 164.464 202.400 163.812 204.365 C 163.042 206.683,162.810 206.802,159.067 206.794 C 154.318 206.784,153.875 209.439,162.530 186.028 C 163.948 182.194,165.433 178.819,165.830 178.528 C 166.770 177.841,172.022 177.820,172.873 178.500 M201.845 178.374 C 208.804 179.048,211.591 181.786,211.598 187.954 C 211.602 191.845,209.923 195.027,207.021 196.630 C 206.294 197.032,206.424 197.317,209.021 201.009 C 212.689 206.221,212.589 206.035,211.947 206.442 C 211.002 207.040,204.129 206.876,203.529 206.241 C 203.238 205.934,201.920 203.963,200.600 201.862 C 197.352 196.692,196.800 196.701,196.800 201.920 C 196.800 206.691,196.714 206.800,192.953 206.800 C 188.369 206.800,188.800 208.276,188.800 192.577 C 188.800 179.916,188.855 178.808,189.500 178.432 C 190.362 177.930,196.939 177.900,201.845 178.374 M234.296 178.700 C 235.231 179.533,244.569 205.382,244.243 206.232 C 244.078 206.661,243.194 206.800,240.622 206.800 C 236.854 206.800,236.392 206.503,235.807 203.700 L 235.536 202.400 230.748 202.400 L 225.959 202.400 225.370 203.900 C 224.290 206.650,224.388 206.591,220.651 206.716 C 217.785 206.811,217.145 206.722,216.943 206.196 C 216.636 205.395,226.273 179.178,227.125 178.500 C 228.130 177.700,233.338 177.845,234.296 178.700 M268.826 178.414 C 269.482 178.765,269.600 179.270,269.600 181.725 C 269.600 185.089,270.089 184.240,263.135 192.957 L 257.995 199.400 263.297 199.497 C 270.873 199.637,270.400 199.392,270.400 203.165 C 270.400 207.097,271.282 206.800,259.600 206.800 C 247.892 206.800,248.799 207.114,248.804 203.057 L 248.809 199.800 254.396 192.800 C 257.468 188.950,259.986 185.665,259.991 185.500 C 259.996 185.335,257.859 185.200,255.243 185.200 C 249.776 185.200,250.000 185.365,250.000 181.354 C 250.000 179.053,250.097 178.735,250.900 178.412 C 252.176 177.900,267.868 177.901,268.826 178.414 M291.827 178.233 C 292.748 178.480,302.661 205.143,302.240 206.240 C 302.007 206.848,295.811 207.063,294.962 206.494 C 294.721 206.332,294.271 205.390,293.962 204.400 L 293.400 202.600 288.567 202.488 L 283.734 202.376 283.226 204.088 C 282.450 206.702,282.281 206.800,278.538 206.800 C 274.640 206.800,274.343 206.530,275.334 203.885 C 275.681 202.958,277.666 197.610,279.744 192.000 C 284.710 178.593,284.761 178.474,285.534 178.269 C 286.534 178.004,290.883 177.979,291.827 178.233 M321.347 178.387 C 327.423 179.027,329.856 180.858,330.827 185.525 C 331.705 189.742,330.273 194.006,327.331 195.935 C 325.575 197.086,325.562 197.037,328.841 201.630 C 332.448 206.682,332.411 206.800,327.194 206.800 L 323.164 206.800 320.329 202.400 C 316.525 196.496,316.000 196.471,316.000 202.192 C 316.000 207.071,316.148 206.925,311.392 206.720 L 308.600 206.600 308.495 192.627 C 308.413 181.714,308.500 178.583,308.895 178.333 C 309.581 177.897,316.994 177.929,321.347 178.387 M358.315 178.256 C 359.187 178.490,359.225 178.658,359.115 181.751 L 359.000 185.000 355.500 185.116 L 352.000 185.231 352.000 195.536 C 352.000 207.445,352.220 206.800,348.153 206.800 C 343.607 206.800,344.000 207.844,344.000 195.757 L 344.000 185.200 340.443 185.200 C 336.367 185.200,336.397 185.226,336.406 181.667 C 336.413 179.271,336.628 178.662,337.600 178.292 C 338.416 177.981,357.168 177.949,358.315 178.256 M383.915 178.256 C 384.787 178.490,384.825 178.658,384.715 181.751 L 384.600 185.000 378.900 185.111 L 373.200 185.222 373.200 187.011 L 373.200 188.800 377.300 188.805 C 383.360 188.814,383.200 188.721,383.200 192.204 C 383.200 195.719,383.397 195.600,377.567 195.600 L 373.200 195.600 373.200 197.589 L 373.200 199.579 379.100 199.689 L 385.000 199.800 385.000 203.200 L 385.000 206.600 375.650 206.707 C 369.089 206.783,366.136 206.679,365.750 206.359 C 365.303 205.988,365.201 203.412,365.206 192.651 C 365.212 179.423,365.271 178.722,366.400 178.292 C 367.216 177.981,382.770 177.949,383.915 178.256 M136.400 187.247 L 136.400 189.693 139.027 189.526 C 141.900 189.343,142.384 188.977,142.394 186.980 C 142.403 185.204,141.758 184.800,138.920 184.800 L 136.400 184.800 136.400 187.247 M196.800 188.400 L 196.800 191.600 198.500 191.598 C 201.583 191.594,203.090 190.944,203.600 189.400 C 204.522 186.605,203.070 185.319,198.900 185.240 L 196.800 185.200 196.800 188.400 M316.167 185.742 C 316.052 186.040,316.013 187.435,316.079 188.842 L 316.200 191.400 318.990 191.332 C 322.605 191.245,324.433 188.962,322.866 186.493 C 322.112 185.305,316.573 184.685,316.167 185.742 M167.738 191.591 C 166.322 196.215,166.247 196.000,169.267 196.000 C 171.999 196.000,171.945 196.182,170.565 191.621 C 169.174 187.023,169.138 187.022,167.738 191.591 M230.268 188.000 C 229.309 190.587,228.035 195.334,228.220 195.632 C 228.496 196.080,233.200 196.129,233.200 195.685 C 233.200 194.699,230.453 187.500,230.268 188.000 M288.268 188.000 C 287.745 189.413,286.000 195.274,286.000 195.621 C 286.000 196.095,290.675 196.127,290.966 195.655 C 291.084 195.465,290.575 193.530,289.835 191.355 C 289.089 189.160,288.392 187.667,288.268 188.000 M136.400 197.600 L 136.400 200.000 139.300 199.994 C 142.480 199.987,142.963 199.815,143.358 198.546 C 144.061 196.292,142.230 195.200,137.744 195.200 L 136.400 195.200 136.400 197.600 M316.542 222.057 C 324.117 225.946,321.394 237.004,312.863 236.998 C 303.422 236.991,301.344 224.455,310.306 221.576 C 311.618 221.155,315.344 221.442,316.542 222.057 M131.547 223.500 C 131.835 224.545,132.219 225.850,132.402 226.400 C 132.585 226.950,132.846 227.908,132.982 228.528 C 133.289 229.928,134.088 229.733,134.452 228.170 C 135.840 222.203,136.213 221.478,137.791 221.669 C 138.988 221.813,139.375 222.611,140.380 227.000 C 141.243 230.773,141.511 230.663,142.808 226.000 C 144.066 221.474,144.013 221.551,145.787 221.681 C 147.715 221.823,147.713 221.752,145.965 228.000 C 145.318 230.310,144.594 232.920,144.356 233.800 C 143.671 236.328,143.434 236.591,141.721 236.720 L 140.123 236.840 139.198 233.520 C 137.560 227.644,137.499 227.640,135.959 233.318 L 135.006 236.836 133.217 236.718 C 131.599 236.611,131.401 236.486,131.140 235.400 C 130.873 234.289,130.476 232.831,129.614 229.800 C 127.162 221.182,127.178 221.600,129.313 221.600 C 131.016 221.600,131.028 221.610,131.547 223.500 M165.931 222.722 C 166.167 224.389,165.375 224.800,161.927 224.800 L 158.752 224.800 158.876 226.300 L 159.000 227.800 161.524 227.920 L 164.048 228.039 163.924 229.320 C 163.800 230.596,163.791 230.600,161.300 230.719 L 158.800 230.838 158.800 232.211 C 158.800 233.802,159.116 233.937,163.200 234.098 C 165.799 234.200,165.800 234.200,165.800 235.400 L 165.800 236.600 160.500 236.712 L 155.200 236.823 155.200 229.200 L 155.200 221.577 160.500 221.688 C 165.691 221.798,165.803 221.819,165.931 222.722 M183.326 222.047 C 185.460 223.138,186.226 225.818,185.025 227.987 C 184.544 228.857,184.569 229.089,185.239 229.941 C 186.703 231.802,185.851 235.393,183.715 236.366 C 183.191 236.605,180.701 236.800,178.181 236.800 L 173.600 236.800 173.600 229.200 L 173.600 221.600 178.026 221.600 C 180.498 221.600,182.838 221.797,183.326 222.047 M216.051 222.164 C 221.151 224.295,222.528 230.438,218.825 234.533 C 217.217 236.310,215.558 236.800,211.151 236.800 L 207.200 236.800 207.200 229.200 L 207.200 221.600 210.951 221.600 C 213.273 221.600,215.216 221.815,216.051 222.164 M239.200 222.957 C 239.200 224.632,238.813 224.800,234.943 224.800 L 231.952 224.800 232.076 226.300 L 232.200 227.800 234.700 227.919 C 237.153 228.036,237.200 228.060,237.200 229.176 C 237.200 230.526,236.650 230.800,233.943 230.800 L 231.952 230.800 232.076 232.300 L 232.200 233.800 235.600 234.000 L 239.000 234.200 239.125 235.500 L 239.251 236.800 233.825 236.800 L 228.400 236.800 228.400 229.467 C 228.400 225.433,228.520 222.013,228.667 221.867 C 228.813 221.720,231.243 221.600,234.067 221.600 L 239.200 221.600 239.200 222.957 M250.255 222.300 C 251.035 224.675,253.837 231.595,254.020 231.597 C 254.140 231.599,254.467 230.925,254.746 230.100 C 255.025 229.275,255.405 228.240,255.590 227.800 C 255.775 227.360,256.373 225.830,256.919 224.400 L 257.911 221.800 259.756 221.678 C 262.042 221.527,262.135 220.844,258.700 229.491 L 255.800 236.792 254.000 236.792 L 252.200 236.792 249.300 229.491 C 247.705 225.476,246.400 222.057,246.400 221.895 C 246.400 221.212,250.023 221.593,250.255 222.300 M280.000 222.957 C 280.000 224.632,279.613 224.800,275.743 224.800 L 272.752 224.800 272.876 226.300 L 273.000 227.800 275.500 227.919 C 277.953 228.036,278.000 228.060,278.000 229.176 C 278.000 230.526,277.450 230.800,274.743 230.800 L 272.752 230.800 272.876 232.300 L 273.000 233.800 276.400 234.000 L 279.800 234.200 279.925 235.500 L 280.051 236.800 274.625 236.800 L 269.200 236.800 269.200 229.467 C 269.200 225.433,269.320 222.013,269.467 221.867 C 269.613 221.720,272.043 221.600,274.867 221.600 L 280.000 221.600 280.000 222.957 M290.995 222.500 C 291.110 222.995,291.249 225.740,291.302 228.600 L 291.400 233.800 294.497 233.917 C 297.434 234.028,297.606 234.086,297.847 235.046 C 298.251 236.655,297.664 236.833,292.367 236.713 L 287.400 236.600 287.290 229.614 C 287.161 221.395,287.113 221.600,289.180 221.600 C 290.515 221.600,290.820 221.751,290.995 222.500 M337.985 222.192 C 343.385 224.985,341.269 231.499,334.800 231.999 L 332.200 232.200 332.080 234.500 L 331.960 236.800 330.380 236.800 L 328.800 236.800 328.800 229.200 L 328.800 221.600 332.820 221.600 C 335.587 221.600,337.197 221.785,337.985 222.192 M358.731 222.722 C 358.967 224.389,358.175 224.800,354.727 224.800 L 351.552 224.800 351.676 226.300 L 351.800 227.800 354.324 227.920 L 356.848 228.039 356.724 229.320 C 356.600 230.596,356.591 230.600,354.100 230.719 L 351.600 230.838 351.600 232.211 C 351.600 233.802,351.916 233.937,356.000 234.098 C 358.599 234.200,358.600 234.200,358.600 235.400 L 358.600 236.600 353.300 236.712 L 348.000 236.823 348.000 229.200 L 348.000 221.577 353.300 221.688 C 358.491 221.798,358.603 221.819,358.731 222.722 M376.013 222.207 C 377.476 222.963,378.400 224.697,378.399 226.680 C 378.397 228.041,377.959 229.010,376.318 231.283 C 375.910 231.849,376.012 232.313,376.912 233.981 C 378.340 236.624,378.302 236.801,376.300 236.793 C 374.623 236.787,374.584 236.754,373.414 234.393 C 372.324 232.196,372.120 232.000,370.914 232.000 L 369.600 232.000 369.600 234.400 L 369.600 236.800 368.000 236.800 L 366.400 236.800 366.400 229.200 L 366.400 221.600 370.620 221.600 C 373.609 221.600,375.182 221.777,376.013 222.207 M176.964 224.950 C 176.290 226.705,176.912 227.400,179.156 227.400 C 181.590 227.400,182.575 226.604,181.757 225.300 C 181.165 224.357,177.300 224.074,176.964 224.950 M210.800 229.157 C 210.800 234.032,210.917 234.228,213.554 233.759 C 218.981 232.792,218.143 224.800,212.614 224.800 L 210.800 224.800 210.800 229.157 M309.955 225.702 C 306.514 228.659,308.327 233.754,312.822 233.754 C 315.810 233.754,317.000 232.444,317.000 229.153 C 317.000 225.193,312.890 223.180,309.955 225.702 M332.000 226.800 L 332.000 228.800 334.209 228.800 C 336.176 228.800,336.467 228.691,336.873 227.800 C 337.751 225.872,336.800 224.800,334.209 224.800 L 332.000 224.800 332.000 226.800 M369.677 226.679 L 369.800 228.600 371.621 228.719 C 373.961 228.871,375.163 227.797,374.565 226.088 C 374.218 225.095,373.981 224.989,371.869 224.879 L 369.554 224.759 369.677 226.679 M176.959 230.962 C 175.938 233.624,177.683 234.981,180.893 234.019 C 182.650 233.493,183.084 231.594,181.626 230.814 C 180.455 230.187,177.217 230.290,176.959 230.962 " stroke="none" fill="#040404" fill-rule="evenodd"></path><path id="path3" d="M128.000 222.356 C 128.000 223.140,128.985 227.015,130.400 231.800 C 130.595 232.460,130.921 233.654,131.125 234.453 C 131.328 235.252,131.619 236.107,131.771 236.353 C 132.149 236.964,134.790 236.921,134.972 236.300 C 135.053 236.025,135.556 234.190,136.091 232.223 C 137.260 227.916,137.728 227.625,138.572 230.678 C 140.254 236.761,140.166 236.589,141.689 236.721 C 143.323 236.862,143.235 237.029,145.138 230.200 C 145.383 229.320,145.960 227.278,146.420 225.662 C 147.419 222.154,147.274 221.503,145.534 221.674 C 144.179 221.808,144.153 221.858,142.807 226.800 C 141.586 231.284,141.222 231.384,140.266 227.500 C 139.873 225.905,139.424 224.077,139.268 223.438 C 138.586 220.657,136.584 221.100,135.730 224.221 C 134.965 227.019,134.332 229.309,134.148 229.945 C 133.907 230.779,132.929 229.802,132.687 228.487 C 131.742 223.344,131.018 221.804,129.484 221.676 C 128.223 221.570,128.000 221.672,128.000 222.356 M155.382 222.102 C 155.271 222.391,155.230 225.772,155.290 229.614 L 155.400 236.600 160.526 236.712 L 165.652 236.824 165.526 235.512 L 165.400 234.200 162.000 234.000 L 158.600 233.800 158.600 232.200 L 158.600 230.600 161.200 230.400 C 163.653 230.211,163.800 230.144,163.800 229.200 C 163.800 228.256,163.653 228.189,161.200 228.000 L 158.600 227.800 158.600 226.200 L 158.600 224.600 162.000 224.400 L 165.400 224.200 165.400 223.000 L 165.400 221.800 160.492 221.688 C 156.722 221.601,155.538 221.697,155.382 222.102 M173.867 221.867 C 173.720 222.013,173.600 225.433,173.600 229.467 L 173.600 236.800 178.100 236.799 C 181.851 236.797,182.812 236.668,183.875 236.019 C 185.948 234.755,186.452 231.295,184.782 229.784 C 184.072 229.142,184.076 229.064,184.901 227.366 C 185.991 225.123,185.260 223.118,183.009 222.178 C 181.596 221.587,174.391 221.342,173.867 221.867 M207.378 222.114 C 207.269 222.397,207.230 225.772,207.290 229.614 L 207.400 236.600 210.200 236.730 C 219.714 237.172,224.716 228.605,217.934 223.486 C 215.599 221.723,207.911 220.724,207.378 222.114 M229.067 221.867 C 228.920 222.013,228.800 225.439,228.800 229.479 L 228.800 236.824 233.895 236.712 C 238.567 236.609,239.003 236.536,239.139 235.826 C 239.382 234.555,238.101 234.000,234.924 234.000 L 232.000 234.000 232.000 232.200 L 232.000 230.400 234.400 230.400 L 236.800 230.400 236.800 229.200 L 236.800 228.000 234.400 228.000 L 232.000 228.000 232.000 226.200 L 232.000 224.400 235.151 224.400 C 238.561 224.400,239.484 223.925,239.006 222.419 C 238.744 221.594,229.835 221.098,229.067 221.867 M246.730 221.803 C 246.598 221.936,247.802 225.319,249.406 229.322 L 252.322 236.600 253.829 236.600 C 255.319 236.600,256.680 235.256,256.771 233.696 C 256.787 233.418,257.140 232.428,257.557 231.496 C 258.783 228.746,261.200 222.430,261.200 221.973 C 261.200 221.331,258.328 221.710,257.966 222.400 C 257.793 222.730,256.875 225.024,255.926 227.497 C 254.025 232.450,253.915 232.580,253.208 230.700 C 252.939 229.985,252.575 229.040,252.399 228.600 C 252.222 228.160,251.555 226.450,250.915 224.800 C 249.778 221.867,247.965 220.568,246.730 221.803 M269.867 221.867 C 269.720 222.013,269.600 225.439,269.600 229.479 L 269.600 236.824 274.695 236.712 C 279.367 236.609,279.803 236.536,279.939 235.826 C 280.182 234.555,278.901 234.000,275.724 234.000 L 272.800 234.000 272.800 232.200 L 272.800 230.400 275.200 230.400 L 277.600 230.400 277.600 229.200 L 277.600 228.000 275.200 228.000 L 272.800 228.000 272.800 226.200 L 272.800 224.400 275.951 224.400 C 279.361 224.400,280.284 223.925,279.806 222.419 C 279.544 221.594,270.635 221.098,269.867 221.867 M287.787 222.089 C 287.674 222.385,287.630 225.772,287.690 229.614 L 287.800 236.600 292.726 236.713 L 297.653 236.825 297.526 235.513 L 297.400 234.200 294.200 234.000 L 291.000 233.800 290.800 227.800 L 290.600 221.800 289.297 221.674 C 288.477 221.595,287.918 221.749,287.787 222.089 M308.336 222.755 C 304.925 224.918,303.764 229.563,305.777 232.996 C 309.784 239.835,320.800 237.090,320.800 229.253 C 320.800 223.068,313.688 219.360,308.336 222.755 M329.067 221.867 C 328.920 222.013,328.800 225.444,328.800 229.491 L 328.800 236.848 330.300 236.724 L 331.800 236.600 331.919 234.347 L 332.037 232.093 334.319 231.921 C 340.985 231.419,343.308 225.066,337.800 222.400 C 336.153 221.603,329.723 221.210,329.067 221.867 M348.182 222.102 C 348.071 222.391,348.030 225.772,348.090 229.614 L 348.200 236.600 353.326 236.712 L 358.452 236.824 358.326 235.512 L 358.200 234.200 354.800 234.000 L 351.400 233.800 351.400 232.200 L 351.400 230.600 354.000 230.400 C 356.453 230.211,356.600 230.144,356.600 229.200 C 356.600 228.256,356.453 228.189,354.000 228.000 L 351.400 227.800 351.400 226.200 L 351.400 224.600 354.800 224.400 L 358.200 224.200 358.200 223.000 L 358.200 221.800 353.292 221.688 C 349.522 221.601,348.338 221.697,348.182 222.102 M366.700 221.833 C 366.535 221.998,366.400 225.444,366.400 229.491 L 366.400 236.848 367.900 236.724 L 369.400 236.600 369.600 234.200 C 369.938 230.147,372.008 230.648,374.148 235.300 C 374.750 236.611,375.012 236.800,376.219 236.800 C 377.897 236.800,377.937 236.433,376.562 233.674 L 375.524 231.592 376.742 230.204 C 379.039 227.589,378.579 223.783,375.800 222.405 C 374.514 221.767,367.223 221.309,366.700 221.833 M181.837 225.000 C 182.978 226.741,181.783 228.000,178.991 228.000 L 176.800 228.000 176.800 226.267 C 176.800 224.098,176.906 224.000,179.257 224.000 C 180.868 224.000,181.288 224.163,181.837 225.000 M215.801 225.601 C 219.155 228.751,217.355 233.775,212.867 233.791 L 210.600 233.800 210.485 229.627 C 210.422 227.332,210.470 225.194,210.592 224.877 C 210.945 223.956,214.590 224.463,215.801 225.601 M314.972 225.013 C 318.664 226.765,318.192 232.797,314.287 233.771 C 312.047 234.329,310.010 233.673,308.913 232.041 C 306.064 227.801,310.356 222.823,314.972 225.013 M337.060 225.414 C 338.442 227.304,337.159 228.960,334.295 228.983 L 332.200 229.000 332.079 226.649 L 331.957 224.297 334.238 224.487 C 335.839 224.619,336.681 224.896,337.060 225.414 M374.400 225.200 C 376.175 226.975,374.845 228.800,371.777 228.800 L 369.600 228.800 369.600 226.600 L 369.600 224.400 371.600 224.400 C 373.067 224.400,373.813 224.613,374.400 225.200 M182.421 231.454 C 183.154 233.383,182.038 234.400,179.191 234.400 L 176.800 234.400 176.800 232.400 L 176.800 230.400 179.410 230.400 C 181.861 230.400,182.044 230.464,182.421 231.454 " stroke="none" fill="#f25f04" fill-rule="evenodd"></path><path id="path4" d="M114.786 137.900 L 112.600 140.200 114.900 138.014 C 117.037 135.982,117.383 135.600,117.086 135.600 C 117.024 135.600,115.989 136.635,114.786 137.900 M129.600 139.871 C 128.469 140.340,128.412 141.027,128.406 154.251 C 128.399 169.564,128.091 168.494,132.463 168.318 L 135.400 168.200 135.600 161.332 C 135.710 157.555,135.898 154.367,136.017 154.248 C 136.137 154.129,138.387 157.183,141.017 161.034 C 146.236 168.674,146.018 168.501,150.208 168.320 L 153.000 168.200 153.105 154.227 C 153.224 138.489,153.473 139.616,149.874 139.606 C 145.857 139.596,146.000 139.289,146.000 147.912 L 146.000 155.397 140.945 147.798 C 138.165 143.619,135.816 140.115,135.724 140.012 C 135.460 139.714,130.265 139.595,129.600 139.871 M161.500 140.032 C 160.479 140.627,160.414 167.766,161.433 168.157 C 162.393 168.526,179.725 168.436,180.318 168.059 C 180.688 167.824,180.802 166.827,180.718 164.565 L 180.600 161.400 174.700 161.289 L 168.800 161.179 168.800 159.202 L 168.800 157.225 173.700 157.112 L 178.600 157.000 178.719 154.264 C 178.885 150.450,178.816 150.400,173.351 150.400 L 168.800 150.400 168.800 148.611 L 168.800 146.822 174.500 146.711 L 180.200 146.600 180.318 143.663 C 180.392 141.842,180.259 140.512,179.969 140.163 C 179.396 139.472,162.666 139.353,161.500 140.032 M188.095 139.933 C 187.700 140.183,187.613 143.314,187.695 154.227 L 187.800 168.200 190.592 168.320 C 192.127 168.387,193.792 168.338,194.292 168.213 L 195.200 167.985 195.200 154.039 L 195.200 140.093 194.300 139.852 C 192.992 139.502,188.686 139.558,188.095 139.933 M204.000 139.871 C 203.670 140.008,203.268 140.318,203.106 140.560 C 202.575 141.355,202.741 167.381,203.280 167.920 C 203.787 168.427,219.708 168.641,220.967 168.157 C 221.469 167.965,221.600 167.271,221.600 164.800 C 221.600 161.033,221.881 161.200,215.567 161.200 L 210.800 161.200 210.794 151.100 C 210.791 145.545,210.621 140.736,210.417 140.414 C 210.027 139.798,205.168 139.386,204.000 139.871 M140.075 147.600 C 142.646 151.450,145.076 155.050,145.475 155.600 C 146.186 156.581,146.204 156.449,146.400 148.600 L 146.600 140.600 149.600 140.600 L 152.600 140.600 152.600 154.200 L 152.600 167.800 149.521 167.916 L 146.443 168.033 143.956 164.316 C 139.502 157.660,135.972 152.800,135.591 152.800 C 135.377 152.800,135.171 156.004,135.109 160.300 L 135.000 167.800 132.100 167.918 L 129.200 168.035 129.200 154.201 L 129.200 140.366 132.300 140.483 L 135.400 140.600 140.075 147.600 M179.800 143.400 L 179.800 146.200 173.880 146.311 L 167.961 146.422 168.080 148.711 L 168.200 151.000 173.200 151.200 L 178.200 151.400 178.200 154.000 L 178.200 156.600 173.100 156.712 L 168.000 156.824 168.000 159.202 L 168.000 161.579 174.100 161.690 L 180.200 161.800 180.200 164.800 L 180.200 167.800 171.000 167.800 L 161.800 167.800 161.695 154.092 L 161.589 140.385 170.695 140.492 L 179.800 140.600 179.800 143.400 M194.604 141.300 C 194.725 141.795,194.773 147.960,194.712 155.000 L 194.600 167.800 191.400 167.800 L 188.200 167.800 188.094 154.603 C 188.036 147.345,188.076 141.180,188.182 140.903 C 188.573 139.884,194.346 140.241,194.604 141.300 M210.093 150.900 L 210.200 161.400 215.400 161.600 L 220.600 161.800 220.600 164.800 L 220.600 167.800 212.100 167.908 L 203.600 168.016 203.600 154.208 L 203.600 140.400 206.793 140.400 L 209.987 140.400 210.093 150.900 M119.200 162.600 C 120.617 164.030,121.867 165.200,121.977 165.200 C 122.087 165.200,121.017 164.030,119.600 162.600 C 118.183 161.170,116.933 160.000,116.823 160.000 C 116.713 160.000,117.783 161.170,119.200 162.600 M24.000 179.800 C 17.733 186.070,12.695 191.200,12.805 191.200 C 12.915 191.200,18.133 186.070,24.400 179.800 C 30.667 173.530,35.705 168.400,35.595 168.400 C 35.485 168.400,30.267 173.530,24.000 179.800 M117.593 174.300 L 113.400 178.600 117.700 174.407 C 120.065 172.101,122.000 170.166,122.000 170.107 C 122.000 169.818,121.487 170.306,117.593 174.300 M129.600 178.261 C 128.469 178.749,128.412 179.428,128.406 192.651 C 128.401 203.802,128.493 205.979,128.986 206.388 C 130.099 207.312,144.652 206.770,146.600 205.731 C 151.459 203.140,152.584 195.605,148.581 192.456 L 147.545 191.642 148.460 190.404 C 150.898 187.107,149.516 181.051,145.918 179.266 C 144.013 178.321,131.281 177.537,129.600 178.261 M165.830 178.528 C 165.433 178.819,163.948 182.194,162.530 186.028 C 153.875 209.439,154.318 206.784,159.067 206.794 C 162.810 206.802,163.042 206.683,163.812 204.365 L 164.464 202.400 169.200 202.400 L 173.936 202.400 174.588 204.365 C 174.947 205.446,175.517 206.436,175.853 206.565 C 176.771 206.917,182.124 206.836,182.714 206.461 C 183.328 206.072,173.917 179.334,172.873 178.500 C 172.022 177.820,166.770 177.841,165.830 178.528 M189.500 178.432 C 188.855 178.808,188.800 179.916,188.800 192.577 C 188.800 208.276,188.369 206.800,192.953 206.800 C 196.714 206.800,196.800 206.691,196.800 201.920 C 196.800 196.701,197.352 196.692,200.600 201.862 C 201.920 203.963,203.238 205.934,203.529 206.241 C 204.129 206.876,211.002 207.040,211.947 206.442 C 212.589 206.035,212.689 206.221,209.021 201.009 C 206.424 197.317,206.294 197.032,207.021 196.630 C 213.210 193.212,213.255 182.689,207.094 179.546 C 204.517 178.231,191.283 177.393,189.500 178.432 M227.125 178.500 C 226.273 179.178,216.636 205.395,216.943 206.196 C 217.145 206.722,217.785 206.811,220.651 206.716 C 224.388 206.591,224.290 206.650,225.370 203.900 L 225.959 202.400 230.748 202.400 L 235.536 202.400 235.807 203.700 C 236.392 206.503,236.854 206.800,240.622 206.800 C 243.194 206.800,244.078 206.661,244.243 206.232 C 244.569 205.382,235.231 179.533,234.296 178.700 C 233.338 177.845,228.130 177.700,227.125 178.500 M250.900 178.412 C 250.097 178.735,250.000 179.053,250.000 181.354 C 250.000 185.365,249.776 185.200,255.243 185.200 C 257.859 185.200,259.996 185.335,259.991 185.500 C 259.986 185.665,257.468 188.950,254.396 192.800 L 248.809 199.800 248.804 203.057 C 248.799 207.114,247.892 206.800,259.600 206.800 C 271.282 206.800,270.400 207.097,270.400 203.165 C 270.400 199.392,270.873 199.637,263.297 199.497 L 257.995 199.400 263.135 192.957 C 270.089 184.240,269.600 185.089,269.600 181.725 C 269.600 179.270,269.482 178.765,268.826 178.414 C 267.868 177.901,252.176 177.900,250.900 178.412 M285.534 178.269 C 284.761 178.474,284.710 178.593,279.744 192.000 C 277.666 197.610,275.681 202.958,275.334 203.885 C 274.343 206.530,274.640 206.800,278.538 206.800 C 282.281 206.800,282.450 206.702,283.226 204.088 L 283.734 202.376 288.567 202.488 L 293.400 202.600 293.962 204.400 C 294.271 205.390,294.721 206.332,294.962 206.494 C 295.811 207.063,302.007 206.848,302.240 206.240 C 302.661 205.143,292.748 178.480,291.827 178.233 C 290.883 177.979,286.534 178.004,285.534 178.269 M308.895 178.333 C 308.500 178.583,308.413 181.714,308.495 192.627 L 308.600 206.600 311.392 206.720 C 316.148 206.925,316.000 207.071,316.000 202.192 C 316.000 196.471,316.525 196.496,320.329 202.400 L 323.164 206.800 327.194 206.800 C 332.411 206.800,332.448 206.682,328.841 201.630 C 325.562 197.037,325.575 197.086,327.331 195.935 C 332.641 192.454,332.280 182.428,326.746 179.680 C 323.987 178.310,310.531 177.295,308.895 178.333 M337.600 178.292 C 336.628 178.662,336.413 179.271,336.406 181.667 C 336.397 185.226,336.367 185.200,340.443 185.200 L 344.000 185.200 344.000 195.757 C 344.000 207.844,343.607 206.800,348.153 206.800 C 352.220 206.800,352.000 207.445,352.000 195.536 L 352.000 185.231 355.500 185.116 L 359.000 185.000 359.115 181.751 C 359.225 178.658,359.187 178.490,358.315 178.256 C 357.168 177.949,338.416 177.981,337.600 178.292 M366.400 178.292 C 365.271 178.722,365.212 179.423,365.206 192.651 C 365.201 203.412,365.303 205.988,365.750 206.359 C 366.136 206.679,369.089 206.783,375.650 206.707 L 385.000 206.600 385.000 203.200 L 385.000 199.800 379.100 199.689 L 373.200 199.579 373.200 197.589 L 373.200 195.600 377.567 195.600 C 383.397 195.600,383.200 195.719,383.200 192.204 C 383.200 188.721,383.360 188.814,377.300 188.805 L 373.200 188.800 373.200 187.011 L 373.200 185.222 378.900 185.111 L 384.600 185.000 384.715 181.751 C 384.825 178.658,384.787 178.490,383.915 178.256 C 382.770 177.949,367.216 177.981,366.400 178.292 M145.918 179.734 C 149.109 181.441,150.096 187.965,147.548 190.513 C 146.860 191.202,146.490 191.830,146.728 191.909 C 150.940 193.313,151.740 200.992,148.002 204.137 C 146.037 205.790,144.282 206.120,136.500 206.297 L 129.200 206.464 129.200 192.589 L 129.200 178.715 136.900 178.872 C 143.279 179.003,144.826 179.151,145.918 179.734 M172.999 179.500 C 173.155 179.885,173.793 181.640,174.417 183.400 C 175.041 185.160,176.119 188.130,176.812 190.000 C 177.504 191.870,178.219 193.850,178.400 194.400 C 178.581 194.950,179.297 196.930,179.991 198.800 C 182.996 206.896,183.062 206.491,178.765 206.319 L 175.807 206.200 175.032 203.900 L 174.257 201.600 169.156 201.600 L 164.056 201.600 163.328 203.900 L 162.600 206.200 159.300 206.316 C 155.213 206.460,155.299 207.187,158.411 198.800 C 162.895 186.712,163.435 185.253,164.437 182.504 C 165.854 178.620,165.614 178.800,169.371 178.800 C 172.180 178.800,172.760 178.912,172.999 179.500 M206.400 179.870 C 212.829 182.804,212.970 191.777,206.656 196.201 L 205.512 197.003 208.556 201.350 C 212.317 206.722,212.352 206.453,207.900 206.315 L 204.200 206.200 201.490 202.204 C 196.891 195.423,196.087 195.385,195.913 201.943 L 195.800 206.200 192.800 206.200 L 189.800 206.200 189.695 192.452 L 189.589 178.704 197.095 178.876 C 203.582 179.025,204.844 179.160,206.400 179.870 M234.575 180.100 C 235.224 181.603,236.225 184.321,238.000 189.400 C 238.692 191.380,239.605 193.945,240.029 195.100 C 240.453 196.255,241.177 198.235,241.638 199.500 C 242.099 200.765,242.817 202.675,243.234 203.744 C 244.218 206.266,244.088 206.401,240.676 206.394 C 237.222 206.387,237.135 206.334,236.367 203.800 L 235.760 201.800 230.580 201.800 L 225.400 201.800 224.800 203.682 C 223.958 206.323,223.737 206.454,220.361 206.319 C 216.677 206.171,216.673 207.104,220.400 197.200 C 221.104 195.330,222.004 192.900,222.400 191.800 C 223.176 189.647,225.181 184.298,226.486 180.900 L 227.293 178.800 230.653 178.800 L 234.013 178.800 234.575 180.100 M268.799 181.900 L 268.799 185.000 263.015 192.200 C 259.833 196.160,257.224 199.530,257.215 199.690 C 257.207 199.849,259.945 200.029,263.300 200.090 L 269.400 200.200 269.400 203.200 L 269.400 206.200 259.400 206.200 L 249.400 206.200 249.284 203.366 C 249.163 200.407,249.599 199.502,253.348 194.939 C 257.100 190.372,260.800 185.551,260.800 185.227 C 260.800 184.983,258.789 184.780,255.700 184.712 L 250.600 184.600 250.475 182.627 C 250.406 181.541,250.455 180.236,250.583 179.727 L 250.815 178.800 259.808 178.800 L 268.800 178.800 268.799 181.900 M292.197 179.195 C 292.434 179.579,294.542 185.196,295.200 187.200 C 295.381 187.750,296.101 189.730,296.800 191.600 C 297.499 193.470,298.217 195.450,298.396 196.000 C 298.574 196.550,299.440 199.013,300.320 201.473 C 302.182 206.680,302.281 206.400,298.582 206.400 C 295.453 206.400,294.966 206.128,294.571 204.162 C 294.073 201.679,293.784 201.563,288.372 201.687 L 283.451 201.800 282.822 203.600 C 281.842 206.398,281.840 206.400,278.600 206.400 C 275.107 206.400,274.980 206.272,275.966 203.744 C 276.383 202.675,277.084 200.810,277.522 199.600 C 277.961 198.390,278.896 195.870,279.600 194.000 C 280.304 192.130,281.204 189.700,281.600 188.600 C 281.996 187.500,282.861 185.160,283.522 183.400 C 284.182 181.640,284.825 179.885,284.949 179.500 C 285.205 178.707,291.725 178.432,292.197 179.195 M326.134 179.990 C 331.945 182.784,331.921 193.756,326.100 196.029 C 324.734 196.562,324.954 197.164,328.162 201.654 C 331.668 206.560,331.700 206.400,327.202 206.400 L 323.651 206.400 320.805 202.035 C 316.572 195.543,315.683 195.527,315.513 201.938 L 315.400 206.200 312.200 206.200 L 309.000 206.200 308.894 193.003 C 308.836 185.745,308.884 179.558,309.000 179.255 C 309.400 178.213,323.714 178.827,326.134 179.990 M358.600 181.800 L 358.600 184.600 354.907 184.715 L 351.213 184.830 351.107 195.515 L 351.000 206.200 348.000 206.200 L 345.000 206.200 344.800 195.600 L 344.600 185.000 340.900 184.885 L 337.200 184.770 337.200 181.778 L 337.200 178.787 347.900 178.893 L 358.600 179.000 358.600 181.800 M384.200 181.800 L 384.200 184.600 378.400 184.800 L 372.600 185.000 372.600 187.200 L 372.600 189.400 377.600 189.600 L 382.600 189.800 382.600 192.400 L 382.600 195.000 377.600 195.200 L 372.600 195.400 372.600 197.600 L 372.600 199.800 378.600 200.000 L 384.600 200.200 384.600 203.200 L 384.600 206.200 375.300 206.307 L 366.000 206.415 366.000 192.600 L 366.000 178.785 375.100 178.892 L 384.200 179.000 384.200 181.800 M38.394 187.100 L 33.000 192.600 38.500 187.206 C 43.609 182.194,44.181 181.600,43.894 181.600 C 43.836 181.600,41.361 184.075,38.394 187.100 M135.783 184.927 C 135.655 185.436,135.606 186.741,135.675 187.827 L 135.800 189.800 138.183 189.922 C 142.257 190.132,143.903 188.701,142.831 185.882 C 142.033 183.781,136.266 183.000,135.783 184.927 M141.920 185.280 C 142.485 185.845,142.546 187.950,142.021 188.779 C 141.783 189.156,140.736 189.417,139.027 189.526 L 136.400 189.693 136.400 187.247 L 136.400 184.800 138.920 184.800 C 140.347 184.800,141.648 185.008,141.920 185.280 M196.000 188.400 L 196.000 192.000 198.820 192.000 C 203.106 192.000,204.379 191.060,204.395 187.882 C 204.405 185.706,202.884 184.800,199.218 184.800 L 196.000 184.800 196.000 188.400 M315.600 188.400 L 315.600 192.000 318.618 192.000 C 321.938 192.000,323.274 191.238,323.829 189.027 C 324.522 186.268,322.630 184.800,318.381 184.800 L 315.600 184.800 315.600 188.400 M202.000 185.557 C 203.462 185.962,204.172 187.667,203.600 189.400 C 203.090 190.944,201.583 191.594,198.500 191.598 L 196.800 191.600 196.800 188.400 L 196.800 185.200 198.900 185.240 C 200.055 185.262,201.450 185.404,202.000 185.557 M321.175 185.593 C 325.318 186.781,323.629 191.220,318.990 191.332 L 316.200 191.400 316.079 188.842 C 315.899 185.021,316.917 184.372,321.175 185.593 M168.513 187.300 C 165.448 196.210,165.477 196.491,169.440 196.320 C 172.730 196.177,172.682 196.416,170.692 190.101 C 169.263 185.568,169.157 185.431,168.513 187.300 M230.080 186.880 C 229.816 187.144,229.600 187.627,229.600 187.953 C 229.600 188.280,229.237 189.639,228.794 190.973 C 228.350 192.308,227.816 193.921,227.606 194.559 C 227.055 196.236,227.324 196.400,230.624 196.400 C 234.196 196.400,234.165 196.491,232.400 191.135 C 231.740 189.133,231.200 187.248,231.200 186.947 C 231.200 186.272,230.717 186.243,230.080 186.880 M286.876 190.537 C 285.023 196.546,284.980 196.400,288.576 196.400 C 292.244 196.400,292.150 196.594,290.713 192.000 C 288.526 185.008,288.575 185.027,286.876 190.537 M170.565 191.621 C 171.945 196.182,171.999 196.000,169.267 196.000 C 166.247 196.000,166.322 196.215,167.738 191.591 C 169.138 187.022,169.174 187.023,170.565 191.621 M233.200 195.685 C 233.200 196.129,228.496 196.080,228.220 195.632 C 228.035 195.334,229.309 190.587,230.268 188.000 C 230.453 187.500,233.200 194.699,233.200 195.685 M290.966 195.655 C 290.675 196.127,286.000 196.095,286.000 195.621 C 286.000 195.274,287.745 189.413,288.268 188.000 C 288.392 187.667,289.089 189.160,289.835 191.355 C 290.575 193.530,291.084 195.465,290.966 195.655 M135.900 195.031 C 135.541 195.393,135.498 199.269,135.843 200.167 C 136.240 201.202,141.568 201.055,142.946 199.971 C 144.160 199.016,144.354 197.103,143.370 195.800 C 142.740 194.966,136.593 194.333,135.900 195.031 M140.902 195.449 C 142.902 195.723,143.861 196.933,143.358 198.546 C 142.963 199.815,142.480 199.987,139.300 199.994 L 136.400 200.000 136.400 197.600 L 136.400 195.200 137.744 195.200 C 138.483 195.200,139.905 195.312,140.902 195.449 M42.200 210.000 C 45.715 213.520,48.681 216.400,48.791 216.400 C 48.901 216.400,46.115 213.520,42.600 210.000 C 39.085 206.480,36.119 203.600,36.009 203.600 C 35.899 203.600,38.685 206.480,42.200 210.000 M39.400 213.200 C 42.915 216.720,45.881 219.600,45.991 219.600 C 46.101 219.600,43.315 216.720,39.800 213.200 C 36.285 209.680,33.319 206.800,33.209 206.800 C 33.099 206.800,35.885 209.680,39.400 213.200 M311.905 221.483 C 312.402 221.579,313.122 221.575,313.505 221.475 C 313.887 221.375,313.480 221.296,312.600 221.301 C 311.720 221.305,311.407 221.387,311.905 221.483 M165.398 222.937 L 165.400 224.200 162.000 224.400 L 158.600 224.600 158.471 225.951 C 158.400 226.694,158.494 227.454,158.680 227.640 C 158.867 227.827,158.951 227.264,158.868 226.390 L 158.716 224.800 161.878 224.800 C 163.804 224.800,165.228 224.612,165.520 224.320 C 166.052 223.788,166.170 222.153,165.698 221.861 C 165.532 221.758,165.397 222.243,165.398 222.937 M228.578 222.113 C 228.469 222.396,228.431 225.861,228.492 229.813 L 228.602 237.000 228.801 229.300 C 228.996 221.746,228.975 221.077,228.578 222.113 M269.378 222.113 C 269.269 222.396,269.231 225.861,269.292 229.813 L 269.402 237.000 269.601 229.300 C 269.796 221.746,269.775 221.077,269.378 222.113 M287.467 221.867 C 287.097 222.236,287.129 236.309,287.500 236.538 C 287.665 236.640,287.800 233.321,287.800 229.162 C 287.800 225.003,287.785 221.600,287.767 221.600 C 287.748 221.600,287.613 221.720,287.467 221.867 M358.198 222.937 L 358.200 224.200 354.800 224.400 L 351.400 224.600 351.271 225.951 C 351.200 226.694,351.294 227.454,351.480 227.640 C 351.667 227.827,351.751 227.264,351.668 226.390 L 351.516 224.800 354.678 224.800 C 356.604 224.800,358.028 224.612,358.320 224.320 C 358.852 223.788,358.970 222.153,358.498 221.861 C 358.332 221.758,358.197 222.243,358.198 222.937 M290.874 227.876 C 290.833 230.998,290.935 233.637,291.100 233.739 C 291.265 233.842,291.352 232.188,291.294 230.063 C 291.098 222.935,290.949 222.157,290.874 227.876 M218.834 224.247 C 219.365 224.933,219.880 225.423,219.979 225.335 C 220.077 225.247,219.643 224.686,219.013 224.088 L 217.869 223.000 218.834 224.247 M238.572 223.988 C 238.366 224.194,236.758 224.425,234.999 224.501 L 231.800 224.639 235.000 224.713 C 237.896 224.781,239.725 224.392,239.162 223.828 C 239.043 223.710,238.778 223.782,238.572 223.988 M279.372 223.988 C 279.166 224.194,277.558 224.425,275.799 224.501 L 272.600 224.639 275.800 224.713 C 278.696 224.781,280.525 224.392,279.962 223.828 C 279.843 223.710,279.578 223.782,279.372 223.988 M177.061 224.300 C 176.959 224.465,177.764 224.537,178.849 224.461 C 180.092 224.373,181.078 224.521,181.512 224.861 C 182.133 225.347,182.147 225.332,181.651 224.700 C 181.088 223.982,177.455 223.665,177.061 224.300 M210.573 224.927 C 210.130 226.079,210.592 233.733,211.110 233.838 C 211.390 233.894,211.436 233.849,211.210 233.737 C 210.968 233.616,210.800 231.757,210.800 229.190 L 210.800 224.846 212.500 224.693 L 214.200 224.540 212.487 224.470 C 211.386 224.425,210.703 224.588,210.573 224.927 M312.100 224.676 C 312.485 224.776,313.115 224.776,313.500 224.676 C 313.885 224.575,313.570 224.493,312.800 224.493 C 312.030 224.493,311.715 224.575,312.100 224.676 M332.905 224.687 C 333.514 224.779,334.414 224.777,334.905 224.682 C 335.397 224.587,334.900 224.511,333.800 224.514 C 332.700 224.517,332.297 224.595,332.905 224.687 M370.500 224.687 C 371.105 224.778,372.095 224.778,372.700 224.687 C 373.305 224.595,372.810 224.520,371.600 224.520 C 370.390 224.520,369.895 224.595,370.500 224.687 M336.814 225.541 C 337.066 226.058,337.183 226.824,337.073 227.241 C 336.964 227.659,337.038 227.900,337.237 227.777 C 337.797 227.431,337.668 226.237,336.978 225.376 C 336.386 224.637,336.378 224.645,336.814 225.541 M374.324 225.400 C 374.526 225.840,374.792 226.470,374.914 226.800 C 375.107 227.318,375.141 227.315,375.168 226.776 C 375.186 226.434,374.920 225.804,374.578 225.376 C 373.966 224.612,373.962 224.613,374.324 225.400 M184.697 227.766 C 184.075 229.069,184.084 229.150,184.925 229.847 C 185.777 230.554,185.782 230.554,185.122 229.823 C 184.507 229.142,184.501 228.966,185.052 227.900 C 185.386 227.254,185.588 226.655,185.501 226.568 C 185.414 226.481,185.052 227.020,184.697 227.766 M181.319 227.241 C 181.071 227.489,179.986 227.621,178.839 227.541 C 177.717 227.464,176.800 227.535,176.800 227.700 C 176.800 228.290,181.083 228.023,181.600 227.400 C 182.176 226.705,181.971 226.589,181.319 227.241 M236.893 229.200 C 236.893 229.970,236.975 230.285,237.076 229.900 C 237.176 229.515,237.176 228.885,237.076 228.500 C 236.975 228.115,236.893 228.430,236.893 229.200 M277.693 229.200 C 277.693 229.970,277.775 230.285,277.876 229.900 C 277.976 229.515,277.976 228.885,277.876 228.500 C 277.775 228.115,277.693 228.430,277.693 229.200 M317.264 229.067 C 317.229 229.764,317.096 230.664,316.970 231.067 C 316.753 231.759,316.765 231.760,317.194 231.091 C 317.445 230.702,317.577 229.802,317.489 229.091 L 317.328 227.800 317.264 229.067 M136.984 228.827 C 136.839 229.061,136.828 229.361,136.960 229.493 C 137.092 229.625,137.206 229.478,137.213 229.167 C 137.222 228.768,137.400 228.830,137.813 229.376 C 138.435 230.199,138.558 230.076,138.157 229.033 C 137.877 228.302,137.364 228.212,136.984 228.827 M141.808 229.176 C 141.662 229.635,141.375 229.908,141.171 229.782 C 140.967 229.656,140.800 229.743,140.800 229.976 C 140.800 230.209,140.974 230.400,141.186 230.400 C 141.639 230.400,142.555 228.822,142.269 228.536 C 142.161 228.428,141.954 228.716,141.808 229.176 M132.806 229.051 C 132.798 229.650,133.803 230.464,134.137 230.130 C 134.575 229.691,134.431 229.133,133.955 229.428 C 133.711 229.579,133.353 229.454,133.161 229.151 C 132.960 228.833,132.810 228.790,132.806 229.051 M333.100 229.082 C 333.595 229.178,334.405 229.178,334.900 229.082 C 335.395 228.987,334.990 228.909,334.000 228.909 C 333.010 228.909,332.605 228.987,333.100 229.082 M376.401 230.598 C 375.886 231.148,375.539 231.664,375.632 231.746 C 375.724 231.828,376.219 231.378,376.730 230.747 C 377.876 229.335,377.674 229.244,376.401 230.598 M161.200 230.369 L 158.600 230.600 158.600 232.167 C 158.600 233.116,158.801 233.774,159.110 233.837 C 159.391 233.894,159.436 233.849,159.210 233.737 C 158.985 233.625,158.800 232.918,158.800 232.167 L 158.800 230.800 161.176 230.800 C 162.483 230.800,163.664 230.620,163.800 230.400 C 163.936 230.180,163.992 230.031,163.924 230.069 C 163.856 230.107,162.630 230.242,161.200 230.369 M354.000 230.369 L 351.400 230.600 351.400 232.167 C 351.400 233.116,351.601 233.774,351.910 233.837 C 352.190 233.894,352.236 233.849,352.010 233.737 C 351.784 233.625,351.600 232.918,351.600 232.167 L 351.600 230.800 353.976 230.800 C 355.283 230.800,356.464 230.620,356.600 230.400 C 356.736 230.180,356.792 230.031,356.724 230.069 C 356.656 230.107,355.430 230.242,354.000 230.369 M233.107 230.690 C 233.826 230.779,234.906 230.777,235.507 230.686 C 236.108 230.595,235.520 230.522,234.200 230.524 C 232.880 230.526,232.388 230.601,233.107 230.690 M273.907 230.690 C 274.626 230.779,275.706 230.777,276.307 230.686 C 276.908 230.595,276.320 230.522,275.000 230.524 C 273.680 230.526,273.188 230.601,273.907 230.690 M64.991 236.900 L 61.800 240.200 65.100 237.009 C 68.165 234.046,68.582 233.600,68.291 233.600 C 68.230 233.600,66.745 235.085,64.991 236.900 M165.552 235.287 C 165.737 236.398,165.793 236.455,165.919 235.654 C 166.001 235.133,165.903 234.543,165.701 234.341 C 165.479 234.119,165.421 234.493,165.552 235.287 M358.352 235.287 C 358.537 236.398,358.593 236.455,358.719 235.654 C 358.801 235.133,358.703 234.543,358.501 234.341 C 358.279 234.119,358.221 234.493,358.352 235.287 M311.700 237.087 C 312.305 237.178,313.295 237.178,313.900 237.087 C 314.505 236.995,314.010 236.920,312.800 236.920 C 311.590 236.920,311.095 236.995,311.700 237.087 " stroke="none" fill="#635249" fill-rule="evenodd"></path></g></svg>