<?xml version="1.0" encoding="utf-8"?>
<svg viewBox="100 101.163 315.092 70.93" width="315.092" height="70.93" xmlns="http://www.w3.org/2000/svg">
  <g transform="matrix(30.643934, 0, 0, 24.522118, 99.693558, 101.469322)" style="">
    <path d="M1.6 1.95c0.18,-0 0.26,0.15 0.38,0.27 0.06,0.06 0.17,0.06 0.23,0l0.29 -0.29c0.06,-0.06 0.06,-0.17 -0,-0.23l-0.29 -0.29c-0.11,-0.11 -0.24,-0.18 -0.15,-0.25 0.04,-0.03 0.07,-0.05 0.14,-0.05 0.11,-0 0.15,0.09 0.23,0.16 0.04,0.04 0.1,0.04 0.14,0l0.18 -0.18c0.04,-0.04 0.04,-0.1 -0,-0.14l-0.18 -0.18c-0.04,-0.04 -0.1,-0.04 -0.14,-0 -0.07,0.07 -0.13,0.17 -0.23,0.17 -0.1,0 -0.16,-0.1 -0.23,-0.17 -0.04,-0.04 -0.1,-0.04 -0.14,0l-0.18 0.18c-0.04,0.04 -0.04,0.1 0,0.14 0.15,0.15 0.4,0.24 0.28,0.38 -0.09,0.11 -0.19,0.23 -0.33,0.23 -0.17,0 -0.27,-0.17 -0.39,-0.29 -0.06,-0.06 -0.17,-0.06 -0.23,0l-0.07 0.07 -0.22 0.22c-0.06,0.06 -0.06,0.17 0,0.23l0.24 0.24 0.05 0.05c0.06,0.06 0.17,0.06 0.23,0 0.13,-0.13 0.2,-0.27 0.39,-0.27zm-0.3 -1.13l0.56 0.56c-0.07,0.09 -0.17,0.2 -0.26,0.2 -0.12,-0 -0.24,-0.18 -0.32,-0.26 -0.1,-0.1 -0.27,-0.1 -0.38,0l-0.29 0.29c-0.1,0.1 -0.1,0.27 0,0.38l0.29 0.29c0.1,0.1 0.27,0.1 0.38,0 0.09,-0.09 0.18,-0.24 0.32,-0.24 0.11,-0 0.19,0.1 0.26,0.19l-0.56 0.56c-0.12,0.12 -0.31,0.12 -0.43,0l-0.77 -0.77c-0.12,-0.12 -0.12,-0.31 0,-0.43l0.77 -0.77c0.12,-0.12 0.31,-0.12 0.43,0zm1.02 -0.59l0.11 0.11c0.03,0.03 0.08,0.03 0.11,0l0.11 -0.11c0.03,-0.03 0.03,-0.08 0,-0.11l-0.11 -0.11c-0.03,-0.03 -0.08,-0.03 -0.11,0l-0.11 0.11c-0.03,0.03 -0.03,0.08 0,0.11z" style="paint-order: fill; fill-rule: evenodd; fill: rgb(84, 109, 255);"/>
  </g>
  <path d="M 210.22 113.819 Q 210.22 114 210.152 114.154 Q 210.084 114.309 209.971 114.422 Q 209.858 114.535 209.703 114.6 Q 209.549 114.664 209.374 114.664 Q 209.22 114.664 209.061 114.606 Q 208.903 114.548 208.781 114.419 L 202.652 108.019 L 202.652 114.535 L 200.974 114.535 L 200.974 105.999 Q 200.974 105.741 201.119 105.532 Q 201.265 105.322 201.49 105.219 Q 201.729 105.122 201.981 105.17 Q 202.232 105.219 202.413 105.406 L 208.542 111.799 L 208.542 105.283 L 210.22 105.283 Z" transform="matrix(1.906126, 0, 0, 2.143767, -190.483688, -116.042595)" style="text-transform: uppercase; white-space: pre;"/>
  <path d="M 218.565 110.754 L 213.268 110.754 L 213.268 109.064 L 218.565 109.064 Z M 219.32 114.535 L 213.268 114.535 Q 212.92 114.535 212.507 114.412 Q 212.094 114.29 211.742 114.009 Q 211.391 113.729 211.155 113.28 Q 210.92 112.832 210.92 112.18 L 210.92 106.128 Q 210.92 105.954 210.984 105.799 Q 211.049 105.644 211.162 105.528 Q 211.275 105.412 211.429 105.348 Q 211.584 105.283 211.765 105.283 L 219.32 105.283 L 219.32 106.961 L 212.597 106.961 L 212.597 112.18 Q 212.597 112.509 212.771 112.683 Q 212.946 112.858 213.281 112.858 L 219.32 112.858 Z" transform="matrix(1.906126, 0, 0, 2.143767, -190.483688, -116.042595)" style="text-transform: uppercase; white-space: pre;"/>
  <path d="M 221.431 114.535 L 219.754 114.535 L 219.754 105.283 L 221.431 105.283 Z" transform="matrix(1.906126, 0, 0, 2.143767, -190.483688, -116.042595)" style="text-transform: uppercase; white-space: pre;"/>
  <path d="M 230.688 114.535 L 223.036 114.535 Q 222.855 114.535 222.7 114.47 Q 222.546 114.406 222.433 114.293 Q 222.32 114.18 222.255 114.025 Q 222.191 113.87 222.191 113.69 L 222.191 105.283 L 223.868 105.283 L 223.868 112.858 L 230.688 112.858 Z" transform="matrix(1.906126, 0, 0, 2.143767, -190.483688, -116.042595)" style="text-transform: uppercase; white-space: pre;"/>
  <path d="M 242.91 112.503 Q 242.91 112.812 242.803 113.167 Q 242.697 113.522 242.455 113.825 Q 242.213 114.129 241.826 114.332 Q 241.439 114.535 240.877 114.535 L 234.509 114.535 Q 234.329 114.535 234.174 114.47 Q 234.019 114.406 233.906 114.293 Q 233.793 114.18 233.729 114.025 Q 233.664 113.87 233.664 113.69 L 233.664 106.128 Q 233.664 105.954 233.729 105.799 Q 233.793 105.644 233.906 105.528 Q 234.019 105.412 234.174 105.348 Q 234.329 105.283 234.509 105.283 L 240.123 105.283 Q 240.432 105.283 240.787 105.393 Q 241.142 105.503 241.448 105.744 Q 241.755 105.986 241.958 106.374 Q 242.161 106.761 242.161 107.322 L 242.161 107.638 Q 242.161 108.083 242.013 108.596 Q 241.864 109.109 241.535 109.567 Q 241.819 109.741 242.068 109.987 Q 242.316 110.232 242.503 110.554 Q 242.69 110.877 242.8 111.283 Q 242.91 111.69 242.91 112.18 Z M 241.232 112.18 Q 241.232 111.851 241.129 111.59 Q 241.026 111.328 240.839 111.141 Q 240.652 110.954 240.387 110.854 Q 240.123 110.754 239.793 110.754 L 236.013 110.754 L 236.013 109.064 L 239.039 109.064 Q 239.368 109.064 239.632 108.964 Q 239.897 108.864 240.084 108.677 Q 240.271 108.49 240.371 108.228 Q 240.471 107.967 240.471 107.638 L 240.471 107.322 Q 240.471 106.961 240.123 106.961 L 235.342 106.961 L 235.342 112.858 L 240.877 112.858 Q 240.923 112.858 240.987 112.851 Q 241.052 112.845 241.103 112.812 Q 241.155 112.78 241.194 112.703 Q 241.232 112.625 241.232 112.49 Z" transform="matrix(1.906126, 0, 0, 2.143767, -190.483688, -116.042595)" style="text-transform: uppercase; white-space: pre;"/>
  <path d="M 252.238 114.535 L 250.561 114.535 L 250.561 112.264 L 244.664 112.264 L 244.664 114.535 L 242.986 114.535 L 242.986 109.909 Q 242.986 108.896 243.335 108.045 Q 243.683 107.193 244.303 106.58 Q 244.922 105.967 245.767 105.625 Q 246.612 105.283 247.612 105.283 L 251.393 105.283 Q 251.567 105.283 251.722 105.348 Q 251.877 105.412 251.993 105.528 Q 252.109 105.644 252.174 105.799 Q 252.238 105.954 252.238 106.128 Z M 244.664 110.587 L 250.561 110.587 L 250.561 106.961 L 247.612 106.961 Q 247.535 106.961 247.287 106.983 Q 247.038 107.006 246.712 107.096 Q 246.387 107.186 246.025 107.374 Q 245.664 107.561 245.361 107.89 Q 245.058 108.219 244.861 108.712 Q 244.664 109.206 244.664 109.909 Z" transform="matrix(1.906126, 0, 0, 2.143767, -190.483688, -116.042595)" style="text-transform: uppercase; white-space: pre;"/>
  <path d="M 262.229 108.393 Q 262.229 108.967 262.087 109.419 Q 261.945 109.87 261.703 110.216 Q 261.461 110.561 261.145 110.806 Q 260.828 111.051 260.483 111.209 Q 260.138 111.367 259.787 111.438 Q 259.435 111.509 259.125 111.509 L 262.629 114.535 L 260.035 114.535 L 256.538 111.509 L 255.332 111.509 L 255.332 109.832 L 259.125 109.832 Q 259.441 109.806 259.703 109.699 Q 259.964 109.593 260.154 109.412 Q 260.345 109.232 260.448 108.977 Q 260.551 108.722 260.551 108.393 L 260.551 107.335 Q 260.551 107.193 260.516 107.119 Q 260.48 107.045 260.425 107.009 Q 260.37 106.974 260.309 106.967 Q 260.248 106.961 260.196 106.961 L 254.661 106.961 L 254.661 114.535 L 252.983 114.535 L 252.983 106.128 Q 252.983 105.954 253.048 105.799 Q 253.112 105.644 253.225 105.528 Q 253.338 105.412 253.493 105.348 Q 253.648 105.283 253.828 105.283 L 260.196 105.283 Q 260.758 105.283 261.145 105.486 Q 261.532 105.69 261.774 105.996 Q 262.016 106.303 262.122 106.657 Q 262.229 107.012 262.229 107.322 Z" transform="matrix(1.906126, 0, 0, 2.143767, -190.483688, -116.042595)" style="text-transform: uppercase; white-space: pre;"/>
  <path d="M 271.791 114.535 L 270.113 114.535 L 270.113 112.264 L 264.216 112.264 L 264.216 114.535 L 262.539 114.535 L 262.539 109.909 Q 262.539 108.896 262.887 108.045 Q 263.236 107.193 263.855 106.58 Q 264.474 105.967 265.32 105.625 Q 266.165 105.283 267.165 105.283 L 270.946 105.283 Q 271.12 105.283 271.275 105.348 Q 271.429 105.412 271.546 105.528 Q 271.662 105.644 271.726 105.799 Q 271.791 105.954 271.791 106.128 Z M 264.216 110.587 L 270.113 110.587 L 270.113 106.961 L 267.165 106.961 Q 267.087 106.961 266.839 106.983 Q 266.591 107.006 266.265 107.096 Q 265.939 107.186 265.578 107.374 Q 265.216 107.561 264.913 107.89 Q 264.61 108.219 264.413 108.712 Q 264.216 109.206 264.216 109.909 Z" transform="matrix(1.906126, 0, 0, 2.143767, -190.483688, -116.042595)" style="text-transform: uppercase; white-space: pre;"/>
  <path d="M 280.444 105.786 Q 280.541 106.012 280.502 106.261 Q 280.464 106.509 280.296 106.683 L 274.76 112.858 L 280.431 112.858 L 280.431 114.535 L 272.87 114.535 Q 272.625 114.535 272.415 114.396 Q 272.205 114.258 272.102 114.032 Q 271.992 113.806 272.034 113.561 Q 272.076 113.316 272.238 113.135 L 277.786 106.961 L 272.102 106.961 L 272.102 105.283 L 279.676 105.283 Q 279.922 105.283 280.131 105.422 Q 280.341 105.561 280.444 105.786 Z" transform="matrix(1.906126, 0, 0, 2.143767, -190.483688, -116.042595)" style="text-transform: uppercase; white-space: pre;"/>
  <path d="M 289.833 114.535 L 288.156 114.535 L 288.156 112.264 L 282.259 112.264 L 282.259 114.535 L 280.581 114.535 L 280.581 109.909 Q 280.581 108.896 280.93 108.045 Q 281.278 107.193 281.898 106.58 Q 282.517 105.967 283.362 105.625 Q 284.207 105.283 285.207 105.283 L 288.988 105.283 Q 289.162 105.283 289.317 105.348 Q 289.472 105.412 289.588 105.528 Q 289.704 105.644 289.769 105.799 Q 289.833 105.954 289.833 106.128 Z M 282.259 110.587 L 288.156 110.587 L 288.156 106.961 L 285.207 106.961 Q 285.13 106.961 284.882 106.983 Q 284.633 107.006 284.307 107.096 Q 283.982 107.186 283.62 107.374 Q 283.259 107.561 282.956 107.89 Q 282.652 108.219 282.456 108.712 Q 282.259 109.206 282.259 109.909 Z" transform="matrix(1.906126, 0, 0, 2.143767, -190.483688, -116.042595)" style="text-transform: uppercase; white-space: pre;"/>
  <path d="M 299.823 108.393 Q 299.823 108.967 299.682 109.419 Q 299.54 109.87 299.298 110.216 Q 299.056 110.561 298.74 110.806 Q 298.423 111.051 298.078 111.209 Q 297.733 111.367 297.381 111.438 Q 297.03 111.509 296.72 111.509 L 300.223 114.535 L 297.63 114.535 L 294.133 111.509 L 292.927 111.509 L 292.927 109.832 L 296.72 109.832 Q 297.036 109.806 297.298 109.699 Q 297.559 109.593 297.749 109.412 Q 297.94 109.232 298.043 108.977 Q 298.146 108.722 298.146 108.393 L 298.146 107.335 Q 298.146 107.193 298.111 107.119 Q 298.075 107.045 298.02 107.009 Q 297.965 106.974 297.904 106.967 Q 297.843 106.961 297.791 106.961 L 292.256 106.961 L 292.256 114.535 L 290.578 114.535 L 290.578 106.128 Q 290.578 105.954 290.643 105.799 Q 290.707 105.644 290.82 105.528 Q 290.933 105.412 291.088 105.348 Q 291.243 105.283 291.423 105.283 L 297.791 105.283 Q 298.352 105.283 298.74 105.486 Q 299.127 105.69 299.369 105.996 Q 299.611 106.303 299.717 106.657 Q 299.823 107.012 299.823 107.322 Z" transform="matrix(1.906126, 0, 0, 2.143767, -190.483688, -116.042595)" style="text-transform: uppercase; white-space: pre;"/>
  <path d="M 308.593 106.961 L 304.896 106.961 L 304.896 114.535 L 303.218 114.535 L 303.218 106.961 L 299.515 106.961 L 299.515 105.283 L 308.593 105.283 Z" transform="matrix(1.906126, 0, 0, 2.143767, -190.483688, -116.042595)" style="text-transform: uppercase; white-space: pre;"/>
  <path d="M 316.227 110.754 L 310.93 110.754 L 310.93 109.064 L 316.227 109.064 Z M 316.982 114.535 L 310.93 114.535 Q 310.582 114.535 310.169 114.412 Q 309.756 114.29 309.404 114.009 Q 309.053 113.729 308.817 113.28 Q 308.582 112.832 308.582 112.18 L 308.582 106.128 Q 308.582 105.954 308.646 105.799 Q 308.711 105.644 308.824 105.528 Q 308.937 105.412 309.092 105.348 Q 309.246 105.283 309.427 105.283 L 316.982 105.283 L 316.982 106.961 L 310.259 106.961 L 310.259 112.18 Q 310.259 112.509 310.434 112.683 Q 310.608 112.858 310.943 112.858 L 316.982 112.858 Z" transform="matrix(1.906126, 0, 0, 2.143767, -190.483688, -116.042595)" style="text-transform: uppercase; white-space: pre;"/>
  <path d="M 207.636 143.819 L 205.726 154.516 Q 205.662 154.834 205.439 155.065 Q 205.216 155.296 204.898 155.359 Q 204.571 155.415 204.281 155.288 Q 203.99 155.16 203.823 154.89 L 200.035 148.666 L 196.238 154.89 Q 196.103 155.121 195.868 155.248 Q 195.634 155.375 195.363 155.375 Q 194.989 155.375 194.702 155.136 Q 194.416 154.898 194.352 154.516 L 192.426 143.819 L 194.527 143.819 L 195.896 151.356 L 199.159 146.151 Q 199.295 145.92 199.529 145.793 Q 199.764 145.665 200.035 145.665 Q 200.305 145.665 200.536 145.793 Q 200.767 145.92 200.918 146.151 L 204.166 151.356 L 205.535 143.819 Z" style="fill: rgb(255, 87, 35); white-space: pre;"/>
  <path d="M 216.996 149.478 Q 216.996 149.907 216.845 150.405 Q 216.694 150.902 216.356 151.328 Q 216.017 151.754 215.472 152.04 Q 214.927 152.327 214.147 152.327 L 210.414 152.327 L 210.414 150.361 L 214.147 150.361 Q 214.569 150.361 214.8 150.102 Q 215.03 149.844 215.03 149.462 Q 215.03 149.056 214.772 148.825 Q 214.513 148.594 214.147 148.594 L 210.414 148.594 Q 209.992 148.594 209.762 148.853 Q 209.531 149.112 209.531 149.494 L 209.531 152.383 Q 209.531 152.797 209.789 153.027 Q 210.048 153.258 210.43 153.258 L 214.147 153.258 L 214.147 155.232 L 210.414 155.232 Q 209.984 155.232 209.487 155.081 Q 208.99 154.93 208.564 154.591 Q 208.138 154.253 207.851 153.708 Q 207.565 153.163 207.565 152.383 L 207.565 149.478 Q 207.565 149.048 207.716 148.55 Q 207.867 148.053 208.206 147.627 Q 208.544 147.201 209.089 146.915 Q 209.634 146.628 210.414 146.628 L 214.147 146.628 Q 214.577 146.628 215.074 146.78 Q 215.572 146.931 215.997 147.269 Q 216.423 147.607 216.71 148.152 Q 216.996 148.698 216.996 149.478 Z" style="fill: rgb(255, 87, 35); white-space: pre;"/>
  <path d="M 226.666 152.327 Q 226.666 152.621 226.598 152.948 Q 226.53 153.274 226.387 153.596 Q 226.244 153.919 226.017 154.213 Q 225.79 154.508 225.468 154.735 Q 225.145 154.961 224.724 155.097 Q 224.302 155.232 223.769 155.232 L 220.036 155.232 Q 219.741 155.232 219.415 155.164 Q 219.089 155.097 218.766 154.953 Q 218.444 154.81 218.15 154.583 Q 217.855 154.357 217.628 154.034 Q 217.401 153.712 217.266 153.286 Q 217.131 152.86 217.131 152.327 L 217.131 142.991 L 219.2 142.991 L 219.2 152.327 Q 219.2 152.709 219.439 152.936 Q 219.678 153.163 220.036 153.163 L 223.769 153.163 Q 224.159 153.163 224.377 152.932 Q 224.596 152.701 224.596 152.327 L 224.596 149.525 Q 224.596 149.135 224.365 148.917 Q 224.135 148.698 223.769 148.698 L 220.036 148.698 L 220.036 146.628 L 223.769 146.628 Q 224.063 146.628 224.389 146.696 Q 224.716 146.764 225.038 146.907 Q 225.36 147.05 225.655 147.277 Q 225.949 147.504 226.172 147.826 Q 226.395 148.148 226.53 148.57 Q 226.666 148.992 226.666 149.525 Z" style="fill: rgb(255, 87, 35); white-space: pre;"/>
  <path d="M 242.941 150.457 Q 242.941 151.499 242.579 152.375 Q 242.217 153.25 241.58 153.883 Q 240.943 154.516 240.068 154.874 Q 239.192 155.232 238.165 155.232 L 232.578 155.232 Q 232.355 155.232 232.164 155.152 Q 231.973 155.073 231.834 154.934 Q 231.695 154.794 231.615 154.603 Q 231.536 154.412 231.536 154.189 L 231.536 144.861 Q 231.536 144.647 231.615 144.456 Q 231.695 144.265 231.834 144.121 Q 231.973 143.978 232.164 143.898 Q 232.355 143.819 232.578 143.819 L 238.165 143.819 Q 239.192 143.819 240.068 144.177 Q 240.943 144.535 241.58 145.168 Q 242.217 145.801 242.579 146.68 Q 242.941 147.56 242.941 148.594 Z M 240.872 148.594 Q 240.872 147.989 240.677 147.488 Q 240.482 146.986 240.123 146.632 Q 239.765 146.278 239.268 146.083 Q 238.77 145.888 238.165 145.888 L 233.605 145.888 L 233.605 153.163 L 238.165 153.163 Q 238.77 153.163 239.268 152.968 Q 239.765 152.773 240.123 152.418 Q 240.482 152.064 240.677 151.567 Q 240.872 151.069 240.872 150.457 Z" style="fill: rgb(255, 87, 35); white-space: pre;"/>
  <path d="M 252.797 149.478 Q 252.797 149.907 252.646 150.405 Q 252.495 150.902 252.157 151.328 Q 251.818 151.754 251.273 152.04 Q 250.728 152.327 249.948 152.327 L 246.215 152.327 L 246.215 150.361 L 249.948 150.361 Q 250.37 150.361 250.601 150.102 Q 250.831 149.844 250.831 149.462 Q 250.831 149.056 250.573 148.825 Q 250.314 148.594 249.948 148.594 L 246.215 148.594 Q 245.793 148.594 245.563 148.853 Q 245.332 149.112 245.332 149.494 L 245.332 152.383 Q 245.332 152.797 245.59 153.027 Q 245.849 153.258 246.231 153.258 L 249.948 153.258 L 249.948 155.232 L 246.215 155.232 Q 245.785 155.232 245.288 155.081 Q 244.79 154.93 244.365 154.591 Q 243.939 154.253 243.652 153.708 Q 243.366 153.163 243.366 152.383 L 243.366 149.478 Q 243.366 149.048 243.517 148.55 Q 243.668 148.053 244.007 147.627 Q 244.345 147.201 244.89 146.915 Q 245.435 146.628 246.215 146.628 L 249.948 146.628 Q 250.378 146.628 250.875 146.78 Q 251.373 146.931 251.798 147.269 Q 252.224 147.607 252.511 148.152 Q 252.797 148.698 252.797 149.478 Z" style="fill: rgb(255, 87, 35); white-space: pre;"/>
  <path d="M 263.247 146.628 Q 262.896 147.719 262.427 148.777 Q 261.957 149.836 261.348 150.795 Q 260.74 151.754 259.987 152.57 Q 259.235 153.386 258.324 153.978 Q 257.413 154.571 256.342 154.91 Q 255.272 155.248 254.022 155.248 Q 253.807 155.248 253.616 155.168 Q 253.425 155.089 253.282 154.949 Q 253.139 154.81 253.059 154.623 Q 252.98 154.436 252.98 154.221 L 252.98 146.628 L 255.049 146.628 L 255.049 153.099 Q 255.805 153.099 256.501 152.773 Q 257.198 152.446 257.819 151.909 Q 258.439 151.372 258.969 150.687 Q 259.498 150.003 259.912 149.283 Q 260.326 148.562 260.616 147.87 Q 260.907 147.178 261.05 146.628 Z" style="fill: rgb(255, 87, 35); white-space: pre;"/>
  <path d="M 272.034 149.478 Q 272.034 149.907 271.883 150.405 Q 271.731 150.902 271.393 151.328 Q 271.055 151.754 270.51 152.04 Q 269.964 152.327 269.184 152.327 L 265.452 152.327 L 265.452 150.361 L 269.184 150.361 Q 269.606 150.361 269.837 150.102 Q 270.068 149.844 270.068 149.462 Q 270.068 149.056 269.809 148.825 Q 269.551 148.594 269.184 148.594 L 265.452 148.594 Q 265.03 148.594 264.799 148.853 Q 264.568 149.112 264.568 149.494 L 264.568 152.383 Q 264.568 152.797 264.827 153.027 Q 265.086 153.258 265.468 153.258 L 269.184 153.258 L 269.184 155.232 L 265.452 155.232 Q 265.022 155.232 264.525 155.081 Q 264.027 154.93 263.601 154.591 Q 263.175 154.253 262.889 153.708 Q 262.602 153.163 262.602 152.383 L 262.602 149.478 Q 262.602 149.048 262.754 148.55 Q 262.905 148.053 263.243 147.627 Q 263.581 147.201 264.127 146.915 Q 264.672 146.628 265.452 146.628 L 269.184 146.628 Q 269.614 146.628 270.112 146.78 Q 270.609 146.931 271.035 147.269 Q 271.461 147.607 271.747 148.152 Q 272.034 148.698 272.034 149.478 Z" style="fill: rgb(255, 87, 35); white-space: pre;"/>
  <path d="M 276.012 155.232 L 275.089 155.232 Q 274.643 155.232 274.138 155.081 Q 273.632 154.93 273.195 154.583 Q 272.757 154.237 272.47 153.684 Q 272.184 153.131 272.184 152.327 L 272.184 142.991 L 274.253 142.991 L 274.253 152.327 Q 274.253 152.709 274.492 152.936 Q 274.731 153.163 275.089 153.163 L 276.012 153.163 Z" style="fill: rgb(255, 87, 35); white-space: pre;"/>
  <path d="M 285.498 152.327 Q 285.498 152.86 285.363 153.286 Q 285.228 153.712 285.005 154.034 Q 284.782 154.357 284.487 154.583 Q 284.193 154.81 283.871 154.953 Q 283.548 155.097 283.218 155.164 Q 282.888 155.232 282.593 155.232 L 278.86 155.232 Q 278.431 155.232 277.921 155.081 Q 277.412 154.93 276.978 154.583 Q 276.544 154.237 276.254 153.684 Q 275.963 153.131 275.963 152.327 L 275.963 149.525 Q 275.963 148.73 276.254 148.176 Q 276.544 147.623 276.978 147.277 Q 277.412 146.931 277.921 146.78 Q 278.431 146.628 278.86 146.628 L 282.593 146.628 Q 283.389 146.628 283.946 146.915 Q 284.503 147.201 284.846 147.635 Q 285.188 148.069 285.343 148.578 Q 285.498 149.088 285.498 149.525 Z M 283.429 149.541 Q 283.429 149.112 283.214 148.905 Q 282.999 148.698 282.593 148.698 L 278.876 148.698 Q 278.462 148.698 278.248 148.909 Q 278.033 149.119 278.033 149.525 L 278.033 152.327 Q 278.033 152.733 278.248 152.948 Q 278.462 153.163 278.876 153.163 L 282.593 153.163 Q 283.015 153.163 283.222 152.948 Q 283.429 152.733 283.429 152.327 Z" style="fill: rgb(255, 87, 35); white-space: pre;"/>
  <path d="M 295.533 152.327 Q 295.533 152.86 295.398 153.286 Q 295.262 153.712 295.039 154.034 Q 294.817 154.357 294.522 154.583 Q 294.228 154.81 293.905 154.953 Q 293.583 155.097 293.257 155.164 Q 292.93 155.232 292.636 155.232 L 288.903 155.232 L 288.903 153.163 L 292.636 153.163 Q 293.05 153.163 293.257 152.948 Q 293.464 152.733 293.464 152.327 L 293.464 149.541 Q 293.464 149.112 293.253 148.905 Q 293.042 148.698 292.636 148.698 L 288.919 148.698 Q 288.497 148.698 288.282 148.909 Q 288.067 149.119 288.067 149.525 L 288.067 157.922 L 285.998 157.922 L 285.998 149.525 Q 285.998 148.992 286.133 148.57 Q 286.269 148.148 286.495 147.826 Q 286.722 147.504 287.017 147.277 Q 287.311 147.05 287.634 146.907 Q 287.956 146.764 288.286 146.696 Q 288.617 146.628 288.903 146.628 L 292.636 146.628 Q 293.169 146.628 293.591 146.764 Q 294.013 146.899 294.335 147.122 Q 294.657 147.345 294.884 147.639 Q 295.111 147.934 295.254 148.256 Q 295.398 148.578 295.465 148.905 Q 295.533 149.231 295.533 149.525 Z" style="fill: rgb(255, 87, 35); white-space: pre;"/>
  <path d="M 305.35 149.478 Q 305.35 149.907 305.199 150.405 Q 305.048 150.902 304.709 151.328 Q 304.371 151.754 303.826 152.04 Q 303.281 152.327 302.501 152.327 L 298.768 152.327 L 298.768 150.361 L 302.501 150.361 Q 302.923 150.361 303.153 150.102 Q 303.384 149.844 303.384 149.462 Q 303.384 149.056 303.126 148.825 Q 302.867 148.594 302.501 148.594 L 298.768 148.594 Q 298.346 148.594 298.115 148.853 Q 297.885 149.112 297.885 149.494 L 297.885 152.383 Q 297.885 152.797 298.143 153.027 Q 298.402 153.258 298.784 153.258 L 302.501 153.258 L 302.501 155.232 L 298.768 155.232 Q 298.338 155.232 297.841 155.081 Q 297.343 154.93 296.918 154.591 Q 296.492 154.253 296.205 153.708 Q 295.919 153.163 295.919 152.383 L 295.919 149.478 Q 295.919 149.048 296.07 148.55 Q 296.221 148.053 296.559 147.627 Q 296.898 147.201 297.443 146.915 Q 297.988 146.628 298.768 146.628 L 302.501 146.628 Q 302.931 146.628 303.428 146.78 Q 303.925 146.931 304.351 147.269 Q 304.777 147.607 305.064 148.152 Q 305.35 148.698 305.35 149.478 Z" style="fill: rgb(255, 87, 35); white-space: pre;"/>
  <path d="M 313.062 148.698 L 308.406 148.698 Q 307.984 148.698 307.769 148.909 Q 307.554 149.119 307.554 149.525 L 307.554 155.232 L 305.485 155.232 L 305.485 149.525 Q 305.485 148.992 305.62 148.57 Q 305.755 148.148 305.982 147.826 Q 306.209 147.504 306.503 147.277 Q 306.798 147.05 307.12 146.907 Q 307.443 146.764 307.773 146.696 Q 308.103 146.628 308.39 146.628 L 313.062 146.628 Z" style="fill: rgb(255, 87, 35); white-space: pre;"/>
</svg>