<?xml version="1.0" encoding="utf-8"?>
<svg viewBox="100 100 288.152 82.217" width="288.152" height="82.217" xmlns="http://www.w3.org/2000/svg">
  <path d="M 582.936 227.378 L 582.936 235.836 Q 582.936 236.663 583.304 236.985 Q 583.672 237.306 584.407 237.306 Q 584.928 237.306 585.326 237.153 L 585.357 237.184 L 585.357 240.463 Q 584.959 240.585 584.469 240.677 Q 583.978 240.769 583.304 240.769 Q 580.914 240.769 579.995 239.605 Q 579.075 238.44 579.075 236.479 L 579.075 227.777 Q 579.075 227.072 578.662 226.796 Q 578.248 226.52 577.758 226.459 Q 577.268 226.398 576.992 226.398 L 576.992 223.058 Q 577.268 223.058 577.758 223.012 Q 578.248 222.966 578.662 222.736 Q 579.075 222.506 579.075 221.955 L 579.075 213.007 Q 579.075 211.015 579.995 209.866 Q 580.914 208.717 583.304 208.717 Q 583.978 208.717 584.469 208.794 Q 584.959 208.87 585.357 209.023 L 585.357 212.302 L 585.326 212.333 Q 584.928 212.18 584.407 212.18 Q 583.672 212.18 583.304 212.501 Q 582.936 212.823 582.936 213.65 L 582.936 222.353 Q 582.936 223.303 582.492 223.793 Q 582.048 224.283 581.481 224.467 Q 580.914 224.651 580.516 224.712 L 580.516 224.835 Q 580.914 224.866 581.481 225.003 Q 582.048 225.141 582.492 225.662 Q 582.936 226.183 582.936 227.378 Z" transform="matrix(1.659208, 0, 0, 1.925437, -854.044617, -287.231323)" style="fill: rgb(84, 109, 255); white-space: pre;"/>
  <path d="M 603.86 228.543 L 603.86 232.526 Q 603.094 232.833 601.592 232.986 Q 600.091 233.139 598.406 233.139 Q 595.985 233.139 594.376 232.465 Q 592.767 231.791 591.986 230.136 Q 591.205 228.481 591.174 225.54 Q 591.174 222.506 592.017 220.821 Q 592.859 219.135 594.483 218.461 Q 596.107 217.787 598.375 217.787 Q 599.723 217.787 601.225 217.971 Q 602.726 218.155 603.676 218.461 L 603.707 222.567 L 603.615 222.629 Q 602.696 222.445 601.654 222.353 Q 600.612 222.261 599.601 222.261 Q 597.548 222.261 596.751 223.027 Q 595.954 223.793 595.954 225.601 Q 595.954 226.98 596.291 227.654 Q 596.628 228.328 597.425 228.543 Q 598.222 228.757 599.601 228.757 Q 600.673 228.757 601.654 228.665 Q 602.634 228.573 603.737 228.451 Z" transform="matrix(1.659208, 0, 0, 1.925437, -854.044617, -287.231323)" style="fill: rgb(255, 87, 35); white-space: pre;"/>
  <path d="M 608.443 225.509 Q 608.443 221.403 610.189 219.595 Q 611.936 217.787 616.103 217.787 Q 618.892 217.787 620.577 218.584 Q 622.263 219.381 623.013 221.081 Q 623.764 222.782 623.764 225.509 Q 623.764 228.206 623.013 229.891 Q 622.263 231.576 620.577 232.358 Q 618.892 233.139 616.103 233.139 Q 611.936 233.139 610.189 231.346 Q 608.443 229.554 608.443 225.509 Z M 616.103 228.941 Q 617.881 228.941 618.509 228.16 Q 619.137 227.378 619.137 225.417 Q 619.137 223.548 618.509 222.736 Q 617.881 221.924 616.103 221.924 Q 614.387 221.924 613.729 222.736 Q 613.07 223.548 613.07 225.417 Q 613.07 227.378 613.729 228.16 Q 614.387 228.941 616.103 228.941 Z" transform="matrix(1.659208, 0, 0, 1.925437, -854.044617, -287.231323)" style="fill: rgb(255, 87, 35); white-space: pre;"/>
  <path d="M 638.578 232.863 L 638.394 230.688 L 638.271 230.688 Q 637.75 231.913 636.785 232.526 Q 635.82 233.139 633.981 233.139 Q 631.009 233.139 629.63 231.408 Q 628.251 229.676 628.19 226.183 Q 628.159 223.058 628.833 221.219 Q 629.507 219.381 630.948 218.584 Q 632.388 217.787 634.625 217.787 Q 635.789 217.787 636.739 217.986 Q 637.689 218.186 638.271 218.523 L 638.332 218.492 L 638.332 212.241 L 643.235 212.241 L 643.235 232.863 Z M 635.575 228.972 Q 636.8 228.972 637.566 228.206 Q 638.332 227.44 638.332 225.662 L 638.332 222.445 Q 637.199 221.985 635.667 221.985 Q 634.226 221.985 633.598 222.675 Q 632.97 223.364 632.97 225.448 Q 632.97 227.225 633.476 228.098 Q 633.981 228.972 635.575 228.972 Z" transform="matrix(1.659208, 0, 0, 1.925437, -854.044617, -287.231323)" style="fill: rgb(255, 87, 35); white-space: pre;"/>
  <path d="M 662.963 232.373 Q 662.105 232.679 660.589 232.909 Q 659.072 233.139 656.988 233.139 Q 654.353 233.139 652.499 232.45 Q 650.645 231.76 649.695 230.09 Q 648.745 228.42 648.745 225.448 Q 648.745 221.403 650.599 219.595 Q 652.453 217.787 656.345 217.787 Q 659.133 217.787 660.742 218.584 Q 662.351 219.381 663.04 220.836 Q 663.73 222.292 663.73 224.283 Q 663.73 224.866 663.684 225.54 Q 663.638 226.214 663.515 226.857 L 663.392 226.98 L 653.311 226.98 Q 653.526 228.328 654.583 228.757 Q 655.64 229.186 658.03 229.186 Q 659.623 229.186 660.681 229.11 Q 661.738 229.033 662.841 228.88 L 662.963 228.972 Z M 659.47 223.762 Q 659.47 223.027 659.24 222.491 Q 659.011 221.955 658.336 221.663 Q 657.662 221.372 656.345 221.372 Q 654.414 221.372 653.817 222.031 Q 653.219 222.69 653.219 223.762 Z" transform="matrix(1.659208, 0, 0, 1.925437, -854.044617, -287.231323)" style="fill: rgb(255, 87, 35); white-space: pre;"/>
  <path d="M 681.798 213.467 L 686.701 213.467 L 686.701 232.863 L 681.828 232.863 L 676.313 224.651 Q 675.669 223.67 675.24 222.996 Q 674.811 222.322 674.444 221.648 Q 674.076 220.974 673.616 220.055 L 673.524 220.177 Q 673.953 221.648 674.045 222.92 Q 674.137 224.191 674.137 225.386 L 674.137 232.863 L 669.234 232.863 L 669.234 213.467 L 674.106 213.467 L 679.622 221.679 Q 680.266 222.629 680.695 223.318 Q 681.124 224.008 681.491 224.682 Q 681.859 225.356 682.319 226.275 L 682.411 226.153 Q 682.104 224.866 681.951 223.655 Q 681.798 222.445 681.798 221.25 Z" transform="matrix(1.659208, 0, 0, 1.925437, -854.044617, -287.231323)" style="fill: rgb(84, 109, 255); white-space: pre;"/>
  <path d="M 706.414 232.373 Q 705.556 232.679 704.039 232.909 Q 702.522 233.139 700.438 233.139 Q 697.803 233.139 695.949 232.45 Q 694.095 231.76 693.146 230.09 Q 692.196 228.42 692.196 225.448 Q 692.196 221.403 694.049 219.595 Q 695.903 217.787 699.795 217.787 Q 702.583 217.787 704.192 218.584 Q 705.801 219.381 706.49 220.836 Q 707.18 222.292 707.18 224.283 Q 707.18 224.866 707.134 225.54 Q 707.088 226.214 706.965 226.857 L 706.843 226.98 L 696.761 226.98 Q 696.976 228.328 698.033 228.757 Q 699.09 229.186 701.48 229.186 Q 703.074 229.186 704.131 229.11 Q 705.188 229.033 706.291 228.88 L 706.414 228.972 Z M 702.92 223.762 Q 702.92 223.027 702.691 222.491 Q 702.461 221.955 701.787 221.663 Q 701.113 221.372 699.795 221.372 Q 697.864 221.372 697.267 222.031 Q 696.669 222.69 696.669 223.762 Z" transform="matrix(1.659208, 0, 0, 1.925437, -854.044617, -287.231323)" style="fill: rgb(84, 109, 255); white-space: pre;"/>
  <path d="M 717.312 212.394 Q 717.404 213.497 717.404 214.233 Q 717.404 214.662 717.388 215.106 Q 717.373 215.55 717.312 216.102 Q 716.668 216.224 716.055 216.286 Q 715.442 216.347 714.83 216.347 Q 714.247 216.347 713.65 216.286 Q 713.052 216.224 712.439 216.102 Q 712.378 215.581 712.348 215.137 Q 712.317 214.692 712.317 214.263 Q 712.317 213.865 712.348 213.405 Q 712.378 212.946 712.439 212.394 Q 713.052 212.241 713.68 212.195 Q 714.309 212.149 714.922 212.149 Q 715.504 212.149 716.101 212.195 Q 716.699 212.241 717.312 212.394 Z M 717.312 232.863 L 712.409 232.863 L 712.409 217.94 L 717.312 217.94 Z" transform="matrix(1.659208, 0, 0, 1.925437, -854.044617, -287.231323)" style="fill: rgb(84, 109, 255); white-space: pre;"/>
  <path d="M 728.517 232.863 L 723.615 232.863 L 723.615 212.241 L 728.517 212.241 Z" transform="matrix(1.659208, 0, 0, 1.925437, -854.044617, -287.231323)" style="fill: rgb(84, 109, 255); white-space: pre;"/>
  <path d="M 737.828 227.378 Q 737.828 226.183 738.272 225.662 Q 738.717 225.141 739.284 225.003 Q 739.851 224.866 740.249 224.835 L 740.249 224.712 Q 739.851 224.651 739.284 224.467 Q 738.717 224.283 738.272 223.793 Q 737.828 223.303 737.828 222.353 L 737.828 213.65 Q 737.828 212.823 737.46 212.501 Q 737.093 212.18 736.357 212.18 Q 735.836 212.18 735.438 212.333 L 735.407 212.302 L 735.407 209.023 Q 735.806 208.87 736.296 208.794 Q 736.786 208.717 737.46 208.717 Q 739.851 208.717 740.77 209.866 Q 741.689 211.015 741.689 213.007 L 741.689 221.955 Q 741.689 222.506 742.103 222.736 Q 742.516 222.966 743.022 223.012 Q 743.528 223.058 743.773 223.058 L 743.773 226.398 Q 743.528 226.398 743.022 226.459 Q 742.516 226.52 742.103 226.796 Q 741.689 227.072 741.689 227.777 L 741.689 236.479 Q 741.689 238.44 740.77 239.605 Q 739.851 240.769 737.46 240.769 Q 736.786 240.769 736.296 240.677 Q 735.806 240.585 735.407 240.463 L 735.407 237.184 L 735.438 237.153 Q 735.836 237.306 736.357 237.306 Q 737.093 237.306 737.46 236.985 Q 737.828 236.663 737.828 235.836 Z" transform="matrix(1.659208, 0, 0, 1.925437, -854.044617, -287.231323)" style="fill: rgb(255, 87, 35); white-space: pre;"/>
</svg>