<?xml version="1.0" encoding="utf-8"?>
<svg viewBox="100 100 210 28.074" width="210" height="28.074" xmlns="http://www.w3.org/2000/svg">
  <g data-paper-data="{&quot;isSecondaryText&quot;:true}" id="element-id-8547" transform="matrix(0.5, 0, 0, 0.5, 67.5, -43.53532)">
    <path d="M146.58169,342.83355l-1.72231,-7.22369l-1.75576,7.22369h-2.1738l-3.14364,-11.10308h2.47478l1.82264,7.19025l1.53838,-7.19025h2.44134l1.68887,7.19025l1.80592,-7.19025h2.37445l-3.1102,11.10308z" data-paper-data="{&quot;glyphName&quot;:&quot;W&quot;,&quot;glyphIndex&quot;:0,&quot;firstGlyphOfWord&quot;:true,&quot;word&quot;:1}" id="element-id-54924" style="paint-order: fill; fill: rgb(84, 109, 255);"/>
    <path d="M167.23818,342.83355v-11.10308h8.16009v1.93969h-5.90269v2.37445h5.43449v1.95642h-5.43449v2.85938h6.17024v1.97314z" data-paper-data="{&quot;glyphName&quot;:&quot;E&quot;,&quot;glyphIndex&quot;:1,&quot;word&quot;:1}" id="element-id-71103" style="paint-order: fill; fill: rgb(84, 109, 255);"/>
    <path d="M194.19524,340.94402c0.53509,0 0.95313,-0.15049 1.25411,-0.45148c0.30099,-0.30099 0.45148,-0.68001 0.45148,-1.13706c0,-0.4905 -0.14771,-0.84722 -0.44312,-1.07018c-0.29541,-0.22295 -0.70509,-0.33443 -1.22903,-0.33443h-2.97643v2.99315zM191.25226,333.65345v2.4079h2.92626c0.9364,0 1.40461,-0.40132 1.40461,-1.20395c0,-0.42361 -0.11984,-0.73017 -0.35951,-0.91968c-0.23967,-0.18951 -0.63263,-0.28427 -1.17887,-0.28427zM189.01157,342.83355v-11.10308h5.46793c1.09247,0 1.92297,0.27033 2.4915,0.81099c0.56853,0.54066 0.8528,1.2792 0.8528,2.2156c0,0.47935 -0.1282,0.90575 -0.38459,1.2792c-0.2564,0.37345 -0.57968,0.6382 -0.96985,0.79427c0.2341,0.08918 0.45427,0.20344 0.6605,0.34279c0.20623,0.13935 0.38459,0.31771 0.53509,0.53509c0.15049,0.21738 0.27033,0.47378 0.35951,0.76919c0.08918,0.29541 0.13377,0.64378 0.13377,1.04509c0,1.01444 -0.34,1.81986 -1.02001,2.41626c-0.68001,0.5964 -1.72231,0.8946 -3.12692,0.8946z" data-paper-data="{&quot;glyphName&quot;:&quot;B&quot;,&quot;glyphIndex&quot;:2,&quot;lastGlyphOfWord&quot;:true,&quot;word&quot;:1}" id="element-id-59007" style="paint-order: fill; fill: rgb(84, 109, 255);"/>
    <path d="M229.38212,340.94402c1.01444,0 1.75018,-0.31492 2.20724,-0.94477c0.45705,-0.62984 0.68558,-1.57461 0.68558,-2.8343c0,-0.62427 -0.05574,-1.15936 -0.16722,-1.60526c-0.11148,-0.44591 -0.29263,-0.81099 -0.54345,-1.09526c-0.25082,-0.28427 -0.57132,-0.4905 -0.96149,-0.6187c-0.39017,-0.1282 -0.86394,-0.1923 -1.42133,-0.1923h-1.72231v7.29058zM225.20174,342.83355v-11.10308h4.29743c0.74689,0 1.43805,0.12541 2.07347,0.37623c0.63542,0.25082 1.17887,0.61033 1.63035,1.07854c0.45148,0.4682 0.80542,1.03673 1.06182,1.70559c0.2564,0.66886 0.38459,1.4269 0.38459,2.27412c0,0.84722 -0.11426,1.6192 -0.34279,2.31593c-0.22853,0.69673 -0.5546,1.29313 -0.97821,1.7892c-0.42361,0.49607 -0.93083,0.88067 -1.52166,1.15378c-0.59083,0.27312 -1.24297,0.40968 -1.95642,0.40968z" data-paper-data="{&quot;glyphName&quot;:&quot;D&quot;,&quot;glyphIndex&quot;:3,&quot;firstGlyphOfWord&quot;:true,&quot;word&quot;:2}" id="element-id-45014" style="paint-order: fill; fill: rgb(84, 109, 255);"/>
    <path d="M248.51726,342.83355v-11.10308h8.16009v1.93969h-5.90269v2.37445h5.43449v1.95642h-5.43449v2.85938h6.17024v1.97314z" data-paper-data="{&quot;glyphName&quot;:&quot;E&quot;,&quot;glyphIndex&quot;:4,&quot;word&quot;:2}" id="element-id-31519" style="paint-order: fill; fill: rgb(84, 109, 255);"/>
    <path d="M273.681,342.83355l-3.76234,-11.10308h2.47478l2.42462,7.79222l2.4079,-7.79222h2.4079l-3.76234,11.10308z" data-paper-data="{&quot;glyphName&quot;:&quot;V&quot;,&quot;glyphIndex&quot;:5,&quot;word&quot;:2}" id="element-id-73001" style="paint-order: fill; fill: rgb(84, 109, 255);"/>
    <path d="M293.30947,342.83355v-11.10308h8.16009v1.93969h-5.90269v2.37445h5.43449v1.95642h-5.43449v2.85938h6.17024v1.97314z" data-paper-data="{&quot;glyphName&quot;:&quot;E&quot;,&quot;glyphIndex&quot;:6,&quot;word&quot;:2}" id="element-id-90371" style="paint-order: fill; fill: rgb(84, 109, 255);"/>
    <path d="M314.58822,342.83355v-11.10308h2.32429v9.07978h5.50138v2.0233z" data-paper-data="{&quot;glyphName&quot;:&quot;L&quot;,&quot;glyphIndex&quot;:7,&quot;word&quot;:2}" id="element-id-73676" style="paint-order: fill; fill: rgb(84, 109, 255);"/>
    <path d="M340.22663,341.22829c0.41246,0 0.80263,-0.07525 1.17051,-0.22574c0.36787,-0.15049 0.68837,-0.37902 0.96149,-0.68558c0.27312,-0.30656 0.48771,-0.69952 0.64378,-1.17887c0.15607,-0.47935 0.2341,-1.04788 0.2341,-1.70559c0,-1.31543 -0.2564,-2.31314 -0.76919,-2.99315c-0.51279,-0.68001 -1.25969,-1.02001 -2.24068,-1.02001c-0.98099,0 -1.73346,0.34 -2.2574,1.02001c-0.52394,0.68001 -0.78591,1.67772 -0.78591,2.99315c0,1.31543 0.26476,2.27691 0.79427,2.88446c0.52951,0.60755 1.2792,0.91132 2.24904,0.91132zM340.22663,343.21815c-1.71674,0 -3.03495,-0.50165 -3.95464,-1.50494c-0.91968,-1.00329 -1.37952,-2.44691 -1.37952,-4.33087c0,-0.9364 0.11705,-1.77805 0.35115,-2.52495c0.2341,-0.74689 0.57968,-1.37952 1.03673,-1.89789c0.45705,-0.51837 1.01444,-0.91411 1.67215,-1.18723c0.65771,-0.27312 1.41575,-0.40968 2.27412,-0.40968c0.84722,0 1.60248,0.13656 2.26576,0.40968c0.66329,0.27312 1.21788,0.67165 1.66379,1.19559c0.44591,0.52394 0.78591,1.16214 1.02001,1.91461c0.2341,0.75247 0.35115,1.60248 0.35115,2.55003c0,1.9174 -0.45427,3.36102 -1.3628,4.33087c-0.90854,0.96985 -2.22117,1.45477 -3.93791,1.45477z" data-paper-data="{&quot;glyphName&quot;:&quot;O&quot;,&quot;glyphIndex&quot;:8,&quot;word&quot;:2}" id="element-id-37016" style="paint-order: fill; fill: rgb(84, 109, 255);"/>
    <path d="M364.41307,336.91414c0.66886,0 1.151,-0.15328 1.44641,-0.45984c0.29541,-0.30656 0.44312,-0.70509 0.44312,-1.19559c0,-0.4682 -0.14771,-0.8528 -0.44312,-1.15378c-0.29541,-0.30099 -0.77755,-0.45148 -1.44641,-0.45148h-2.20724v3.26069zM359.88154,342.83355v-11.10308h4.8994c0.54624,0 1.03673,0.09197 1.47149,0.2759c0.43476,0.18394 0.80821,0.44033 1.12034,0.76919c0.31213,0.32886 0.55181,0.71066 0.71902,1.14542c0.16722,0.43476 0.25082,0.90296 0.25082,1.40461c0,0.50165 -0.08361,0.96706 -0.25082,1.39625c-0.16722,0.42919 -0.40689,0.79706 -0.71902,1.10362c-0.31213,0.30656 -0.68558,0.54624 -1.12034,0.71902c-0.43476,0.17279 -0.92526,0.25918 -1.47149,0.25918h-2.57511v4.02988z" data-paper-data="{&quot;glyphName&quot;:&quot;P&quot;,&quot;glyphIndex&quot;:9,&quot;word&quot;:2}" id="element-id-55498" style="paint-order: fill; fill: rgb(84, 109, 255);"/>
    <path d="M381.43166,342.83355v-11.10308h8.16009v1.93969h-5.90269v2.37445h5.43449v1.95642h-5.43449v2.85938h6.17024v1.97314z" data-paper-data="{&quot;glyphName&quot;:&quot;E&quot;,&quot;glyphIndex&quot;:10,&quot;word&quot;:2}" id="element-id-18496" style="paint-order: fill; fill: rgb(84, 109, 255);"/>
    <path d="M405.42489,333.65345v2.95971h2.90954c0.62427,0 1.0646,-0.13935 1.321,-0.41804c0.2564,-0.27869 0.38459,-0.62984 0.38459,-1.05345c0,-0.43476 -0.12541,-0.79148 -0.37623,-1.07018c-0.25082,-0.27869 -0.66607,-0.41804 -1.24575,-0.41804zM409.63871,342.83355v-2.85938c0,-0.53509 -0.12262,-0.9169 -0.36787,-1.14542c-0.24525,-0.22853 -0.7023,-0.34279 -1.37116,-0.34279h-2.47478v4.34759h-2.2574v-11.10308h5.63515c0.51279,0 0.97821,0.08082 1.39625,0.24246c0.41804,0.16164 0.77755,0.38459 1.07854,0.66886c0.30099,0.28427 0.5323,0.62427 0.69394,1.02001c0.16164,0.39574 0.24246,0.82214 0.24246,1.2792c0,0.60197 -0.14213,1.13428 -0.4264,1.5969c-0.28427,0.46263 -0.69394,0.7887 -1.22903,0.97821c0.4905,0.15607 0.83886,0.39574 1.04509,0.71902c0.20623,0.32328 0.30935,0.80821 0.30935,1.45477v3.14364z" data-paper-data="{&quot;glyphName&quot;:&quot;R&quot;,&quot;glyphIndex&quot;:11,&quot;lastGlyphOfWord&quot;:true,&quot;word&quot;:2}" id="element-id-78625" style="paint-order: fill; fill: rgb(84, 109, 255);"/>
  </g>
  <g data-paper-data="{&quot;isPrimaryText&quot;:true}" id="element-id-49392" transform="matrix(0.5, 0, 0, 0.5, 67.5, -43.53532)">
    <path d="M92.46406,287.0968c-0.65558,0 -1.2097,0.23414 -1.66236,0.70241c-0.46827,0.45266 -0.70241,1.00678 -0.70241,1.66236v21.07217l-5.31487,-5.90021c-0.43705,-0.48388 -0.97556,-0.74923 -1.61553,-0.79606c-0.65558,-0.03122 -1.22531,0.1717 -1.70919,0.60875c-0.48388,0.43705 -0.74143,0.97556 -0.77265,1.61553c-0.03122,0.65558 0.1717,1.22531 0.60875,1.70919l9.41223,10.46584c0.46827,0.5151 1.05361,0.77265 1.75601,0.77265c0.28096,0 0.56192,-0.05463 0.84289,-0.16389c0.99898,-0.37462 1.49847,-1.10824 1.49847,-2.20087v-27.1831c0,-0.65558 -0.22633,-1.2097 -0.67899,-1.66236c-0.46827,-0.46827 -1.02239,-0.70241 -1.66236,-0.70241zM69.09737,287.89286c-0.71801,-0.81167 -1.57651,-1.02239 -2.57549,-0.63217c-1.01459,0.39023 -1.52188,1.12385 -1.52188,2.20087v27.1831c0,0.65558 0.22633,1.2175 0.67899,1.68577c0.46827,0.45266 1.03019,0.67899 1.68577,0.67899c0.63997,0 1.19409,-0.22633 1.66236,-0.67899c0.45266,-0.46827 0.67899,-1.03019 0.67899,-1.68577v-21.04875l5.31487,5.90021c0.43705,0.48388 0.97556,0.74143 1.61553,0.77265c0.65558,0.03122 1.22531,-0.1717 1.70919,-0.60875c0.48388,-0.42144 0.74143,-0.95995 0.77265,-1.61553c0.03122,-0.65558 -0.1717,-1.22531 -0.60875,-1.70919z" data-paper-data="{&quot;glyphName&quot;:&quot;N&quot;,&quot;glyphIndex&quot;:0,&quot;firstGlyphOfWord&quot;:true,&quot;word&quot;:1}" fill="#ffffff" id="element-id-91133"/>
    <path d="M100.91634,314.30331c-0.65558,0 -1.2175,0.22633 -1.68577,0.67899c-0.45266,0.46827 -0.67899,1.02239 -0.67899,1.66236c0,0.65558 0.22633,1.2175 0.67899,1.68577c0.46827,0.45266 1.03019,0.67899 1.68577,0.67899h25.09929c0.63997,0 1.19409,-0.22633 1.66236,-0.67899c0.45266,-0.46827 0.67899,-1.03019 0.67899,-1.68577c0,-0.63997 -0.22633,-1.19409 -0.67899,-1.66236c-0.46827,-0.45266 -1.02239,-0.67899 -1.66236,-0.67899zM126.01563,291.80292c0.63997,0 1.19409,-0.22633 1.66236,-0.67899c0.45266,-0.45266 0.67899,-1.00678 0.67899,-1.66236c0,-0.65558 -0.22633,-1.2097 -0.67899,-1.66236c-0.46827,-0.46827 -1.02239,-0.70241 -1.66236,-0.70241h-25.09929c-0.65558,0 -1.2175,0.23414 -1.68577,0.70241c-0.45266,0.45266 -0.67899,1.00678 -0.67899,1.66236c0,0.65558 0.22633,1.2097 0.67899,1.66236c0.46827,0.45266 1.03019,0.67899 1.68577,0.67899zM100.91634,300.70006c-0.65558,0 -1.2175,0.23414 -1.68577,0.70241c-0.45266,0.45266 -0.67899,1.00678 -0.67899,1.66236c0,0.63997 0.22633,1.19409 0.67899,1.66236c0.46827,0.45266 1.03019,0.67899 1.68577,0.67899h25.09929c0.63997,0 1.19409,-0.22633 1.66236,-0.67899c0.45266,-0.46827 0.67899,-1.02239 0.67899,-1.66236c0,-0.65558 -0.22633,-1.2097 -0.67899,-1.66236c-0.46827,-0.46827 -1.02239,-0.70241 -1.66236,-0.70241z" data-paper-data="{&quot;glyphName&quot;:&quot;E&quot;,&quot;glyphIndex&quot;:1,&quot;word&quot;:1}" fill="#ffffff" id="element-id-65255"/>
    <path d="M134.46791,319.00943c-0.65558,0 -1.2175,-0.22633 -1.68577,-0.67899c-0.45266,-0.46827 -0.67899,-1.03019 -0.67899,-1.68577v-27.1831c0,-0.65558 0.22633,-1.2097 0.67899,-1.66236c0.46827,-0.46827 1.03019,-0.70241 1.68577,-0.70241c0.63997,0 1.19409,0.23414 1.66236,0.70241c0.45266,0.45266 0.67899,1.00678 0.67899,1.66236v27.1831c0,0.65558 -0.22633,1.2175 -0.67899,1.68577c-0.46827,0.45266 -1.02239,0.67899 -1.66236,0.67899z" data-paper-data="{&quot;glyphName&quot;:&quot;I&quot;,&quot;glyphIndex&quot;:2,&quot;word&quot;:1}" fill="#ffffff" id="element-id-59057"/>
    <path d="M142.92019,319.00943c-0.65558,0 -1.2175,-0.22633 -1.68577,-0.67899c-0.45266,-0.46827 -0.67899,-1.03019 -0.67899,-1.68577v-27.1831c0,-0.65558 0.22633,-1.2097 0.67899,-1.66236c0.46827,-0.46827 1.03019,-0.70241 1.68577,-0.70241c0.63997,0 1.19409,0.23414 1.66236,0.70241c0.45266,0.45266 0.67899,1.00678 0.67899,1.66236v24.84174h22.75794c0.63997,0 1.19409,0.22633 1.66236,0.67899c0.45266,0.46827 0.67899,1.02239 0.67899,1.66236c0,0.65558 -0.22633,1.2175 -0.67899,1.68577c-0.46827,0.45266 -1.02239,0.67899 -1.66236,0.67899z" data-paper-data="{&quot;glyphName&quot;:&quot;L&quot;,&quot;glyphIndex&quot;:3,&quot;lastGlyphOfWord&quot;:true,&quot;word&quot;:1}" fill="#ffffff" id="element-id-13466"/>
    <path d="M211.78365,303.04058c2.64058,-1.70468 3.96088,-4.128 3.96088,-7.26996c0,-2.3899 -0.85234,-4.43718 -2.55702,-6.14186c-1.68797,-1.68797 -3.7269,-2.53195 -6.1168,-2.53195h-19.60383c-0.38439,0 -0.71864,0.1337 -1.00275,0.4011c-0.2674,0.28411 -0.4011,0.61836 -0.4011,1.00275c0,0.38439 0.1337,0.71028 0.4011,0.97768c0.28411,0.2674 0.61836,0.4011 1.00275,0.4011h19.60383c1.62112,0 2.9999,0.57658 4.13636,1.72975c1.15317,1.15317 1.72975,2.54031 1.72975,4.16143c0,1.62112 -0.57658,3.00826 -1.72975,4.16143c-1.13645,1.15317 -2.51524,1.72975 -4.13636,1.72975h-19.60383c-0.38439,0 -0.71864,0.1337 -1.00275,0.4011c-0.2674,0.2674 -0.4011,0.5933 -0.4011,0.97768c0,0.4011 0.1337,0.73535 0.4011,1.00275c0.28411,0.2674 0.61836,0.4011 1.00275,0.4011h19.60383c1.62112,0 2.9999,0.57658 4.13636,1.72975c1.15317,1.15317 1.72975,2.54031 1.72975,4.16143c0,1.62112 -0.57658,3.00826 -1.72975,4.16143c-1.13645,1.13645 -2.51524,1.70468 -4.13636,1.70468h-19.60383c-0.38439,0 -0.71864,0.14206 -1.00275,0.42617c-0.2674,0.2674 -0.4011,0.5933 -0.4011,0.97768c0,0.38439 0.1337,0.71864 0.4011,1.00275c0.28411,0.2674 0.61836,0.4011 1.00275,0.4011h19.60383c2.3899,0 4.42883,-0.85234 6.1168,-2.55702c1.70468,-1.68797 2.55702,-3.7269 2.55702,-6.1168c0,-3.14196 -1.32029,-5.57364 -3.96088,-7.29503z" data-paper-data="{&quot;glyphName&quot;:&quot;B&quot;,&quot;glyphIndex&quot;:4,&quot;firstGlyphOfWord&quot;:true,&quot;fontStyleEffect&quot;:true,&quot;word&quot;:2}" fill="#ffffff" id="element-id-81838"/>
    <path d="M247.89224,319.00943c-0.38439,0 -0.71028,-0.1337 -0.97768,-0.4011c-0.28411,-0.28411 -0.42617,-0.61836 -0.42617,-1.00275v-20.15534c0,-2.08907 -0.73535,-3.86896 -2.20606,-5.33966c-1.48742,-1.48742 -3.2673,-2.23113 -5.33966,-2.23113h-8.97464c-2.07236,0 -3.85224,0.74371 -5.33966,2.23113c-1.4707,1.4707 -2.20606,3.25059 -2.20606,5.33966v20.15534c0,0.38439 -0.14206,0.71864 -0.42617,1.00275c-0.2674,0.2674 -0.5933,0.4011 -0.97768,0.4011c-0.38439,0 -0.71864,-0.1337 -1.00275,-0.4011c-0.2674,-0.28411 -0.4011,-0.61836 -0.4011,-1.00275v-20.15534c0,-2.85785 1.01111,-5.29788 3.03333,-7.3201c2.02222,-2.02222 4.46225,-3.03333 7.3201,-3.03333h8.97464c2.85785,0 5.29788,1.01111 7.3201,3.03333c2.02222,2.02222 3.03333,4.46225 3.03333,7.3201v20.15534c0,0.38439 -0.14206,0.71864 -0.42617,1.00275c-0.2674,0.2674 -0.5933,0.4011 -0.97768,0.4011z" data-paper-data="{&quot;glyphName&quot;:&quot;A&quot;,&quot;glyphIndex&quot;:5,&quot;fontStyleEffect&quot;:true,&quot;word&quot;:2}" fill="#ffffff" id="element-id-30109"/>
    <path d="M278.26008,303.41661c1.38714,-0.75207 2.49017,-1.7966 3.30909,-3.1336c0.85234,-1.38714 1.27851,-2.89127 1.27851,-4.51239c0,-2.3899 -0.85234,-4.43718 -2.55702,-6.14186c-1.68797,-1.68797 -3.7269,-2.53195 -6.1168,-2.53195h-19.60383c-0.38439,0 -0.71864,0.1337 -1.00275,0.4011c-0.2674,0.28411 -0.4011,0.61836 -0.4011,1.00275c0,0.38439 0.1337,0.71028 0.4011,0.97768c0.28411,0.2674 0.61836,0.4011 1.00275,0.4011h19.60383c1.62112,0 2.9999,0.57658 4.13636,1.72975c1.15317,1.15317 1.72975,2.54031 1.72975,4.16143c0,1.62112 -0.57658,3.00826 -1.72975,4.16143c-1.13645,1.15317 -2.51524,1.72975 -4.13636,1.72975h-19.60383c-0.38439,0 -0.71864,0.1337 -1.00275,0.4011c-0.2674,0.2674 -0.4011,0.5933 -0.4011,0.97768c0,0.4011 0.1337,0.73535 0.4011,1.00275c0.28411,0.2674 0.61836,0.4011 1.00275,0.4011h17.92422c2.07236,0 3.85224,0.74371 5.33966,2.23113c1.4707,1.4707 2.20606,3.25059 2.20606,5.33966v5.59035c0,0.38439 0.14206,0.71864 0.42617,1.00275c0.2674,0.2674 0.5933,0.4011 0.97768,0.4011c0.38439,0 0.71028,-0.1337 0.97768,-0.4011c0.28411,-0.28411 0.42617,-0.61836 0.42617,-1.00275v-5.59035c0,-3.67676 -1.5292,-6.54297 -4.5876,-8.59861z" data-paper-data="{&quot;glyphName&quot;:&quot;R&quot;,&quot;glyphIndex&quot;:6,&quot;fontStyleEffect&quot;:true,&quot;word&quot;:2}" fill="#ffffff" id="element-id-4188"/>
    <path d="M314.99539,319.00943c-0.38439,0 -0.71028,-0.1337 -0.97768,-0.4011c-0.28411,-0.28411 -0.42617,-0.61836 -0.42617,-1.00275v-20.15534c0,-2.08907 -0.73535,-3.86896 -2.20606,-5.33966c-1.48742,-1.48742 -3.2673,-2.23113 -5.33966,-2.23113h-8.97464c-2.07236,0 -3.85224,0.74371 -5.33966,2.23113c-1.4707,1.4707 -2.20606,3.25059 -2.20606,5.33966v20.15534c0,0.38439 -0.14206,0.71864 -0.42617,1.00275c-0.2674,0.2674 -0.5933,0.4011 -0.97768,0.4011c-0.38439,0 -0.71864,-0.1337 -1.00275,-0.4011c-0.2674,-0.28411 -0.4011,-0.61836 -0.4011,-1.00275v-20.15534c0,-2.85785 1.01111,-5.29788 3.03333,-7.3201c2.02222,-2.02222 4.46225,-3.03333 7.3201,-3.03333h8.97464c2.85785,0 5.29788,1.01111 7.3201,3.03333c2.02222,2.02222 3.03333,4.46225 3.03333,7.3201v20.15534c0,0.38439 -0.14206,0.71864 -0.42617,1.00275c-0.2674,0.2674 -0.5933,0.4011 -0.97768,0.4011z" data-paper-data="{&quot;glyphName&quot;:&quot;A&quot;,&quot;glyphIndex&quot;:7,&quot;fontStyleEffect&quot;:true,&quot;word&quot;:2}" fill="#ffffff" id="element-id-17065"/>
    <path d="M322.10587,319.00943c-0.61836,0 -1.05289,-0.27576 -1.30358,-0.82727c-0.23398,-0.56823 -0.14206,-1.07796 0.27576,-1.5292l24.6928,-26.77352h-23.66498c-0.4011,0 -0.73535,-0.1337 -1.00275,-0.4011c-0.2674,-0.2674 -0.4011,-0.5933 -0.4011,-0.97768c0,-0.38439 0.1337,-0.71864 0.4011,-1.00275c0.2674,-0.2674 0.60165,-0.4011 1.00275,-0.4011h26.87379c0.60165,0 1.02782,0.27576 1.27851,0.82727c0.25069,0.56823 0.16713,1.07796 -0.25069,1.5292l-24.71787,26.74845h23.69005c0.38439,0 0.71028,0.14206 0.97768,0.42617c0.28411,0.2674 0.42617,0.5933 0.42617,0.97768c0,0.38439 -0.14206,0.71864 -0.42617,1.00275c-0.2674,0.2674 -0.5933,0.4011 -0.97768,0.4011z" data-paper-data="{&quot;glyphName&quot;:&quot;Z&quot;,&quot;glyphIndex&quot;:8,&quot;fontStyleEffect&quot;:true,&quot;word&quot;:2}" fill="#ffffff" id="element-id-34777"/>
    <path d="M382.94142,319.00943c-0.38439,0 -0.71028,-0.1337 -0.97768,-0.4011c-0.28411,-0.28411 -0.42617,-0.61836 -0.42617,-1.00275v-20.15534c0,-2.08907 -0.73535,-3.86896 -2.20606,-5.33966c-1.48742,-1.48742 -3.2673,-2.23113 -5.33966,-2.23113h-8.97464c-2.07236,0 -3.85224,0.74371 -5.33966,2.23113c-1.4707,1.4707 -2.20606,3.25059 -2.20606,5.33966v20.15534c0,0.38439 -0.14206,0.71864 -0.42617,1.00275c-0.2674,0.2674 -0.5933,0.4011 -0.97768,0.4011c-0.38439,0 -0.71864,-0.1337 -1.00275,-0.4011c-0.2674,-0.28411 -0.4011,-0.61836 -0.4011,-1.00275v-20.15534c0,-2.85785 1.01111,-5.29788 3.03333,-7.3201c2.02222,-2.02222 4.46225,-3.03333 7.3201,-3.03333h8.97464c2.85785,0 5.29788,1.01111 7.3201,3.03333c2.02222,2.02222 3.03333,4.46225 3.03333,7.3201v20.15534c0,0.38439 -0.14206,0.71864 -0.42617,1.00275c-0.2674,0.2674 -0.5933,0.4011 -0.97768,0.4011z" data-paper-data="{&quot;glyphName&quot;:&quot;A&quot;,&quot;glyphIndex&quot;:9,&quot;fontStyleEffect&quot;:true,&quot;word&quot;:2}" fill="#ffffff" id="element-id-50056"/>
    <path d="M413.30926,303.41661c1.38714,-0.75207 2.49017,-1.7966 3.30909,-3.1336c0.85234,-1.38714 1.27851,-2.89127 1.27851,-4.51239c0,-2.3899 -0.85234,-4.43718 -2.55702,-6.14186c-1.68797,-1.68797 -3.7269,-2.53195 -6.1168,-2.53195h-19.60383c-0.38439,0 -0.71864,0.1337 -1.00275,0.4011c-0.2674,0.28411 -0.4011,0.61836 -0.4011,1.00275c0,0.38439 0.1337,0.71028 0.4011,0.97768c0.28411,0.2674 0.61836,0.4011 1.00275,0.4011h19.60383c1.62112,0 2.9999,0.57658 4.13636,1.72975c1.15317,1.15317 1.72975,2.54031 1.72975,4.16143c0,1.62112 -0.57658,3.00826 -1.72975,4.16143c-1.13645,1.15317 -2.51524,1.72975 -4.13636,1.72975h-19.60383c-0.38439,0 -0.71864,0.1337 -1.00275,0.4011c-0.2674,0.2674 -0.4011,0.5933 -0.4011,0.97768c0,0.4011 0.1337,0.73535 0.4011,1.00275c0.28411,0.2674 0.61836,0.4011 1.00275,0.4011h17.92422c2.07236,0 3.85224,0.74371 5.33966,2.23113c1.4707,1.4707 2.20606,3.25059 2.20606,5.33966v5.59035c0,0.38439 0.14206,0.71864 0.42617,1.00275c0.2674,0.2674 0.5933,0.4011 0.97768,0.4011c0.38439,0 0.71028,-0.1337 0.97768,-0.4011c0.28411,-0.28411 0.42617,-0.61836 0.42617,-1.00275v-5.59035c0,-3.67676 -1.5292,-6.54297 -4.5876,-8.59861z" data-paper-data="{&quot;glyphName&quot;:&quot;R&quot;,&quot;glyphIndex&quot;:10,&quot;fontStyleEffect&quot;:true,&quot;word&quot;:2}" fill="#ffffff" id="element-id-43746"/>
    <path d="M423.17078,287.0968c-0.38439,0 -0.71864,0.1337 -1.00275,0.4011c-0.2674,0.28411 -0.4011,0.61836 -0.4011,1.00275c0,0.38439 0.1337,0.71028 0.4011,0.97768c0.28411,0.2674 0.61836,0.4011 1.00275,0.4011h12.58456v27.72613c0,0.38439 0.14206,0.71864 0.42617,1.00275c0.2674,0.2674 0.5933,0.4011 0.97768,0.4011c0.38439,0 0.71864,-0.1337 1.00275,-0.4011c0.2674,-0.28411 0.4011,-0.61836 0.4011,-1.00275v-27.72613h11.48153c0.38439,0 0.71028,-0.1337 0.97768,-0.4011c0.28411,-0.2674 0.42617,-0.5933 0.42617,-0.97768c0,-0.38439 -0.14206,-0.71864 -0.42617,-1.00275c-0.2674,-0.2674 -0.5933,-0.4011 -0.97768,-0.4011z" data-paper-data="{&quot;glyphName&quot;:&quot;T&quot;,&quot;glyphIndex&quot;:11,&quot;fontStyleEffect&quot;:true,&quot;word&quot;:2}" fill="#ffffff" id="element-id-33375"/>
    <path d="M456.72235,316.20172c-0.38439,0 -0.71864,0.14206 -1.00275,0.42617c-0.2674,0.2674 -0.4011,0.5933 -0.4011,0.97768c0,0.38439 0.1337,0.71864 0.4011,1.00275c0.28411,0.2674 0.61836,0.4011 1.00275,0.4011h26.87379c0.38439,0 0.71028,-0.1337 0.97768,-0.4011c0.28411,-0.28411 0.42617,-0.61836 0.42617,-1.00275c0,-0.38439 -0.14206,-0.71028 -0.42617,-0.97768c-0.2674,-0.28411 -0.5933,-0.42617 -0.97768,-0.42617zM483.59615,289.87944c0.38439,0 0.71028,-0.1337 0.97768,-0.4011c0.28411,-0.2674 0.42617,-0.5933 0.42617,-0.97768c0,-0.38439 -0.14206,-0.71864 -0.42617,-1.00275c-0.2674,-0.2674 -0.5933,-0.4011 -0.97768,-0.4011h-26.87379c-0.38439,0 -0.71864,0.1337 -1.00275,0.4011c-0.2674,0.28411 -0.4011,0.61836 -0.4011,1.00275c0,0.38439 0.1337,0.71028 0.4011,0.97768c0.28411,0.2674 0.61836,0.4011 1.00275,0.4011zM456.72235,301.66179c-0.38439,0 -0.71864,0.1337 -1.00275,0.4011c-0.2674,0.2674 -0.4011,0.5933 -0.4011,0.97768c0,0.4011 0.1337,0.73535 0.4011,1.00275c0.28411,0.2674 0.61836,0.4011 1.00275,0.4011h26.87379c0.38439,0 0.71028,-0.1337 0.97768,-0.4011c0.28411,-0.2674 0.42617,-0.60165 0.42617,-1.00275c0,-0.38439 -0.14206,-0.71028 -0.42617,-0.97768c-0.2674,-0.2674 -0.5933,-0.4011 -0.97768,-0.4011z" data-paper-data="{&quot;glyphName&quot;:&quot;E&quot;,&quot;glyphIndex&quot;:12,&quot;lastGlyphOfWord&quot;:true,&quot;fontStyleEffect&quot;:true,&quot;word&quot;:2}" fill="#ffffff" id="element-id-30107"/>
  </g>
</svg>