<?xml version="1.0" encoding="utf-8"?>
<svg viewBox="100 99.814 211.409 59.209" width="211.409" height="59.209" xmlns="http://www.w3.org/2000/svg">
  <path d="M 582.936 227.378 L 582.936 235.836 Q 582.936 236.663 583.304 236.985 Q 583.672 237.306 584.407 237.306 Q 584.928 237.306 585.326 237.153 L 585.357 237.184 L 585.357 240.463 Q 584.959 240.585 584.469 240.677 Q 583.978 240.769 583.304 240.769 Q 580.914 240.769 579.995 239.605 Q 579.075 238.44 579.075 236.479 L 579.075 227.777 Q 579.075 227.072 578.662 226.796 Q 578.248 226.52 577.758 226.459 Q 577.268 226.398 576.992 226.398 L 576.992 223.058 Q 577.268 223.058 577.758 223.012 Q 578.248 222.966 578.662 222.736 Q 579.075 222.506 579.075 221.955 L 579.075 213.007 Q 579.075 211.015 579.995 209.866 Q 580.914 208.717 583.304 208.717 Q 583.978 208.717 584.469 208.794 Q 584.959 208.87 585.357 209.023 L 585.357 212.302 L 585.326 212.333 Q 584.928 212.18 584.407 212.18 Q 583.672 212.18 583.304 212.501 Q 582.936 212.823 582.936 213.65 L 582.936 222.353 Q 582.936 223.303 582.492 223.793 Q 582.048 224.283 581.481 224.467 Q 580.914 224.651 580.516 224.712 L 580.516 224.835 Q 580.914 224.866 581.481 225.003 Q 582.048 225.141 582.492 225.662 Q 582.936 226.183 582.936 227.378 Z" transform="matrix(1.217308, 0, 0, 1.380813, -599.952087, -177.700104)" style="fill: rgb(84, 109, 255); white-space: pre;"/>
  <path d="M 603.855 228.543 L 603.855 232.526 Q 603.089 232.833 601.587 232.986 Q 600.086 233.139 598.4 233.139 Q 595.98 233.139 594.371 232.465 Q 592.762 231.791 591.981 230.136 Q 591.2 228.481 591.169 225.54 Q 591.169 222.506 592.012 220.821 Q 592.854 219.135 594.478 218.461 Q 596.102 217.787 598.37 217.787 Q 599.718 217.787 601.22 217.971 Q 602.721 218.155 603.671 218.461 L 603.702 222.567 L 603.61 222.629 Q 602.69 222.445 601.649 222.353 Q 600.607 222.261 599.596 222.261 Q 597.543 222.261 596.746 223.027 Q 595.949 223.793 595.949 225.601 Q 595.949 226.98 596.286 227.654 Q 596.623 228.328 597.42 228.543 Q 598.217 228.757 599.596 228.757 Q 600.668 228.757 601.649 228.665 Q 602.629 228.573 603.732 228.451 Z" transform="matrix(1.217308, 0, 0, 1.380813, -599.952087, -177.700104)" style="fill: rgb(255, 87, 35); white-space: pre;"/>
  <path d="M 608.433 225.509 Q 608.433 221.403 610.179 219.595 Q 611.926 217.787 616.093 217.787 Q 618.882 217.787 620.567 218.584 Q 622.252 219.381 623.003 221.081 Q 623.754 222.782 623.754 225.509 Q 623.754 228.206 623.003 229.891 Q 622.252 231.576 620.567 232.358 Q 618.882 233.139 616.093 233.139 Q 611.926 233.139 610.179 231.346 Q 608.433 229.554 608.433 225.509 Z M 616.093 228.941 Q 617.87 228.941 618.499 228.16 Q 619.127 227.378 619.127 225.417 Q 619.127 223.548 618.499 222.736 Q 617.87 221.924 616.093 221.924 Q 614.377 221.924 613.718 222.736 Q 613.06 223.548 613.06 225.417 Q 613.06 227.378 613.718 228.16 Q 614.377 228.941 616.093 228.941 Z" transform="matrix(1.217308, 0, 0, 1.380813, -599.952087, -177.700104)" style="fill: rgb(255, 87, 35); white-space: pre;"/>
  <path d="M 638.569 232.863 L 638.385 230.688 L 638.263 230.688 Q 637.742 231.913 636.777 232.526 Q 635.811 233.139 633.973 233.139 Q 631.001 233.139 629.622 231.408 Q 628.243 229.676 628.181 226.183 Q 628.151 223.058 628.825 221.219 Q 629.499 219.381 630.939 218.584 Q 632.379 217.787 634.616 217.787 Q 635.781 217.787 636.731 217.986 Q 637.681 218.186 638.263 218.523 L 638.324 218.492 L 638.324 212.241 L 643.227 212.241 L 643.227 232.863 Z M 635.566 228.972 Q 636.792 228.972 637.558 228.206 Q 638.324 227.44 638.324 225.662 L 638.324 222.445 Q 637.19 221.985 635.658 221.985 Q 634.218 221.985 633.59 222.675 Q 632.962 223.364 632.962 225.448 Q 632.962 227.225 633.467 228.098 Q 633.973 228.972 635.566 228.972 Z" transform="matrix(1.217308, 0, 0, 1.380813, -599.952087, -177.700104)" style="fill: rgb(255, 87, 35); white-space: pre;"/>
  <path d="M 662.953 232.373 Q 662.095 232.679 660.578 232.909 Q 659.061 233.139 656.977 233.139 Q 654.342 233.139 652.488 232.45 Q 650.634 231.76 649.685 230.09 Q 648.735 228.42 648.735 225.448 Q 648.735 221.403 650.588 219.595 Q 652.442 217.787 656.334 217.787 Q 659.122 217.787 660.731 218.584 Q 662.34 219.381 663.029 220.836 Q 663.719 222.292 663.719 224.283 Q 663.719 224.866 663.673 225.54 Q 663.627 226.214 663.504 226.857 L 663.382 226.98 L 653.3 226.98 Q 653.515 228.328 654.572 228.757 Q 655.629 229.186 658.019 229.186 Q 659.613 229.186 660.67 229.11 Q 661.727 229.033 662.83 228.88 L 662.953 228.972 Z M 659.459 223.762 Q 659.459 223.027 659.23 222.491 Q 659 221.955 658.326 221.663 Q 657.652 221.372 656.334 221.372 Q 654.403 221.372 653.806 222.031 Q 653.208 222.69 653.208 223.762 Z" transform="matrix(1.217308, 0, 0, 1.380813, -599.952087, -177.700104)" style="fill: rgb(255, 87, 35); white-space: pre;"/>
  <path d="M 681.795 213.467 L 686.698 213.467 L 686.698 232.863 L 681.826 232.863 L 676.31 224.651 Q 675.667 223.671 675.238 222.996 Q 674.809 222.322 674.441 221.648 Q 674.073 220.974 673.614 220.055 L 673.522 220.177 Q 673.951 221.648 674.043 222.92 Q 674.135 224.191 674.135 225.386 L 674.135 232.863 L 669.232 232.863 L 669.232 213.467 L 674.104 213.467 L 679.62 221.679 Q 680.263 222.629 680.692 223.318 Q 681.121 224.008 681.489 224.682 Q 681.856 225.356 682.316 226.275 L 682.408 226.153 Q 682.102 224.866 681.948 223.655 Q 681.795 222.445 681.795 221.25 Z" transform="matrix(1.217308, 0, 0, 1.380813, -599.952087, -177.700104)" style="fill: rgb(84, 109, 255); white-space: pre;"/>
  <path d="M 706.412 232.373 Q 705.554 232.679 704.037 232.909 Q 702.521 233.139 700.437 233.139 Q 697.802 233.139 695.948 232.45 Q 694.094 231.76 693.144 230.09 Q 692.194 228.42 692.194 225.448 Q 692.194 221.403 694.048 219.595 Q 695.902 217.787 699.793 217.787 Q 702.582 217.787 704.191 218.584 Q 705.799 219.381 706.489 220.836 Q 707.178 222.292 707.178 224.283 Q 707.178 224.866 707.132 225.54 Q 707.086 226.214 706.964 226.857 L 706.841 226.98 L 696.76 226.98 Q 696.974 228.328 698.031 228.757 Q 699.089 229.186 701.479 229.186 Q 703.072 229.186 704.129 229.11 Q 705.186 229.033 706.29 228.88 L 706.412 228.972 Z M 702.919 223.762 Q 702.919 223.027 702.689 222.491 Q 702.459 221.955 701.785 221.663 Q 701.111 221.372 699.793 221.372 Q 697.863 221.372 697.265 222.031 Q 696.668 222.69 696.668 223.762 Z" transform="matrix(1.217308, 0, 0, 1.380813, -599.952087, -177.700104)" style="fill: rgb(84, 109, 255); white-space: pre;"/>
  <path d="M 717.306 212.394 Q 717.398 213.497 717.398 214.233 Q 717.398 214.662 717.383 215.106 Q 717.368 215.55 717.306 216.102 Q 716.663 216.224 716.05 216.286 Q 715.437 216.347 714.824 216.347 Q 714.242 216.347 713.644 216.286 Q 713.047 216.224 712.434 216.102 Q 712.373 215.581 712.342 215.137 Q 712.312 214.692 712.312 214.263 Q 712.312 213.865 712.342 213.405 Q 712.373 212.946 712.434 212.394 Q 713.047 212.241 713.675 212.195 Q 714.303 212.149 714.916 212.149 Q 715.498 212.149 716.096 212.195 Q 716.693 212.241 717.306 212.394 Z M 717.306 232.863 L 712.403 232.863 L 712.403 217.94 L 717.306 217.94 Z" transform="matrix(1.217308, 0, 0, 1.380813, -599.952087, -177.700104)" style="fill: rgb(84, 109, 255); white-space: pre;"/>
  <path d="M 728.519 232.863 L 723.616 232.863 L 723.616 212.241 L 728.519 212.241 Z" transform="matrix(1.217308, 0, 0, 1.380813, -599.952087, -177.700104)" style="fill: rgb(84, 109, 255); white-space: pre;"/>
  <path d="M 737.832 227.378 Q 737.832 226.183 738.277 225.662 Q 738.721 225.141 739.288 225.003 Q 739.855 224.866 740.253 224.835 L 740.253 224.712 Q 739.855 224.651 739.288 224.467 Q 738.721 224.283 738.277 223.793 Q 737.832 223.303 737.832 222.353 L 737.832 213.65 Q 737.832 212.823 737.465 212.501 Q 737.097 212.18 736.362 212.18 Q 735.841 212.18 735.442 212.333 L 735.412 212.302 L 735.412 209.023 Q 735.81 208.87 736.3 208.794 Q 736.791 208.717 737.465 208.717 Q 739.855 208.717 740.774 209.866 Q 741.693 211.015 741.693 213.007 L 741.693 221.955 Q 741.693 222.506 742.107 222.736 Q 742.521 222.966 743.026 223.012 Q 743.532 223.058 743.777 223.058 L 743.777 226.398 Q 743.532 226.398 743.026 226.459 Q 742.521 226.52 742.107 226.796 Q 741.693 227.072 741.693 227.777 L 741.693 236.479 Q 741.693 238.44 740.774 239.605 Q 739.855 240.769 737.465 240.769 Q 736.791 240.769 736.3 240.677 Q 735.81 240.585 735.412 240.463 L 735.412 237.184 L 735.442 237.153 Q 735.841 237.306 736.362 237.306 Q 737.097 237.306 737.465 236.985 Q 737.832 236.663 737.832 235.836 Z" transform="matrix(1.217308, 0, 0, 1.380813, -599.952087, -177.700104)" style="fill: rgb(255, 87, 35); white-space: pre;"/>
</svg>