<svg xmlns="http://www.w3.org/2000/svg" width="500" height="500" viewBox="0 0 500 500" version="1.1"><path d="M 161 192.443 L 161 210 164.964 210 L 168.928 210 169.214 200.251 L 169.500 190.502 176 200.217 L 182.500 209.931 186.750 209.965 L 191 210 191 192.500 L 191 175 187.035 175 L 183.070 175 182.785 185.198 L 182.500 195.395 176 185.448 C 169.593 175.643, 169.439 175.496, 165.250 175.193 L 161 174.885 161 192.443 M 202 192.500 L 202 210 214 210 L 226 210 226 206 L 226 202 218 202 L 210 202 210 199 L 210 196 216.500 196 L 223 196 223 192.500 L 223 189 216.500 189 L 210 189 210 186 L 210 183 217.500 183 L 225 183 225 179 L 225 175 213.500 175 L 202 175 202 192.500 M 235 192.443 L 235 210 239.524 210 L 244.047 210 243.774 192.750 L 243.500 175.500 239.250 175.193 L 235 174.885 235 192.443 M 254 192.500 L 254 210 265 210 L 276 210 276 206 L 276 202 269.500 202 L 263 202 263 188.500 L 263 175 258.500 175 L 254 175 254 192.500 M 161 240.475 L 161 258.177 172.089 257.838 C 182.812 257.511, 183.257 257.408, 185.589 254.694 C 189.087 250.623, 188.977 243.914, 185.365 241.073 C 183.916 239.933, 183.197 239, 183.767 239 C 185.354 239, 187.002 233.259, 186.350 230.002 C 185.283 224.663, 182.930 223.585, 171.420 223.159 L 161 222.773 161 240.475 M 205.598 227.199 C 204.715 229.565, 201.788 237.463, 199.094 244.750 L 194.195 258 199.018 258 C 203.564 258, 203.879 257.828, 204.500 255 C 205.148 252.051, 205.267 252, 211.500 252 C 217.733 252, 217.852 252.051, 218.500 255 C 219.120 257.823, 219.441 258, 223.940 258 L 228.722 258 222.500 240.750 L 216.278 223.500 211.741 223.199 C 207.226 222.900, 207.196 222.920, 205.598 227.199 M 237 240.500 L 237 258 241 258 L 245 258 245 252.500 C 245 248.533, 245.379 247, 246.358 247 C 247.106 247, 249.360 249.475, 251.369 252.500 C 254.989 257.952, 255.064 258, 260.045 258 C 265.714 258, 265.716 257.905, 260.200 250.568 L 257.244 246.636 260.622 243.450 C 263.584 240.657, 264 239.648, 264 235.267 C 264 226.059, 259.223 223.016, 244.750 223.006 L 237 223 237 240.500 M 283.118 225.250 C 282.660 226.488, 281.273 230.200, 280.036 233.500 C 278.799 236.800, 276.268 243.662, 274.411 248.750 L 271.036 258 275.570 258 C 279.709 258, 280.195 257.738, 281.150 255 C 282.154 252.120, 282.433 252, 288.150 252 C 293.867 252, 294.146 252.120, 295.150 255 C 296.098 257.721, 296.606 258, 300.598 258 C 303.019 258, 305 257.706, 305 257.347 C 305 256.841, 295.700 230.614, 293.264 224.250 C 292.982 223.511, 290.981 223, 288.368 223 C 284.700 223, 283.809 223.382, 283.118 225.250 M 313 226.954 L 313 230.909 319.601 231.204 L 326.202 231.500 318.605 241 C 312.187 249.025, 311.007 251.082, 311.004 254.250 L 311 258 324 258 L 337 258 337 254.042 L 337 250.084 329.425 249.792 L 321.850 249.500 328.909 240.500 C 335.119 232.584, 335.971 230.988, 335.984 227.250 L 336 223 324.500 223 L 313 223 313 226.954 M 350.199 239.703 C 346.787 248.942, 343.997 256.837, 343.998 257.250 C 343.999 257.663, 345.981 258, 348.402 258 C 352.394 258, 352.902 257.721, 353.850 255 C 354.854 252.120, 355.133 252, 360.850 252 C 366.567 252, 366.846 252.120, 367.850 255 C 368.804 257.737, 369.293 258, 373.418 258 L 377.940 258 373.881 246.750 C 371.648 240.563, 368.848 232.800, 367.658 229.500 L 365.495 223.500 360.949 223.203 L 356.403 222.907 350.199 239.703 M 386 240.500 L 386 258 390.500 258 L 395 258 395 252.500 C 395 249.475, 395.445 247, 395.990 247 C 396.534 247, 398.623 249.475, 400.631 252.500 C 404.224 257.911, 404.362 258, 409.142 258 C 411.814 258, 414 257.723, 414 257.384 C 414 257.045, 412.425 254.622, 410.500 252 C 408.575 249.378, 407 246.989, 407 246.693 C 407 246.396, 408.350 244.804, 410 243.154 C 412.591 240.563, 413 239.419, 413 234.765 C 413 225.782, 408.473 223.016, 393.750 223.006 L 386 223 386 240.500 M 421 226.945 L 421 230.890 425.750 231.195 L 430.500 231.500 430.779 244.750 L 431.058 258 435.029 258 L 439 258 439 244.500 L 439 231 444 231 L 449 231 449 227 L 449 223 435 223 L 421 223 421 226.945 M 457 240.468 L 457 258 469 258 L 481 258 481 254 L 481 250 473.500 250 L 466 250 466 247 L 466 244 472.500 244 L 479 244 479 240.500 L 479 237 472.500 237 L 466 237 466 234 L 466 231 473.560 231 L 481.121 231 480.810 227.250 L 480.500 223.500 468.750 223.218 L 457 222.937 457 240.468 M 170 233.500 C 170 236.917, 170.095 237, 174 237 C 177.745 237, 178 236.816, 178 234.107 C 178 231.054, 176.568 230, 172.418 230 C 170.321 230, 170 230.465, 170 233.500 M 245 235.500 C 245 239.855, 245.099 240, 248.066 240 C 252.337 240, 255 238.335, 255 235.665 C 255 232.403, 253.136 231, 248.800 231 L 245 231 245 235.500 M 395 235.500 C 395 239.833, 395.111 240, 398 240 C 401.672 240, 405.223 236.772, 404.300 234.273 C 403.381 231.781, 401.991 231.033, 398.250 231.015 C 395.063 231, 395 231.087, 395 235.500 M 209.654 238.154 C 208.744 241.264, 208 244.076, 208 244.404 C 208 244.732, 209.575 245, 211.500 245 C 215.501 245, 215.586 244.595, 213.076 237.500 L 211.307 232.500 209.654 238.154 M 286.209 238.848 L 284.131 245 288.066 245 C 290.230 245, 291.993 244.887, 291.985 244.750 C 291.977 244.613, 291.142 241.844, 290.128 238.598 L 288.286 232.696 286.209 238.848 M 359.146 237.080 C 358.445 239.511, 357.646 242.287, 357.369 243.250 C 356.954 244.692, 357.516 245, 360.558 245 C 364.097 245, 364.226 244.880, 363.671 242.106 C 363.353 240.515, 362.491 237.738, 361.756 235.936 L 360.419 232.660 359.146 237.080 M 170 247.500 C 170 250.795, 170.194 251, 173.309 251 C 177.810 251, 180.442 248.967, 179.555 246.174 C 178.984 244.373, 178.105 244, 174.433 244 C 170.033 244, 170 244.026, 170 247.500 M 160.016 277.677 C 160.024 278.130, 161.082 282.325, 162.368 287 C 164.248 293.842, 165.073 295.500, 166.593 295.500 C 168.027 295.500, 168.820 294.235, 169.886 290.250 C 170.658 287.363, 171.602 285, 171.985 285 C 172.368 285, 173.274 287.475, 174 290.500 C 175.638 297.329, 178.349 298.129, 179.933 292.250 C 180.489 290.188, 181.627 286.250, 182.461 283.500 C 184.388 277.151, 184.379 277, 182.100 277 C 180.630 277, 179.920 278.191, 178.968 282.250 C 177.171 289.909, 176.806 290.019, 174.986 283.450 C 172.832 275.673, 171.005 275.688, 168.872 283.500 C 167.154 289.791, 166.920 289.706, 164.707 282.006 C 163.914 279.246, 162.756 277.384, 161.708 277.182 C 160.768 277.001, 160.007 277.224, 160.016 277.677 M 194 286.500 L 194 296 200.500 296 C 205.611 296, 207 295.679, 207 294.500 C 207 293.389, 205.833 293, 202.500 293 C 198.367 293, 198 292.796, 198 290.500 C 198 288.310, 198.433 288, 201.500 288 C 203.944 288, 205 287.548, 205 286.500 C 205 285.452, 203.944 285, 201.500 285 C 198.433 285, 198 284.690, 198 282.500 C 198 280.204, 198.367 280, 202.500 280 C 205.833 280, 207 279.611, 207 278.500 C 207 277.321, 205.611 277, 200.500 277 L 194 277 194 286.500 M 217 286.500 L 217 296 222.277 296 C 225.436 296, 228.448 295.375, 229.777 294.443 C 232.140 292.789, 232.721 289.121, 230.907 287.307 C 230.119 286.519, 230.118 285.649, 230.904 284.180 C 233.259 279.779, 229.838 277, 222.066 277 L 217 277 217 286.500 M 259 286.500 L 259 296 262.851 296 C 269.216 296, 273.041 294.147, 274.657 290.279 C 277.770 282.828, 272.668 277, 263.032 277 L 259 277 259 286.500 M 286 286.452 L 286 296 292.500 296 C 297.611 296, 299 295.679, 299 294.500 C 299 293.389, 297.833 293, 294.500 293 C 290.367 293, 290 292.796, 290 290.500 C 290 288.389, 290.467 288, 293 288 C 295 288, 296 287.500, 296 286.500 C 296 285.500, 295 285, 293 285 C 290.467 285, 290 284.611, 290 282.500 C 290 280.197, 290.361 280, 294.583 280 C 301.797 280, 299.698 277.565, 292.171 277.202 L 286 276.905 286 286.452 M 310.099 282.179 C 311.268 285.105, 312.953 289.430, 313.843 291.789 C 316.434 298.659, 318.624 297.339, 323.138 286.187 C 326.673 277.450, 326.779 276.893, 324.842 277.187 C 323.348 277.413, 322.079 279.249, 320.256 283.817 C 318.869 287.292, 317.399 289.767, 316.989 289.317 C 316.579 288.868, 315.342 286.025, 314.240 283 C 312.768 278.962, 311.669 277.415, 310.104 277.179 L 307.973 276.857 310.099 282.179 M 337 286.452 L 337 296 343.500 296 C 348.611 296, 350 295.679, 350 294.500 C 350 293.389, 348.833 293, 345.500 293 C 341.367 293, 341 292.796, 341 290.500 C 341 288.389, 341.467 288, 344 288 C 346 288, 347 287.500, 347 286.500 C 347 285.500, 346 285, 344 285 C 341.467 285, 341 284.611, 341 282.500 C 341 280.197, 341.361 280, 345.583 280 C 352.797 280, 350.698 277.565, 343.171 277.202 L 337 276.905 337 286.452 M 360 286.500 L 360 296 366 296 C 370.667 296, 372 295.667, 372 294.500 C 372 293.389, 370.833 293, 367.500 293 L 363 293 363 285 C 363 278.556, 362.708 277, 361.500 277 C 360.272 277, 360 278.722, 360 286.500 M 384.306 279.413 C 381.976 281.417, 381.500 282.620, 381.500 286.500 C 381.500 290.380, 381.976 291.583, 384.306 293.587 C 389.989 298.475, 399.229 295.627, 400.551 288.578 C 402.265 279.443, 391.398 273.313, 384.306 279.413 M 411 286.500 C 411 295.333, 411.140 296, 413 296 C 414.536 296, 415 295.333, 415 293.128 C 415 290.557, 415.414 290.189, 418.945 289.625 C 422.815 289.006, 426 286.120, 426 283.232 C 426 282.504, 424.895 280.805, 423.545 279.455 C 421.588 277.497, 420.069 277, 416.045 277 L 411 277 411 286.500 M 435 286.500 L 435 296 441.500 296 C 446.611 296, 448 295.679, 448 294.500 C 448 293.389, 446.833 293, 443.500 293 C 439.367 293, 439 292.796, 439 290.500 C 439 288.310, 439.433 288, 442.500 288 C 444.944 288, 446 287.548, 446 286.500 C 446 285.452, 444.944 285, 442.500 285 C 439.433 285, 439 284.690, 439 282.500 C 439 280.204, 439.367 280, 443.500 280 C 446.833 280, 448 279.611, 448 278.500 C 448 277.321, 446.611 277, 441.500 277 L 435 277 435 286.500 M 458 286.500 C 458 295.333, 458.140 296, 460 296 C 461.619 296, 462 295.333, 462 292.500 C 462 290.145, 462.464 289, 463.418 289 C 464.199 289, 465.810 290.575, 467 292.500 C 468.190 294.425, 469.801 296, 470.582 296 C 472.322 296, 472.321 295.208, 470.577 292.058 C 469.388 289.912, 469.460 289.297, 471.174 286.979 C 475.194 281.541, 471.225 277, 462.453 277 L 458 277 458 286.500 M 221 282.500 C 221 284.861, 221.329 285.095, 224.250 284.813 C 226.729 284.574, 227.500 284.025, 227.500 282.500 C 227.500 280.975, 226.729 280.426, 224.250 280.187 C 221.329 279.905, 221 280.139, 221 282.500 M 263 286.500 C 263 292.767, 263.090 293, 265.500 293 C 266.875 293, 268.900 292.100, 270 291 C 271.100 289.900, 272 287.875, 272 286.500 C 272 285.125, 271.100 283.100, 270 282 C 268.900 280.900, 266.875 280, 265.500 280 C 263.090 280, 263 280.233, 263 286.500 M 387 282 C 385.900 283.100, 385 285.125, 385 286.500 C 385 289.503, 388.228 293, 391 293 C 393.772 293, 397 289.503, 397 286.500 C 397 283.497, 393.772 280, 391 280 C 389.900 280, 388.100 280.900, 387 282 M 415 283.566 C 415 286.837, 415.220 287.107, 417.649 286.816 C 423.195 286.154, 422.950 280, 417.378 280 C 415.319 280, 415 280.478, 415 283.566 M 462 283 C 462 285.674, 462.330 286, 465.031 286 C 468.447 286, 469.898 283.787, 467.989 281.487 C 467.311 280.669, 465.685 280, 464.378 280 C 462.402 280, 462 280.508, 462 283 M 221 290.500 C 221 292.675, 221.440 293, 224.393 293 C 227.748 293, 229.116 291.676, 228.269 289.250 C 228.030 288.563, 226.296 288, 224.417 288 C 221.439 288, 221 288.321, 221 290.500" stroke="none" fill="#efcbba" fill-rule="evenodd"/><path d="M 0 250.002 L 0 500.004 250.250 499.752 L 500.500 499.500 500.752 249.750 L 501.004 0 250.502 0 L 0 0 0 250.002 M 0.492 250.500 C 0.492 388, 0.608 444.101, 0.750 375.170 C 0.892 306.238, 0.892 193.738, 0.750 125.170 C 0.608 56.601, 0.492 113, 0.492 250.500 M 161 192.443 L 161 210 164.964 210 L 168.928 210 169.214 200.251 L 169.500 190.502 176 200.217 L 182.500 209.931 186.750 209.965 L 191 210 191 192.500 L 191 175 187.035 175 L 183.070 175 182.785 185.198 L 182.500 195.395 176 185.448 C 169.593 175.643, 169.439 175.496, 165.250 175.193 L 161 174.885 161 192.443 M 202 192.500 L 202 210 214 210 L 226 210 226 206 L 226 202 218 202 L 210 202 210 199 L 210 196 216.500 196 L 223 196 223 192.500 L 223 189 216.500 189 L 210 189 210 186 L 210 183 217.500 183 L 225 183 225 179 L 225 175 213.500 175 L 202 175 202 192.500 M 235 192.443 L 235 210 239.524 210 L 244.047 210 243.774 192.750 L 243.500 175.500 239.250 175.193 L 235 174.885 235 192.443 M 254 192.500 L 254 210 265 210 L 276 210 276 206 L 276 202 269.500 202 L 263 202 263 188.500 L 263 175 258.500 175 L 254 175 254 192.500 M 161 240.475 L 161 258.177 172.089 257.838 C 182.812 257.511, 183.257 257.408, 185.589 254.694 C 189.087 250.623, 188.977 243.914, 185.365 241.073 C 183.916 239.933, 183.197 239, 183.767 239 C 185.354 239, 187.002 233.259, 186.350 230.002 C 185.283 224.663, 182.930 223.585, 171.420 223.159 L 161 222.773 161 240.475 M 205.598 227.199 C 204.715 229.565, 201.788 237.463, 199.094 244.750 L 194.195 258 199.018 258 C 203.564 258, 203.879 257.828, 204.500 255 C 205.148 252.051, 205.267 252, 211.500 252 C 217.733 252, 217.852 252.051, 218.500 255 C 219.120 257.823, 219.441 258, 223.940 258 L 228.722 258 222.500 240.750 L 216.278 223.500 211.741 223.199 C 207.226 222.900, 207.196 222.920, 205.598 227.199 M 237 240.500 L 237 258 241 258 L 245 258 245 252.500 C 245 248.533, 245.379 247, 246.358 247 C 247.106 247, 249.360 249.475, 251.369 252.500 C 254.989 257.952, 255.064 258, 260.045 258 C 265.714 258, 265.716 257.905, 260.200 250.568 L 257.244 246.636 260.622 243.450 C 263.584 240.657, 264 239.648, 264 235.267 C 264 226.059, 259.223 223.016, 244.750 223.006 L 237 223 237 240.500 M 283.118 225.250 C 282.660 226.488, 281.273 230.200, 280.036 233.500 C 278.799 236.800, 276.268 243.662, 274.411 248.750 L 271.036 258 275.570 258 C 279.709 258, 280.195 257.738, 281.150 255 C 282.154 252.120, 282.433 252, 288.150 252 C 293.867 252, 294.146 252.120, 295.150 255 C 296.098 257.721, 296.606 258, 300.598 258 C 303.019 258, 305 257.706, 305 257.347 C 305 256.841, 295.700 230.614, 293.264 224.250 C 292.982 223.511, 290.981 223, 288.368 223 C 284.700 223, 283.809 223.382, 283.118 225.250 M 313 226.954 L 313 230.909 319.601 231.204 L 326.202 231.500 318.605 241 C 312.187 249.025, 311.007 251.082, 311.004 254.250 L 311 258 324 258 L 337 258 337 254.042 L 337 250.084 329.425 249.792 L 321.850 249.500 328.909 240.500 C 335.119 232.584, 335.971 230.988, 335.984 227.250 L 336 223 324.500 223 L 313 223 313 226.954 M 350.199 239.703 C 346.787 248.942, 343.997 256.837, 343.998 257.250 C 343.999 257.663, 345.981 258, 348.402 258 C 352.394 258, 352.902 257.721, 353.850 255 C 354.854 252.120, 355.133 252, 360.850 252 C 366.567 252, 366.846 252.120, 367.850 255 C 368.804 257.737, 369.293 258, 373.418 258 L 377.940 258 373.881 246.750 C 371.648 240.563, 368.848 232.800, 367.658 229.500 L 365.495 223.500 360.949 223.203 L 356.403 222.907 350.199 239.703 M 386 240.500 L 386 258 390.500 258 L 395 258 395 252.500 C 395 249.475, 395.445 247, 395.990 247 C 396.534 247, 398.623 249.475, 400.631 252.500 C 404.224 257.911, 404.362 258, 409.142 258 C 411.814 258, 414 257.723, 414 257.384 C 414 257.045, 412.425 254.622, 410.500 252 C 408.575 249.378, 407 246.989, 407 246.693 C 407 246.396, 408.350 244.804, 410 243.154 C 412.591 240.563, 413 239.419, 413 234.765 C 413 225.782, 408.473 223.016, 393.750 223.006 L 386 223 386 240.500 M 421 226.945 L 421 230.890 425.750 231.195 L 430.500 231.500 430.779 244.750 L 431.058 258 435.029 258 L 439 258 439 244.500 L 439 231 444 231 L 449 231 449 227 L 449 223 435 223 L 421 223 421 226.945 M 457 240.468 L 457 258 469 258 L 481 258 481 254 L 481 250 473.500 250 L 466 250 466 247 L 466 244 472.500 244 L 479 244 479 240.500 L 479 237 472.500 237 L 466 237 466 234 L 466 231 473.560 231 L 481.121 231 480.810 227.250 L 480.500 223.500 468.750 223.218 L 457 222.937 457 240.468 M 170 233.500 C 170 236.917, 170.095 237, 174 237 C 177.745 237, 178 236.816, 178 234.107 C 178 231.054, 176.568 230, 172.418 230 C 170.321 230, 170 230.465, 170 233.500 M 245 235.500 C 245 239.855, 245.099 240, 248.066 240 C 252.337 240, 255 238.335, 255 235.665 C 255 232.403, 253.136 231, 248.800 231 L 245 231 245 235.500 M 395 235.500 C 395 239.833, 395.111 240, 398 240 C 401.672 240, 405.223 236.772, 404.300 234.273 C 403.381 231.781, 401.991 231.033, 398.250 231.015 C 395.063 231, 395 231.087, 395 235.500 M 209.654 238.154 C 208.744 241.264, 208 244.076, 208 244.404 C 208 244.732, 209.575 245, 211.500 245 C 215.501 245, 215.586 244.595, 213.076 237.500 L 211.307 232.500 209.654 238.154 M 286.209 238.848 L 284.131 245 288.066 245 C 290.230 245, 291.993 244.887, 291.985 244.750 C 291.977 244.613, 291.142 241.844, 290.128 238.598 L 288.286 232.696 286.209 238.848 M 359.146 237.080 C 358.445 239.511, 357.646 242.287, 357.369 243.250 C 356.954 244.692, 357.516 245, 360.558 245 C 364.097 245, 364.226 244.880, 363.671 242.106 C 363.353 240.515, 362.491 237.738, 361.756 235.936 L 360.419 232.660 359.146 237.080 M 170 247.500 C 170 250.795, 170.194 251, 173.309 251 C 177.810 251, 180.442 248.967, 179.555 246.174 C 178.984 244.373, 178.105 244, 174.433 244 C 170.033 244, 170 244.026, 170 247.500 M 160.016 277.677 C 160.024 278.130, 161.082 282.325, 162.368 287 C 164.248 293.842, 165.073 295.500, 166.593 295.500 C 168.027 295.500, 168.820 294.235, 169.886 290.250 C 170.658 287.363, 171.602 285, 171.985 285 C 172.368 285, 173.274 287.475, 174 290.500 C 175.638 297.329, 178.349 298.129, 179.933 292.250 C 180.489 290.188, 181.627 286.250, 182.461 283.500 C 184.388 277.151, 184.379 277, 182.100 277 C 180.630 277, 179.920 278.191, 178.968 282.250 C 177.171 289.909, 176.806 290.019, 174.986 283.450 C 172.832 275.673, 171.005 275.688, 168.872 283.500 C 167.154 289.791, 166.920 289.706, 164.707 282.006 C 163.914 279.246, 162.756 277.384, 161.708 277.182 C 160.768 277.001, 160.007 277.224, 160.016 277.677 M 194 286.500 L 194 296 200.500 296 C 205.611 296, 207 295.679, 207 294.500 C 207 293.389, 205.833 293, 202.500 293 C 198.367 293, 198 292.796, 198 290.500 C 198 288.310, 198.433 288, 201.500 288 C 203.944 288, 205 287.548, 205 286.500 C 205 285.452, 203.944 285, 201.500 285 C 198.433 285, 198 284.690, 198 282.500 C 198 280.204, 198.367 280, 202.500 280 C 205.833 280, 207 279.611, 207 278.500 C 207 277.321, 205.611 277, 200.500 277 L 194 277 194 286.500 M 217 286.500 L 217 296 222.277 296 C 225.436 296, 228.448 295.375, 229.777 294.443 C 232.140 292.789, 232.721 289.121, 230.907 287.307 C 230.119 286.519, 230.118 285.649, 230.904 284.180 C 233.259 279.779, 229.838 277, 222.066 277 L 217 277 217 286.500 M 259 286.500 L 259 296 262.851 296 C 269.216 296, 273.041 294.147, 274.657 290.279 C 277.770 282.828, 272.668 277, 263.032 277 L 259 277 259 286.500 M 286 286.452 L 286 296 292.500 296 C 297.611 296, 299 295.679, 299 294.500 C 299 293.389, 297.833 293, 294.500 293 C 290.367 293, 290 292.796, 290 290.500 C 290 288.389, 290.467 288, 293 288 C 295 288, 296 287.500, 296 286.500 C 296 285.500, 295 285, 293 285 C 290.467 285, 290 284.611, 290 282.500 C 290 280.197, 290.361 280, 294.583 280 C 301.797 280, 299.698 277.565, 292.171 277.202 L 286 276.905 286 286.452 M 310.099 282.179 C 311.268 285.105, 312.953 289.430, 313.843 291.789 C 316.434 298.659, 318.624 297.339, 323.138 286.187 C 326.673 277.450, 326.779 276.893, 324.842 277.187 C 323.348 277.413, 322.079 279.249, 320.256 283.817 C 318.869 287.292, 317.399 289.767, 316.989 289.317 C 316.579 288.868, 315.342 286.025, 314.240 283 C 312.768 278.962, 311.669 277.415, 310.104 277.179 L 307.973 276.857 310.099 282.179 M 337 286.452 L 337 296 343.500 296 C 348.611 296, 350 295.679, 350 294.500 C 350 293.389, 348.833 293, 345.500 293 C 341.367 293, 341 292.796, 341 290.500 C 341 288.389, 341.467 288, 344 288 C 346 288, 347 287.500, 347 286.500 C 347 285.500, 346 285, 344 285 C 341.467 285, 341 284.611, 341 282.500 C 341 280.197, 341.361 280, 345.583 280 C 352.797 280, 350.698 277.565, 343.171 277.202 L 337 276.905 337 286.452 M 360 286.500 L 360 296 366 296 C 370.667 296, 372 295.667, 372 294.500 C 372 293.389, 370.833 293, 367.500 293 L 363 293 363 285 C 363 278.556, 362.708 277, 361.500 277 C 360.272 277, 360 278.722, 360 286.500 M 384.306 279.413 C 381.976 281.417, 381.500 282.620, 381.500 286.500 C 381.500 290.380, 381.976 291.583, 384.306 293.587 C 389.989 298.475, 399.229 295.627, 400.551 288.578 C 402.265 279.443, 391.398 273.313, 384.306 279.413 M 411 286.500 C 411 295.333, 411.140 296, 413 296 C 414.536 296, 415 295.333, 415 293.128 C 415 290.557, 415.414 290.189, 418.945 289.625 C 422.815 289.006, 426 286.120, 426 283.232 C 426 282.504, 424.895 280.805, 423.545 279.455 C 421.588 277.497, 420.069 277, 416.045 277 L 411 277 411 286.500 M 435 286.500 L 435 296 441.500 296 C 446.611 296, 448 295.679, 448 294.500 C 448 293.389, 446.833 293, 443.500 293 C 439.367 293, 439 292.796, 439 290.500 C 439 288.310, 439.433 288, 442.500 288 C 444.944 288, 446 287.548, 446 286.500 C 446 285.452, 444.944 285, 442.500 285 C 439.433 285, 439 284.690, 439 282.500 C 439 280.204, 439.367 280, 443.500 280 C 446.833 280, 448 279.611, 448 278.500 C 448 277.321, 446.611 277, 441.500 277 L 435 277 435 286.500 M 458 286.500 C 458 295.333, 458.140 296, 460 296 C 461.619 296, 462 295.333, 462 292.500 C 462 290.145, 462.464 289, 463.418 289 C 464.199 289, 465.810 290.575, 467 292.500 C 468.190 294.425, 469.801 296, 470.582 296 C 472.322 296, 472.321 295.208, 470.577 292.058 C 469.388 289.912, 469.460 289.297, 471.174 286.979 C 475.194 281.541, 471.225 277, 462.453 277 L 458 277 458 286.500 M 221 282.500 C 221 284.861, 221.329 285.095, 224.250 284.813 C 226.729 284.574, 227.500 284.025, 227.500 282.500 C 227.500 280.975, 226.729 280.426, 224.250 280.187 C 221.329 279.905, 221 280.139, 221 282.500 M 263 286.500 C 263 292.767, 263.090 293, 265.500 293 C 266.875 293, 268.900 292.100, 270 291 C 271.100 289.900, 272 287.875, 272 286.500 C 272 285.125, 271.100 283.100, 270 282 C 268.900 280.900, 266.875 280, 265.500 280 C 263.090 280, 263 280.233, 263 286.500 M 387 282 C 385.900 283.100, 385 285.125, 385 286.500 C 385 289.503, 388.228 293, 391 293 C 393.772 293, 397 289.503, 397 286.500 C 397 283.497, 393.772 280, 391 280 C 389.900 280, 388.100 280.900, 387 282 M 415 283.566 C 415 286.837, 415.220 287.107, 417.649 286.816 C 423.195 286.154, 422.950 280, 417.378 280 C 415.319 280, 415 280.478, 415 283.566 M 462 283 C 462 285.674, 462.330 286, 465.031 286 C 468.447 286, 469.898 283.787, 467.989 281.487 C 467.311 280.669, 465.685 280, 464.378 280 C 462.402 280, 462 280.508, 462 283 M 221 290.500 C 221 292.675, 221.440 293, 224.393 293 C 227.748 293, 229.116 291.676, 228.269 289.250 C 228.030 288.563, 226.296 288, 224.417 288 C 221.439 288, 221 288.321, 221 290.500" stroke="none" fill="#040404" fill-rule="evenodd"/></svg>