<?xml version="1.0" encoding="utf-8"?>
<svg viewBox="100 100 341.843 85.463" width="341.843" height="85.463" xmlns="http://www.w3.org/2000/svg">
  <path d="M 575.5 212.414 L 575.5 212.239 L 579.2 212.239 L 581.75 216.089 L 578.55 216.089 Z" transform="matrix(1.659208, 0, 0, 1.925437, -853.507935, -298.44281)" style="fill: rgb(8, 0, 255); white-space: pre;"/>
  <path d="M 585.995 228.839 Q 587.095 229.214 588.407 229.427 Q 589.72 229.639 591.02 229.639 Q 592.795 229.639 593.657 229.477 Q 594.52 229.314 594.795 228.964 Q 595.07 228.614 595.07 228.064 Q 595.07 227.589 594.87 227.314 Q 594.67 227.039 594.095 226.877 Q 593.52 226.714 592.395 226.614 L 590.745 226.464 Q 588.895 226.289 587.832 225.689 Q 586.77 225.089 586.332 224.077 Q 585.895 223.064 585.895 221.639 Q 585.895 219.614 586.882 218.502 Q 587.87 217.389 590.22 217.039 L 590.22 213.989 L 594.22 213.989 L 594.22 216.889 Q 596.72 217.039 598.47 217.739 L 598.395 221.139 L 598.32 221.239 Q 595.845 220.364 593.145 220.364 Q 591.845 220.364 591.145 220.502 Q 590.445 220.639 590.17 220.939 Q 589.895 221.239 589.895 221.789 Q 589.895 222.339 590.082 222.614 Q 590.27 222.889 590.845 223.027 Q 591.42 223.164 592.52 223.289 L 594.095 223.464 Q 596.095 223.689 597.17 224.264 Q 598.245 224.839 598.657 225.802 Q 599.07 226.764 599.07 228.139 Q 599.07 230.214 597.957 231.427 Q 596.845 232.639 594.22 232.989 L 594.22 235.889 L 590.22 235.889 L 590.22 233.089 Q 588.995 233.039 587.945 232.864 Q 586.895 232.689 585.895 232.439 L 585.895 228.914 Z" transform="matrix(1.659208, 0, 0, 1.925437, -853.507935, -298.44281)" style="fill: rgb(8, 0, 255); white-space: pre;"/>
  <path d="M 609.446 228.439 L 609.446 235.339 Q 609.446 236.014 609.746 236.277 Q 610.046 236.539 610.646 236.539 Q 611.071 236.539 611.396 236.414 L 611.421 236.439 L 611.421 239.114 Q 611.096 239.214 610.696 239.289 Q 610.296 239.364 609.746 239.364 Q 607.796 239.364 607.046 238.414 Q 606.296 237.464 606.296 235.864 L 606.296 228.764 Q 606.296 228.189 605.959 227.964 Q 605.621 227.739 605.221 227.689 Q 604.821 227.639 604.596 227.639 L 604.596 224.914 Q 604.821 224.914 605.221 224.877 Q 605.621 224.839 605.959 224.652 Q 606.296 224.464 606.296 224.014 L 606.296 216.714 Q 606.296 215.089 607.046 214.152 Q 607.796 213.214 609.746 213.214 Q 610.296 213.214 610.696 213.277 Q 611.096 213.339 611.421 213.464 L 611.421 216.139 L 611.396 216.164 Q 611.071 216.039 610.646 216.039 Q 610.046 216.039 609.746 216.302 Q 609.446 216.564 609.446 217.239 L 609.446 224.339 Q 609.446 225.114 609.084 225.514 Q 608.721 225.914 608.259 226.064 Q 607.796 226.214 607.471 226.264 L 607.471 226.364 Q 607.796 226.389 608.259 226.502 Q 608.721 226.614 609.084 227.039 Q 609.446 227.464 609.446 228.439 Z" transform="matrix(1.659208, 0, 0, 1.925437, -853.507935, -298.44281)" style="fill: rgb(8, 0, 255); white-space: pre;"/>
  <path d="M 637.439 229.389 L 637.439 232.639 Q 636.814 232.889 635.589 233.014 Q 634.364 233.139 632.989 233.139 Q 631.014 233.139 629.702 232.589 Q 628.389 232.039 627.752 230.689 Q 627.114 229.339 627.089 226.939 Q 627.089 224.464 627.777 223.089 Q 628.464 221.714 629.789 221.164 Q 631.114 220.614 632.964 220.614 Q 634.064 220.614 635.289 220.764 Q 636.514 220.914 637.289 221.164 L 637.314 224.514 L 637.239 224.564 Q 636.489 224.414 635.639 224.339 Q 634.789 224.264 633.964 224.264 Q 632.289 224.264 631.639 224.889 Q 630.989 225.514 630.989 226.989 Q 630.989 228.114 631.264 228.664 Q 631.539 229.214 632.189 229.389 Q 632.839 229.564 633.964 229.564 Q 634.839 229.564 635.639 229.489 Q 636.439 229.414 637.339 229.314 Z" transform="matrix(1.659208, 0, 0, 1.925437, -853.507935, -298.44281)" style="fill: rgb(255, 255, 255); white-space: pre;"/>
  <path d="M 641.714 226.914 Q 641.714 223.564 643.139 222.089 Q 644.564 220.614 647.964 220.614 Q 650.239 220.614 651.614 221.264 Q 652.989 221.914 653.602 223.302 Q 654.214 224.689 654.214 226.914 Q 654.214 229.114 653.602 230.489 Q 652.989 231.864 651.614 232.502 Q 650.239 233.139 647.964 233.139 Q 644.564 233.139 643.139 231.677 Q 641.714 230.214 641.714 226.914 Z M 647.964 229.714 Q 649.414 229.714 649.927 229.077 Q 650.439 228.439 650.439 226.839 Q 650.439 225.314 649.927 224.652 Q 649.414 223.989 647.964 223.989 Q 646.564 223.989 646.027 224.652 Q 645.489 225.314 645.489 226.839 Q 645.489 228.439 646.027 229.077 Q 646.564 229.714 647.964 229.714 Z" transform="matrix(1.659208, 0, 0, 1.925437, -853.507935, -298.44281)" style="fill: rgb(255, 255, 255); white-space: pre;"/>
  <path d="M 666.84 232.914 L 666.69 231.139 L 666.59 231.139 Q 666.165 232.139 665.377 232.639 Q 664.59 233.139 663.09 233.139 Q 660.665 233.139 659.54 231.727 Q 658.415 230.314 658.365 227.464 Q 658.34 224.914 658.89 223.414 Q 659.44 221.914 660.615 221.264 Q 661.79 220.614 663.615 220.614 Q 664.565 220.614 665.34 220.777 Q 666.115 220.939 666.59 221.214 L 666.64 221.189 L 666.64 216.089 L 670.64 216.089 L 670.64 232.914 Z M 664.39 229.739 Q 665.39 229.739 666.015 229.114 Q 666.64 228.489 666.64 227.039 L 666.64 224.414 Q 665.715 224.039 664.465 224.039 Q 663.29 224.039 662.777 224.602 Q 662.265 225.164 662.265 226.864 Q 662.265 228.314 662.677 229.027 Q 663.09 229.739 664.39 229.739 Z" transform="matrix(1.659208, 0, 0, 1.925437, -853.507935, -298.44281)" style="fill: rgb(255, 255, 255); white-space: pre;"/>
  <path d="M 687.267 232.514 Q 686.567 232.764 685.33 232.952 Q 684.092 233.139 682.392 233.139 Q 680.242 233.139 678.73 232.577 Q 677.217 232.014 676.442 230.652 Q 675.667 229.289 675.667 226.864 Q 675.667 223.564 677.18 222.089 Q 678.692 220.614 681.867 220.614 Q 684.142 220.614 685.455 221.264 Q 686.767 221.914 687.33 223.102 Q 687.892 224.289 687.892 225.914 Q 687.892 226.389 687.855 226.939 Q 687.817 227.489 687.717 228.014 L 687.617 228.114 L 679.392 228.114 Q 679.567 229.214 680.43 229.564 Q 681.292 229.914 683.242 229.914 Q 684.542 229.914 685.405 229.852 Q 686.267 229.789 687.167 229.664 L 687.267 229.739 Z M 684.417 225.489 Q 684.417 224.889 684.23 224.452 Q 684.042 224.014 683.492 223.777 Q 682.942 223.539 681.867 223.539 Q 680.292 223.539 679.805 224.077 Q 679.317 224.614 679.317 225.489 Z" transform="matrix(1.659208, 0, 0, 1.925437, -853.507935, -298.44281)" style="fill: rgb(255, 255, 255); white-space: pre;"/>
  <path d="M 703.165 217.089 L 707.165 217.089 L 707.165 232.914 L 703.19 232.914 L 698.69 226.214 Q 698.165 225.414 697.815 224.864 Q 697.465 224.314 697.165 223.764 Q 696.865 223.214 696.49 222.464 L 696.415 222.564 Q 696.765 223.764 696.84 224.802 Q 696.915 225.839 696.915 226.814 L 696.915 232.914 L 692.915 232.914 L 692.915 217.089 L 696.89 217.089 L 701.39 223.789 Q 701.915 224.564 702.265 225.127 Q 702.615 225.689 702.915 226.239 Q 703.215 226.789 703.59 227.539 L 703.665 227.439 Q 703.415 226.389 703.29 225.402 Q 703.165 224.414 703.165 223.439 Z" transform="matrix(1.659208, 0, 0, 1.925437, -853.507935, -298.44281)" style="fill: rgb(255, 255, 255); white-space: pre;"/>
  <path d="M 723.785 232.514 Q 723.085 232.764 721.848 232.952 Q 720.61 233.139 718.91 233.139 Q 716.76 233.139 715.248 232.577 Q 713.735 232.014 712.96 230.652 Q 712.185 229.289 712.185 226.864 Q 712.185 223.564 713.698 222.089 Q 715.21 220.614 718.385 220.614 Q 720.66 220.614 721.973 221.264 Q 723.285 221.914 723.848 223.102 Q 724.41 224.289 724.41 225.914 Q 724.41 226.389 724.373 226.939 Q 724.335 227.489 724.235 228.014 L 724.135 228.114 L 715.91 228.114 Q 716.085 229.214 716.948 229.564 Q 717.81 229.914 719.76 229.914 Q 721.06 229.914 721.923 229.852 Q 722.785 229.789 723.685 229.664 L 723.785 229.739 Z M 720.935 225.489 Q 720.935 224.889 720.748 224.452 Q 720.56 224.014 720.01 223.777 Q 719.46 223.539 718.385 223.539 Q 716.81 223.539 716.323 224.077 Q 715.835 224.614 715.835 225.489 Z" transform="matrix(1.659208, 0, 0, 1.925437, -853.507935, -298.44281)" style="fill: rgb(255, 255, 255); white-space: pre;"/>
  <path d="M 733.208 216.214 Q 733.283 217.114 733.283 217.714 Q 733.283 218.064 733.27 218.427 Q 733.258 218.789 733.208 219.239 Q 732.683 219.339 732.183 219.389 Q 731.683 219.439 731.183 219.439 Q 730.708 219.439 730.22 219.389 Q 729.733 219.339 729.233 219.239 Q 729.183 218.814 729.158 218.452 Q 729.133 218.089 729.133 217.739 Q 729.133 217.414 729.158 217.039 Q 729.183 216.664 729.233 216.214 Q 729.733 216.089 730.245 216.052 Q 730.758 216.014 731.258 216.014 Q 731.733 216.014 732.22 216.052 Q 732.708 216.089 733.208 216.214 Z M 733.208 232.914 L 729.208 232.914 L 729.208 220.739 L 733.208 220.739 Z" transform="matrix(1.659208, 0, 0, 1.925437, -853.507935, -298.44281)" style="fill: rgb(255, 255, 255); white-space: pre;"/>
  <path d="M 742.884 232.914 L 738.884 232.914 L 738.884 216.089 L 742.884 216.089 Z" transform="matrix(1.659208, 0, 0, 1.925437, -853.507935, -298.44281)" style="fill: rgb(255, 255, 255); white-space: pre;"/>
  <path d="M 761.411 228.439 Q 761.411 227.464 761.774 227.039 Q 762.136 226.614 762.599 226.502 Q 763.061 226.389 763.386 226.364 L 763.386 226.264 Q 763.061 226.214 762.599 226.064 Q 762.136 225.914 761.774 225.514 Q 761.411 225.114 761.411 224.339 L 761.411 217.239 Q 761.411 216.564 761.111 216.302 Q 760.811 216.039 760.211 216.039 Q 759.786 216.039 759.461 216.164 L 759.436 216.139 L 759.436 213.464 Q 759.761 213.339 760.161 213.277 Q 760.561 213.214 761.111 213.214 Q 763.061 213.214 763.811 214.152 Q 764.561 215.089 764.561 216.714 L 764.561 224.014 Q 764.561 224.464 764.899 224.652 Q 765.236 224.839 765.649 224.877 Q 766.061 224.914 766.261 224.914 L 766.261 227.639 Q 766.061 227.639 765.649 227.689 Q 765.236 227.739 764.899 227.964 Q 764.561 228.189 764.561 228.764 L 764.561 235.864 Q 764.561 237.464 763.811 238.414 Q 763.061 239.364 761.111 239.364 Q 760.561 239.364 760.161 239.289 Q 759.761 239.214 759.436 239.114 L 759.436 236.439 L 759.461 236.414 Q 759.786 236.539 760.211 236.539 Q 760.811 236.539 761.111 236.277 Q 761.411 236.014 761.411 235.339 Z" transform="matrix(1.659208, 0, 0, 1.925437, -853.507935, -298.44281)" style="fill: rgb(8, 0, 255); white-space: pre;"/>
  <path d="M 771.281 212.414 L 771.281 212.239 L 774.981 212.239 L 777.531 216.089 L 774.331 216.089 Z" transform="matrix(1.659208, 0, 0, 1.925437, -853.507935, -298.44281)" style="fill: rgb(8, 0, 255); white-space: pre;"/>
  <path d="M 600.869 251.744 L 597.645 238.241 L 600.436 238.241 L 602.472 247.516 L 604.94 238.241 L 608.183 238.241 L 610.55 247.673 L 612.622 238.241 L 615.367 238.241 L 612.088 251.744 L 609.196 251.744 L 606.506 241.649 L 603.826 251.744 Z M 622.051 248.631 L 624.63 249.064 Q 624.133 250.482 623.06 251.224 Q 621.987 251.965 620.375 251.965 Q 617.824 251.965 616.599 250.298 Q 615.631 248.962 615.631 246.927 Q 615.631 244.495 616.903 243.118 Q 618.174 241.741 620.117 241.741 Q 622.3 241.741 623.562 243.183 Q 624.824 244.624 624.769 247.599 L 618.284 247.599 Q 618.312 248.75 618.91 249.391 Q 619.509 250.031 620.403 250.031 Q 621.011 250.031 621.425 249.699 Q 621.839 249.368 622.051 248.631 Z M 622.199 246.015 Q 622.171 244.891 621.618 244.306 Q 621.066 243.721 620.274 243.721 Q 619.426 243.721 618.874 244.339 Q 618.321 244.956 618.33 246.015 Z M 626.77 251.744 L 626.77 238.241 L 629.358 238.241 L 629.358 243.104 Q 630.556 241.741 632.195 241.741 Q 633.982 241.741 635.152 243.035 Q 636.322 244.329 636.322 246.752 Q 636.322 249.257 635.129 250.611 Q 633.936 251.965 632.232 251.965 Q 631.394 251.965 630.579 251.546 Q 629.764 251.127 629.174 250.307 L 629.174 251.744 Z M 629.34 246.641 Q 629.34 248.161 629.819 248.889 Q 630.491 249.92 631.606 249.92 Q 632.462 249.92 633.066 249.188 Q 633.669 248.456 633.669 246.881 Q 633.669 245.204 633.061 244.463 Q 632.453 243.721 631.504 243.721 Q 630.574 243.721 629.957 244.444 Q 629.34 245.167 629.34 246.641 Z M 643.647 238.241 L 648.63 238.241 Q 650.315 238.241 651.2 238.499 Q 652.388 238.849 653.235 239.742 Q 654.083 240.636 654.525 241.93 Q 654.967 243.224 654.967 245.121 Q 654.967 246.789 654.552 247.995 Q 654.046 249.469 653.106 250.381 Q 652.397 251.072 651.19 251.458 Q 650.288 251.744 648.777 251.744 L 643.647 251.744 Z M 646.373 240.525 L 646.373 249.469 L 648.409 249.469 Q 649.551 249.469 650.057 249.34 Q 650.721 249.174 651.158 248.778 Q 651.596 248.382 651.872 247.475 Q 652.148 246.568 652.148 245.002 Q 652.148 243.436 651.872 242.598 Q 651.596 241.76 651.098 241.29 Q 650.601 240.82 649.836 240.654 Q 649.265 240.525 647.598 240.525 Z M 662.928 248.631 L 665.507 249.064 Q 665.009 250.482 663.936 251.224 Q 662.863 251.965 661.251 251.965 Q 658.7 251.965 657.475 250.298 Q 656.508 248.962 656.508 246.927 Q 656.508 244.495 657.779 243.118 Q 659.05 241.741 660.993 241.741 Q 663.176 241.741 664.438 243.183 Q 665.7 244.624 665.645 247.599 L 659.16 247.599 Q 659.188 248.75 659.787 249.391 Q 660.385 250.031 661.279 250.031 Q 661.887 250.031 662.301 249.699 Q 662.716 249.368 662.928 248.631 Z M 663.075 246.015 Q 663.047 244.891 662.495 244.306 Q 661.942 243.721 661.15 243.721 Q 660.303 243.721 659.75 244.339 Q 659.197 244.956 659.206 246.015 Z M 670.436 251.744 L 666.494 241.962 L 669.211 241.962 L 671.053 246.954 L 671.587 248.622 Q 671.799 247.986 671.854 247.783 Q 671.983 247.369 672.131 246.954 L 673.991 241.962 L 676.653 241.962 L 672.766 251.744 Z M 683.905 248.631 L 686.484 249.064 Q 685.987 250.482 684.913 251.224 Q 683.84 251.965 682.229 251.965 Q 679.677 251.965 678.452 250.298 Q 677.485 248.962 677.485 246.927 Q 677.485 244.495 678.756 243.118 Q 680.027 241.741 681.971 241.741 Q 684.154 241.741 685.415 243.183 Q 686.677 244.624 686.622 247.599 L 680.138 247.599 Q 680.165 248.75 680.764 249.391 Q 681.363 250.031 682.256 250.031 Q 682.864 250.031 683.279 249.699 Q 683.693 249.368 683.905 248.631 Z M 684.052 246.015 Q 684.025 244.891 683.472 244.306 Q 682.919 243.721 682.127 243.721 Q 681.28 243.721 680.727 244.339 Q 680.175 244.956 680.184 246.015 Z M 688.734 251.744 L 688.734 238.241 L 691.322 238.241 L 691.322 251.744 Z M 693.372 246.715 Q 693.372 245.425 694.008 244.219 Q 694.643 243.012 695.808 242.377 Q 696.973 241.741 698.41 241.741 Q 700.63 241.741 702.049 243.183 Q 703.467 244.624 703.467 246.825 Q 703.467 249.045 702.035 250.505 Q 700.602 251.965 698.429 251.965 Q 697.084 251.965 695.864 251.357 Q 694.643 250.749 694.008 249.575 Q 693.372 248.4 693.372 246.715 Z M 696.025 246.853 Q 696.025 248.308 696.716 249.082 Q 697.406 249.856 698.419 249.856 Q 699.433 249.856 700.119 249.082 Q 700.805 248.308 700.805 246.835 Q 700.805 245.398 700.119 244.624 Q 699.433 243.85 698.419 243.85 Q 697.406 243.85 696.716 244.624 Q 696.025 245.398 696.025 246.853 Z M 705.417 241.962 L 707.831 241.962 L 707.831 243.399 Q 708.3 242.662 709.102 242.202 Q 709.903 241.741 710.879 241.741 Q 712.583 241.741 713.772 243.077 Q 714.96 244.412 714.96 246.798 Q 714.96 249.248 713.762 250.606 Q 712.565 251.965 710.861 251.965 Q 710.05 251.965 709.392 251.643 Q 708.733 251.32 708.006 250.537 L 708.006 255.465 L 705.417 255.465 Z M 707.978 246.687 Q 707.978 248.336 708.632 249.124 Q 709.286 249.911 710.225 249.911 Q 711.128 249.911 711.727 249.188 Q 712.326 248.465 712.326 246.816 Q 712.326 245.278 711.708 244.532 Q 711.091 243.786 710.179 243.786 Q 709.231 243.786 708.604 244.518 Q 707.978 245.25 707.978 246.687 Z M 722.676 248.631 L 725.255 249.064 Q 724.758 250.482 723.685 251.224 Q 722.612 251.965 721 251.965 Q 718.448 251.965 717.223 250.298 Q 716.256 248.962 716.256 246.927 Q 716.256 244.495 717.527 243.118 Q 718.798 241.741 720.742 241.741 Q 722.925 241.741 724.187 243.183 Q 725.449 244.624 725.393 247.599 L 718.909 247.599 Q 718.937 248.75 719.535 249.391 Q 720.134 250.031 721.027 250.031 Q 721.635 250.031 722.05 249.699 Q 722.464 249.368 722.676 248.631 Z M 722.824 246.015 Q 722.796 244.891 722.243 244.306 Q 721.691 243.721 720.899 243.721 Q 720.051 243.721 719.498 244.339 Q 718.946 244.956 718.955 246.015 Z M 729.983 251.744 L 727.395 251.744 L 727.395 241.962 L 729.799 241.962 L 729.799 243.353 Q 730.416 242.367 730.909 242.054 Q 731.402 241.741 732.028 241.741 Q 732.912 241.741 733.732 242.229 L 732.931 244.486 Q 732.277 244.062 731.715 244.062 Q 731.171 244.062 730.794 244.362 Q 730.416 244.661 730.2 245.444 Q 729.983 246.227 729.983 248.723 Z" transform="matrix(1.418774, 0, 0, 1.590355, -658.162537, -221.035065)" style="fill: rgb(255, 87, 35); white-space: pre;"/>
</svg>