<svg xmlns:mydata="http://www.w3.org/2000/svg" mydata:contrastcolor="002d2b" mydata:template="Contrast" mydata:presentation="2.5" mydata:layouttype="undefined" mydata:specialfontid="undefined" mydata:id1="261" mydata:id2="125" mydata:companyname="Neil Barazarte" mydata:companytagline="web developer" version="1.1" xmlns="http://www.w3.org/2000/svg" xmlns:xlink="http://www.w3.org/1999/xlink" style="height: 768px;" viewBox="0 0 550 470"><defs><linearGradient x1="65" y1="235" x2="485" y2="235" gradientUnits="userSpaceOnUse" id="color-119350"><stop offset="0" stop-color="#00968f"></stop><stop offset="1" stop-color="#00fff4"></stop></linearGradient></defs><g fill="url(#color-119350)" fill-rule="nonzero" stroke="none" stroke-width="1" stroke-linecap="butt" stroke-linejoin="miter" stroke-miterlimit="10" stroke-dasharray="" stroke-dashoffset="0" font-family="none" font-weight="none" font-size="none" text-anchor="none" style="mix-blend-mode: normal"><g data-paper-data="{&quot;isGlobalGroup&quot;:true,&quot;bounds&quot;:{&quot;x&quot;:65,&quot;y&quot;:126.78185301154778,&quot;width&quot;:420,&quot;height&quot;:216.4362939769044}}"><g data-paper-data="{&quot;isSecondaryText&quot;:true}" id="element-id-8547"><path d="M146.58169,342.83355l-1.72231,-7.22369l-1.75576,7.22369h-2.1738l-3.14364,-11.10308h2.47478l1.82264,7.19025l1.53838,-7.19025h2.44134l1.68887,7.19025l1.80592,-7.19025h2.37445l-3.1102,11.10308z" data-paper-data="{&quot;glyphName&quot;:&quot;W&quot;,&quot;glyphIndex&quot;:0,&quot;firstGlyphOfWord&quot;:true,&quot;word&quot;:1}" id="element-id-54924"></path><path d="M167.23818,342.83355v-11.10308h8.16009v1.93969h-5.90269v2.37445h5.43449v1.95642h-5.43449v2.85938h6.17024v1.97314z" data-paper-data="{&quot;glyphName&quot;:&quot;E&quot;,&quot;glyphIndex&quot;:1,&quot;word&quot;:1}" id="element-id-71103"></path><path d="M194.19524,340.94402c0.53509,0 0.95313,-0.15049 1.25411,-0.45148c0.30099,-0.30099 0.45148,-0.68001 0.45148,-1.13706c0,-0.4905 -0.14771,-0.84722 -0.44312,-1.07018c-0.29541,-0.22295 -0.70509,-0.33443 -1.22903,-0.33443h-2.97643v2.99315zM191.25226,333.65345v2.4079h2.92626c0.9364,0 1.40461,-0.40132 1.40461,-1.20395c0,-0.42361 -0.11984,-0.73017 -0.35951,-0.91968c-0.23967,-0.18951 -0.63263,-0.28427 -1.17887,-0.28427zM189.01157,342.83355v-11.10308h5.46793c1.09247,0 1.92297,0.27033 2.4915,0.81099c0.56853,0.54066 0.8528,1.2792 0.8528,2.2156c0,0.47935 -0.1282,0.90575 -0.38459,1.2792c-0.2564,0.37345 -0.57968,0.6382 -0.96985,0.79427c0.2341,0.08918 0.45427,0.20344 0.6605,0.34279c0.20623,0.13935 0.38459,0.31771 0.53509,0.53509c0.15049,0.21738 0.27033,0.47378 0.35951,0.76919c0.08918,0.29541 0.13377,0.64378 0.13377,1.04509c0,1.01444 -0.34,1.81986 -1.02001,2.41626c-0.68001,0.5964 -1.72231,0.8946 -3.12692,0.8946z" data-paper-data="{&quot;glyphName&quot;:&quot;B&quot;,&quot;glyphIndex&quot;:2,&quot;lastGlyphOfWord&quot;:true,&quot;word&quot;:1}" id="element-id-59007"></path><path d="M229.38212,340.94402c1.01444,0 1.75018,-0.31492 2.20724,-0.94477c0.45705,-0.62984 0.68558,-1.57461 0.68558,-2.8343c0,-0.62427 -0.05574,-1.15936 -0.16722,-1.60526c-0.11148,-0.44591 -0.29263,-0.81099 -0.54345,-1.09526c-0.25082,-0.28427 -0.57132,-0.4905 -0.96149,-0.6187c-0.39017,-0.1282 -0.86394,-0.1923 -1.42133,-0.1923h-1.72231v7.29058zM225.20174,342.83355v-11.10308h4.29743c0.74689,0 1.43805,0.12541 2.07347,0.37623c0.63542,0.25082 1.17887,0.61033 1.63035,1.07854c0.45148,0.4682 0.80542,1.03673 1.06182,1.70559c0.2564,0.66886 0.38459,1.4269 0.38459,2.27412c0,0.84722 -0.11426,1.6192 -0.34279,2.31593c-0.22853,0.69673 -0.5546,1.29313 -0.97821,1.7892c-0.42361,0.49607 -0.93083,0.88067 -1.52166,1.15378c-0.59083,0.27312 -1.24297,0.40968 -1.95642,0.40968z" data-paper-data="{&quot;glyphName&quot;:&quot;D&quot;,&quot;glyphIndex&quot;:3,&quot;firstGlyphOfWord&quot;:true,&quot;word&quot;:2}" id="element-id-45014"></path><path d="M248.51726,342.83355v-11.10308h8.16009v1.93969h-5.90269v2.37445h5.43449v1.95642h-5.43449v2.85938h6.17024v1.97314z" data-paper-data="{&quot;glyphName&quot;:&quot;E&quot;,&quot;glyphIndex&quot;:4,&quot;word&quot;:2}" id="element-id-31519"></path><path d="M273.681,342.83355l-3.76234,-11.10308h2.47478l2.42462,7.79222l2.4079,-7.79222h2.4079l-3.76234,11.10308z" data-paper-data="{&quot;glyphName&quot;:&quot;V&quot;,&quot;glyphIndex&quot;:5,&quot;word&quot;:2}" id="element-id-73001"></path><path d="M293.30947,342.83355v-11.10308h8.16009v1.93969h-5.90269v2.37445h5.43449v1.95642h-5.43449v2.85938h6.17024v1.97314z" data-paper-data="{&quot;glyphName&quot;:&quot;E&quot;,&quot;glyphIndex&quot;:6,&quot;word&quot;:2}" id="element-id-90371"></path><path d="M314.58822,342.83355v-11.10308h2.32429v9.07978h5.50138v2.0233z" data-paper-data="{&quot;glyphName&quot;:&quot;L&quot;,&quot;glyphIndex&quot;:7,&quot;word&quot;:2}" id="element-id-73676"></path><path d="M340.22663,341.22829c0.41246,0 0.80263,-0.07525 1.17051,-0.22574c0.36787,-0.15049 0.68837,-0.37902 0.96149,-0.68558c0.27312,-0.30656 0.48771,-0.69952 0.64378,-1.17887c0.15607,-0.47935 0.2341,-1.04788 0.2341,-1.70559c0,-1.31543 -0.2564,-2.31314 -0.76919,-2.99315c-0.51279,-0.68001 -1.25969,-1.02001 -2.24068,-1.02001c-0.98099,0 -1.73346,0.34 -2.2574,1.02001c-0.52394,0.68001 -0.78591,1.67772 -0.78591,2.99315c0,1.31543 0.26476,2.27691 0.79427,2.88446c0.52951,0.60755 1.2792,0.91132 2.24904,0.91132zM340.22663,343.21815c-1.71674,0 -3.03495,-0.50165 -3.95464,-1.50494c-0.91968,-1.00329 -1.37952,-2.44691 -1.37952,-4.33087c0,-0.9364 0.11705,-1.77805 0.35115,-2.52495c0.2341,-0.74689 0.57968,-1.37952 1.03673,-1.89789c0.45705,-0.51837 1.01444,-0.91411 1.67215,-1.18723c0.65771,-0.27312 1.41575,-0.40968 2.27412,-0.40968c0.84722,0 1.60248,0.13656 2.26576,0.40968c0.66329,0.27312 1.21788,0.67165 1.66379,1.19559c0.44591,0.52394 0.78591,1.16214 1.02001,1.91461c0.2341,0.75247 0.35115,1.60248 0.35115,2.55003c0,1.9174 -0.45427,3.36102 -1.3628,4.33087c-0.90854,0.96985 -2.22117,1.45477 -3.93791,1.45477z" data-paper-data="{&quot;glyphName&quot;:&quot;O&quot;,&quot;glyphIndex&quot;:8,&quot;word&quot;:2}" id="element-id-37016"></path><path d="M364.41307,336.91414c0.66886,0 1.151,-0.15328 1.44641,-0.45984c0.29541,-0.30656 0.44312,-0.70509 0.44312,-1.19559c0,-0.4682 -0.14771,-0.8528 -0.44312,-1.15378c-0.29541,-0.30099 -0.77755,-0.45148 -1.44641,-0.45148h-2.20724v3.26069zM359.88154,342.83355v-11.10308h4.8994c0.54624,0 1.03673,0.09197 1.47149,0.2759c0.43476,0.18394 0.80821,0.44033 1.12034,0.76919c0.31213,0.32886 0.55181,0.71066 0.71902,1.14542c0.16722,0.43476 0.25082,0.90296 0.25082,1.40461c0,0.50165 -0.08361,0.96706 -0.25082,1.39625c-0.16722,0.42919 -0.40689,0.79706 -0.71902,1.10362c-0.31213,0.30656 -0.68558,0.54624 -1.12034,0.71902c-0.43476,0.17279 -0.92526,0.25918 -1.47149,0.25918h-2.57511v4.02988z" data-paper-data="{&quot;glyphName&quot;:&quot;P&quot;,&quot;glyphIndex&quot;:9,&quot;word&quot;:2}" id="element-id-55498"></path><path d="M381.43166,342.83355v-11.10308h8.16009v1.93969h-5.90269v2.37445h5.43449v1.95642h-5.43449v2.85938h6.17024v1.97314z" data-paper-data="{&quot;glyphName&quot;:&quot;E&quot;,&quot;glyphIndex&quot;:10,&quot;word&quot;:2}" id="element-id-18496"></path><path d="M405.42489,333.65345v2.95971h2.90954c0.62427,0 1.0646,-0.13935 1.321,-0.41804c0.2564,-0.27869 0.38459,-0.62984 0.38459,-1.05345c0,-0.43476 -0.12541,-0.79148 -0.37623,-1.07018c-0.25082,-0.27869 -0.66607,-0.41804 -1.24575,-0.41804zM409.63871,342.83355v-2.85938c0,-0.53509 -0.12262,-0.9169 -0.36787,-1.14542c-0.24525,-0.22853 -0.7023,-0.34279 -1.37116,-0.34279h-2.47478v4.34759h-2.2574v-11.10308h5.63515c0.51279,0 0.97821,0.08082 1.39625,0.24246c0.41804,0.16164 0.77755,0.38459 1.07854,0.66886c0.30099,0.28427 0.5323,0.62427 0.69394,1.02001c0.16164,0.39574 0.24246,0.82214 0.24246,1.2792c0,0.60197 -0.14213,1.13428 -0.4264,1.5969c-0.28427,0.46263 -0.69394,0.7887 -1.22903,0.97821c0.4905,0.15607 0.83886,0.39574 1.04509,0.71902c0.20623,0.32328 0.30935,0.80821 0.30935,1.45477v3.14364z" data-paper-data="{&quot;glyphName&quot;:&quot;R&quot;,&quot;glyphIndex&quot;:11,&quot;lastGlyphOfWord&quot;:true,&quot;word&quot;:2}" id="element-id-78625"></path></g><g data-paper-data="{&quot;isPrimaryText&quot;:true}" id="element-id-49392"><path d="M92.46406,287.0968c-0.65558,0 -1.2097,0.23414 -1.66236,0.70241c-0.46827,0.45266 -0.70241,1.00678 -0.70241,1.66236v21.07217l-5.31487,-5.90021c-0.43705,-0.48388 -0.97556,-0.74923 -1.61553,-0.79606c-0.65558,-0.03122 -1.22531,0.1717 -1.70919,0.60875c-0.48388,0.43705 -0.74143,0.97556 -0.77265,1.61553c-0.03122,0.65558 0.1717,1.22531 0.60875,1.70919l9.41223,10.46584c0.46827,0.5151 1.05361,0.77265 1.75601,0.77265c0.28096,0 0.56192,-0.05463 0.84289,-0.16389c0.99898,-0.37462 1.49847,-1.10824 1.49847,-2.20087v-27.1831c0,-0.65558 -0.22633,-1.2097 -0.67899,-1.66236c-0.46827,-0.46827 -1.02239,-0.70241 -1.66236,-0.70241zM69.09737,287.89286c-0.71801,-0.81167 -1.57651,-1.02239 -2.57549,-0.63217c-1.01459,0.39023 -1.52188,1.12385 -1.52188,2.20087v27.1831c0,0.65558 0.22633,1.2175 0.67899,1.68577c0.46827,0.45266 1.03019,0.67899 1.68577,0.67899c0.63997,0 1.19409,-0.22633 1.66236,-0.67899c0.45266,-0.46827 0.67899,-1.03019 0.67899,-1.68577v-21.04875l5.31487,5.90021c0.43705,0.48388 0.97556,0.74143 1.61553,0.77265c0.65558,0.03122 1.22531,-0.1717 1.70919,-0.60875c0.48388,-0.42144 0.74143,-0.95995 0.77265,-1.61553c0.03122,-0.65558 -0.1717,-1.22531 -0.60875,-1.70919z" data-paper-data="{&quot;glyphName&quot;:&quot;N&quot;,&quot;glyphIndex&quot;:0,&quot;firstGlyphOfWord&quot;:true,&quot;word&quot;:1}" fill="#ffffff" id="element-id-91133"></path><path d="M100.91634,314.30331c-0.65558,0 -1.2175,0.22633 -1.68577,0.67899c-0.45266,0.46827 -0.67899,1.02239 -0.67899,1.66236c0,0.65558 0.22633,1.2175 0.67899,1.68577c0.46827,0.45266 1.03019,0.67899 1.68577,0.67899h25.09929c0.63997,0 1.19409,-0.22633 1.66236,-0.67899c0.45266,-0.46827 0.67899,-1.03019 0.67899,-1.68577c0,-0.63997 -0.22633,-1.19409 -0.67899,-1.66236c-0.46827,-0.45266 -1.02239,-0.67899 -1.66236,-0.67899zM126.01563,291.80292c0.63997,0 1.19409,-0.22633 1.66236,-0.67899c0.45266,-0.45266 0.67899,-1.00678 0.67899,-1.66236c0,-0.65558 -0.22633,-1.2097 -0.67899,-1.66236c-0.46827,-0.46827 -1.02239,-0.70241 -1.66236,-0.70241h-25.09929c-0.65558,0 -1.2175,0.23414 -1.68577,0.70241c-0.45266,0.45266 -0.67899,1.00678 -0.67899,1.66236c0,0.65558 0.22633,1.2097 0.67899,1.66236c0.46827,0.45266 1.03019,0.67899 1.68577,0.67899zM100.91634,300.70006c-0.65558,0 -1.2175,0.23414 -1.68577,0.70241c-0.45266,0.45266 -0.67899,1.00678 -0.67899,1.66236c0,0.63997 0.22633,1.19409 0.67899,1.66236c0.46827,0.45266 1.03019,0.67899 1.68577,0.67899h25.09929c0.63997,0 1.19409,-0.22633 1.66236,-0.67899c0.45266,-0.46827 0.67899,-1.02239 0.67899,-1.66236c0,-0.65558 -0.22633,-1.2097 -0.67899,-1.66236c-0.46827,-0.46827 -1.02239,-0.70241 -1.66236,-0.70241z" data-paper-data="{&quot;glyphName&quot;:&quot;E&quot;,&quot;glyphIndex&quot;:1,&quot;word&quot;:1}" fill="#ffffff" id="element-id-65255"></path><path d="M134.46791,319.00943c-0.65558,0 -1.2175,-0.22633 -1.68577,-0.67899c-0.45266,-0.46827 -0.67899,-1.03019 -0.67899,-1.68577v-27.1831c0,-0.65558 0.22633,-1.2097 0.67899,-1.66236c0.46827,-0.46827 1.03019,-0.70241 1.68577,-0.70241c0.63997,0 1.19409,0.23414 1.66236,0.70241c0.45266,0.45266 0.67899,1.00678 0.67899,1.66236v27.1831c0,0.65558 -0.22633,1.2175 -0.67899,1.68577c-0.46827,0.45266 -1.02239,0.67899 -1.66236,0.67899z" data-paper-data="{&quot;glyphName&quot;:&quot;I&quot;,&quot;glyphIndex&quot;:2,&quot;word&quot;:1}" fill="#ffffff" id="element-id-59057"></path><path d="M142.92019,319.00943c-0.65558,0 -1.2175,-0.22633 -1.68577,-0.67899c-0.45266,-0.46827 -0.67899,-1.03019 -0.67899,-1.68577v-27.1831c0,-0.65558 0.22633,-1.2097 0.67899,-1.66236c0.46827,-0.46827 1.03019,-0.70241 1.68577,-0.70241c0.63997,0 1.19409,0.23414 1.66236,0.70241c0.45266,0.45266 0.67899,1.00678 0.67899,1.66236v24.84174h22.75794c0.63997,0 1.19409,0.22633 1.66236,0.67899c0.45266,0.46827 0.67899,1.02239 0.67899,1.66236c0,0.65558 -0.22633,1.2175 -0.67899,1.68577c-0.46827,0.45266 -1.02239,0.67899 -1.66236,0.67899z" data-paper-data="{&quot;glyphName&quot;:&quot;L&quot;,&quot;glyphIndex&quot;:3,&quot;lastGlyphOfWord&quot;:true,&quot;word&quot;:1}" fill="#ffffff" id="element-id-13466"></path><path d="M211.78365,303.04058c2.64058,-1.70468 3.96088,-4.128 3.96088,-7.26996c0,-2.3899 -0.85234,-4.43718 -2.55702,-6.14186c-1.68797,-1.68797 -3.7269,-2.53195 -6.1168,-2.53195h-19.60383c-0.38439,0 -0.71864,0.1337 -1.00275,0.4011c-0.2674,0.28411 -0.4011,0.61836 -0.4011,1.00275c0,0.38439 0.1337,0.71028 0.4011,0.97768c0.28411,0.2674 0.61836,0.4011 1.00275,0.4011h19.60383c1.62112,0 2.9999,0.57658 4.13636,1.72975c1.15317,1.15317 1.72975,2.54031 1.72975,4.16143c0,1.62112 -0.57658,3.00826 -1.72975,4.16143c-1.13645,1.15317 -2.51524,1.72975 -4.13636,1.72975h-19.60383c-0.38439,0 -0.71864,0.1337 -1.00275,0.4011c-0.2674,0.2674 -0.4011,0.5933 -0.4011,0.97768c0,0.4011 0.1337,0.73535 0.4011,1.00275c0.28411,0.2674 0.61836,0.4011 1.00275,0.4011h19.60383c1.62112,0 2.9999,0.57658 4.13636,1.72975c1.15317,1.15317 1.72975,2.54031 1.72975,4.16143c0,1.62112 -0.57658,3.00826 -1.72975,4.16143c-1.13645,1.13645 -2.51524,1.70468 -4.13636,1.70468h-19.60383c-0.38439,0 -0.71864,0.14206 -1.00275,0.42617c-0.2674,0.2674 -0.4011,0.5933 -0.4011,0.97768c0,0.38439 0.1337,0.71864 0.4011,1.00275c0.28411,0.2674 0.61836,0.4011 1.00275,0.4011h19.60383c2.3899,0 4.42883,-0.85234 6.1168,-2.55702c1.70468,-1.68797 2.55702,-3.7269 2.55702,-6.1168c0,-3.14196 -1.32029,-5.57364 -3.96088,-7.29503z" data-paper-data="{&quot;glyphName&quot;:&quot;B&quot;,&quot;glyphIndex&quot;:4,&quot;firstGlyphOfWord&quot;:true,&quot;fontStyleEffect&quot;:true,&quot;word&quot;:2}" fill="#ffffff" id="element-id-81838"></path><path d="M247.89224,319.00943c-0.38439,0 -0.71028,-0.1337 -0.97768,-0.4011c-0.28411,-0.28411 -0.42617,-0.61836 -0.42617,-1.00275v-20.15534c0,-2.08907 -0.73535,-3.86896 -2.20606,-5.33966c-1.48742,-1.48742 -3.2673,-2.23113 -5.33966,-2.23113h-8.97464c-2.07236,0 -3.85224,0.74371 -5.33966,2.23113c-1.4707,1.4707 -2.20606,3.25059 -2.20606,5.33966v20.15534c0,0.38439 -0.14206,0.71864 -0.42617,1.00275c-0.2674,0.2674 -0.5933,0.4011 -0.97768,0.4011c-0.38439,0 -0.71864,-0.1337 -1.00275,-0.4011c-0.2674,-0.28411 -0.4011,-0.61836 -0.4011,-1.00275v-20.15534c0,-2.85785 1.01111,-5.29788 3.03333,-7.3201c2.02222,-2.02222 4.46225,-3.03333 7.3201,-3.03333h8.97464c2.85785,0 5.29788,1.01111 7.3201,3.03333c2.02222,2.02222 3.03333,4.46225 3.03333,7.3201v20.15534c0,0.38439 -0.14206,0.71864 -0.42617,1.00275c-0.2674,0.2674 -0.5933,0.4011 -0.97768,0.4011z" data-paper-data="{&quot;glyphName&quot;:&quot;A&quot;,&quot;glyphIndex&quot;:5,&quot;fontStyleEffect&quot;:true,&quot;word&quot;:2}" fill="#ffffff" id="element-id-30109"></path><path d="M278.26008,303.41661c1.38714,-0.75207 2.49017,-1.7966 3.30909,-3.1336c0.85234,-1.38714 1.27851,-2.89127 1.27851,-4.51239c0,-2.3899 -0.85234,-4.43718 -2.55702,-6.14186c-1.68797,-1.68797 -3.7269,-2.53195 -6.1168,-2.53195h-19.60383c-0.38439,0 -0.71864,0.1337 -1.00275,0.4011c-0.2674,0.28411 -0.4011,0.61836 -0.4011,1.00275c0,0.38439 0.1337,0.71028 0.4011,0.97768c0.28411,0.2674 0.61836,0.4011 1.00275,0.4011h19.60383c1.62112,0 2.9999,0.57658 4.13636,1.72975c1.15317,1.15317 1.72975,2.54031 1.72975,4.16143c0,1.62112 -0.57658,3.00826 -1.72975,4.16143c-1.13645,1.15317 -2.51524,1.72975 -4.13636,1.72975h-19.60383c-0.38439,0 -0.71864,0.1337 -1.00275,0.4011c-0.2674,0.2674 -0.4011,0.5933 -0.4011,0.97768c0,0.4011 0.1337,0.73535 0.4011,1.00275c0.28411,0.2674 0.61836,0.4011 1.00275,0.4011h17.92422c2.07236,0 3.85224,0.74371 5.33966,2.23113c1.4707,1.4707 2.20606,3.25059 2.20606,5.33966v5.59035c0,0.38439 0.14206,0.71864 0.42617,1.00275c0.2674,0.2674 0.5933,0.4011 0.97768,0.4011c0.38439,0 0.71028,-0.1337 0.97768,-0.4011c0.28411,-0.28411 0.42617,-0.61836 0.42617,-1.00275v-5.59035c0,-3.67676 -1.5292,-6.54297 -4.5876,-8.59861z" data-paper-data="{&quot;glyphName&quot;:&quot;R&quot;,&quot;glyphIndex&quot;:6,&quot;fontStyleEffect&quot;:true,&quot;word&quot;:2}" fill="#ffffff" id="element-id-4188"></path><path d="M314.99539,319.00943c-0.38439,0 -0.71028,-0.1337 -0.97768,-0.4011c-0.28411,-0.28411 -0.42617,-0.61836 -0.42617,-1.00275v-20.15534c0,-2.08907 -0.73535,-3.86896 -2.20606,-5.33966c-1.48742,-1.48742 -3.2673,-2.23113 -5.33966,-2.23113h-8.97464c-2.07236,0 -3.85224,0.74371 -5.33966,2.23113c-1.4707,1.4707 -2.20606,3.25059 -2.20606,5.33966v20.15534c0,0.38439 -0.14206,0.71864 -0.42617,1.00275c-0.2674,0.2674 -0.5933,0.4011 -0.97768,0.4011c-0.38439,0 -0.71864,-0.1337 -1.00275,-0.4011c-0.2674,-0.28411 -0.4011,-0.61836 -0.4011,-1.00275v-20.15534c0,-2.85785 1.01111,-5.29788 3.03333,-7.3201c2.02222,-2.02222 4.46225,-3.03333 7.3201,-3.03333h8.97464c2.85785,0 5.29788,1.01111 7.3201,3.03333c2.02222,2.02222 3.03333,4.46225 3.03333,7.3201v20.15534c0,0.38439 -0.14206,0.71864 -0.42617,1.00275c-0.2674,0.2674 -0.5933,0.4011 -0.97768,0.4011z" data-paper-data="{&quot;glyphName&quot;:&quot;A&quot;,&quot;glyphIndex&quot;:7,&quot;fontStyleEffect&quot;:true,&quot;word&quot;:2}" fill="#ffffff" id="element-id-17065"></path><path d="M322.10587,319.00943c-0.61836,0 -1.05289,-0.27576 -1.30358,-0.82727c-0.23398,-0.56823 -0.14206,-1.07796 0.27576,-1.5292l24.6928,-26.77352h-23.66498c-0.4011,0 -0.73535,-0.1337 -1.00275,-0.4011c-0.2674,-0.2674 -0.4011,-0.5933 -0.4011,-0.97768c0,-0.38439 0.1337,-0.71864 0.4011,-1.00275c0.2674,-0.2674 0.60165,-0.4011 1.00275,-0.4011h26.87379c0.60165,0 1.02782,0.27576 1.27851,0.82727c0.25069,0.56823 0.16713,1.07796 -0.25069,1.5292l-24.71787,26.74845h23.69005c0.38439,0 0.71028,0.14206 0.97768,0.42617c0.28411,0.2674 0.42617,0.5933 0.42617,0.97768c0,0.38439 -0.14206,0.71864 -0.42617,1.00275c-0.2674,0.2674 -0.5933,0.4011 -0.97768,0.4011z" data-paper-data="{&quot;glyphName&quot;:&quot;Z&quot;,&quot;glyphIndex&quot;:8,&quot;fontStyleEffect&quot;:true,&quot;word&quot;:2}" fill="#ffffff" id="element-id-34777"></path><path d="M382.94142,319.00943c-0.38439,0 -0.71028,-0.1337 -0.97768,-0.4011c-0.28411,-0.28411 -0.42617,-0.61836 -0.42617,-1.00275v-20.15534c0,-2.08907 -0.73535,-3.86896 -2.20606,-5.33966c-1.48742,-1.48742 -3.2673,-2.23113 -5.33966,-2.23113h-8.97464c-2.07236,0 -3.85224,0.74371 -5.33966,2.23113c-1.4707,1.4707 -2.20606,3.25059 -2.20606,5.33966v20.15534c0,0.38439 -0.14206,0.71864 -0.42617,1.00275c-0.2674,0.2674 -0.5933,0.4011 -0.97768,0.4011c-0.38439,0 -0.71864,-0.1337 -1.00275,-0.4011c-0.2674,-0.28411 -0.4011,-0.61836 -0.4011,-1.00275v-20.15534c0,-2.85785 1.01111,-5.29788 3.03333,-7.3201c2.02222,-2.02222 4.46225,-3.03333 7.3201,-3.03333h8.97464c2.85785,0 5.29788,1.01111 7.3201,3.03333c2.02222,2.02222 3.03333,4.46225 3.03333,7.3201v20.15534c0,0.38439 -0.14206,0.71864 -0.42617,1.00275c-0.2674,0.2674 -0.5933,0.4011 -0.97768,0.4011z" data-paper-data="{&quot;glyphName&quot;:&quot;A&quot;,&quot;glyphIndex&quot;:9,&quot;fontStyleEffect&quot;:true,&quot;word&quot;:2}" fill="#ffffff" id="element-id-50056"></path><path d="M413.30926,303.41661c1.38714,-0.75207 2.49017,-1.7966 3.30909,-3.1336c0.85234,-1.38714 1.27851,-2.89127 1.27851,-4.51239c0,-2.3899 -0.85234,-4.43718 -2.55702,-6.14186c-1.68797,-1.68797 -3.7269,-2.53195 -6.1168,-2.53195h-19.60383c-0.38439,0 -0.71864,0.1337 -1.00275,0.4011c-0.2674,0.28411 -0.4011,0.61836 -0.4011,1.00275c0,0.38439 0.1337,0.71028 0.4011,0.97768c0.28411,0.2674 0.61836,0.4011 1.00275,0.4011h19.60383c1.62112,0 2.9999,0.57658 4.13636,1.72975c1.15317,1.15317 1.72975,2.54031 1.72975,4.16143c0,1.62112 -0.57658,3.00826 -1.72975,4.16143c-1.13645,1.15317 -2.51524,1.72975 -4.13636,1.72975h-19.60383c-0.38439,0 -0.71864,0.1337 -1.00275,0.4011c-0.2674,0.2674 -0.4011,0.5933 -0.4011,0.97768c0,0.4011 0.1337,0.73535 0.4011,1.00275c0.28411,0.2674 0.61836,0.4011 1.00275,0.4011h17.92422c2.07236,0 3.85224,0.74371 5.33966,2.23113c1.4707,1.4707 2.20606,3.25059 2.20606,5.33966v5.59035c0,0.38439 0.14206,0.71864 0.42617,1.00275c0.2674,0.2674 0.5933,0.4011 0.97768,0.4011c0.38439,0 0.71028,-0.1337 0.97768,-0.4011c0.28411,-0.28411 0.42617,-0.61836 0.42617,-1.00275v-5.59035c0,-3.67676 -1.5292,-6.54297 -4.5876,-8.59861z" data-paper-data="{&quot;glyphName&quot;:&quot;R&quot;,&quot;glyphIndex&quot;:10,&quot;fontStyleEffect&quot;:true,&quot;word&quot;:2}" fill="#ffffff" id="element-id-43746"></path><path d="M423.17078,287.0968c-0.38439,0 -0.71864,0.1337 -1.00275,0.4011c-0.2674,0.28411 -0.4011,0.61836 -0.4011,1.00275c0,0.38439 0.1337,0.71028 0.4011,0.97768c0.28411,0.2674 0.61836,0.4011 1.00275,0.4011h12.58456v27.72613c0,0.38439 0.14206,0.71864 0.42617,1.00275c0.2674,0.2674 0.5933,0.4011 0.97768,0.4011c0.38439,0 0.71864,-0.1337 1.00275,-0.4011c0.2674,-0.28411 0.4011,-0.61836 0.4011,-1.00275v-27.72613h11.48153c0.38439,0 0.71028,-0.1337 0.97768,-0.4011c0.28411,-0.2674 0.42617,-0.5933 0.42617,-0.97768c0,-0.38439 -0.14206,-0.71864 -0.42617,-1.00275c-0.2674,-0.2674 -0.5933,-0.4011 -0.97768,-0.4011z" data-paper-data="{&quot;glyphName&quot;:&quot;T&quot;,&quot;glyphIndex&quot;:11,&quot;fontStyleEffect&quot;:true,&quot;word&quot;:2}" fill="#ffffff" id="element-id-33375"></path><path d="M456.72235,316.20172c-0.38439,0 -0.71864,0.14206 -1.00275,0.42617c-0.2674,0.2674 -0.4011,0.5933 -0.4011,0.97768c0,0.38439 0.1337,0.71864 0.4011,1.00275c0.28411,0.2674 0.61836,0.4011 1.00275,0.4011h26.87379c0.38439,0 0.71028,-0.1337 0.97768,-0.4011c0.28411,-0.28411 0.42617,-0.61836 0.42617,-1.00275c0,-0.38439 -0.14206,-0.71028 -0.42617,-0.97768c-0.2674,-0.28411 -0.5933,-0.42617 -0.97768,-0.42617zM483.59615,289.87944c0.38439,0 0.71028,-0.1337 0.97768,-0.4011c0.28411,-0.2674 0.42617,-0.5933 0.42617,-0.97768c0,-0.38439 -0.14206,-0.71864 -0.42617,-1.00275c-0.2674,-0.2674 -0.5933,-0.4011 -0.97768,-0.4011h-26.87379c-0.38439,0 -0.71864,0.1337 -1.00275,0.4011c-0.2674,0.28411 -0.4011,0.61836 -0.4011,1.00275c0,0.38439 0.1337,0.71028 0.4011,0.97768c0.28411,0.2674 0.61836,0.4011 1.00275,0.4011zM456.72235,301.66179c-0.38439,0 -0.71864,0.1337 -1.00275,0.4011c-0.2674,0.2674 -0.4011,0.5933 -0.4011,0.97768c0,0.4011 0.1337,0.73535 0.4011,1.00275c0.28411,0.2674 0.61836,0.4011 1.00275,0.4011h26.87379c0.38439,0 0.71028,-0.1337 0.97768,-0.4011c0.28411,-0.2674 0.42617,-0.60165 0.42617,-1.00275c0,-0.38439 -0.14206,-0.71028 -0.42617,-0.97768c-0.2674,-0.2674 -0.5933,-0.4011 -0.97768,-0.4011z" data-paper-data="{&quot;glyphName&quot;:&quot;E&quot;,&quot;glyphIndex&quot;:12,&quot;lastGlyphOfWord&quot;:true,&quot;fontStyleEffect&quot;:true,&quot;word&quot;:2}" fill="#ffffff" id="element-id-30107"></path></g><g data-paper-data="{&quot;fillRule&quot;:&quot;nonzero&quot;,&quot;fillRuleOriginal&quot;:&quot;nonzero&quot;,&quot;isIcon&quot;:true,&quot;iconStyle&quot;:&quot;standalone&quot;,&quot;selectedEffects&quot;:{&quot;container&quot;:&quot;&quot;,&quot;transformation&quot;:&quot;&quot;,&quot;pattern&quot;:&quot;&quot;},&quot;bounds&quot;:{&quot;x&quot;:194.48095805764558,&quot;y&quot;:126.78185301154778,&quot;width&quot;:161.03808388470884,&quot;height&quot;:135.2156364768223},&quot;iconType&quot;:&quot;icon&quot;,&quot;rawIconId&quot;:&quot;674e44c9-a121-429e-981c-a2e36a4a9581&quot;,&quot;isDetailed&quot;:false,&quot;suitableAsStandaloneIcon&quot;:true}" id="element-id-32631"><path d="M329.6966,160.58577v0c0.1878,-9.70297 -1.58065,-17.35581 -5.30533,-22.95849c-3.72469,-5.60268 -10.50112,-9.21783 -20.32929,-10.84542h51.26927c-8.01278,1.0642 -14.27276,4.02204 -18.77995,8.87353c-4.50719,4.85149 -6.79208,13.16162 -6.85468,24.93039zM329.6966,160.58577v0v0c0.1878,-9.70297 -1.58065,-17.35581 -5.30533,-22.95849c-3.72469,-5.60268 -10.50112,-9.21783 -20.32929,-10.84542h51.26927c-8.01278,1.0642 -14.27276,4.02204 -18.77995,8.87353c-4.50719,4.85149 -6.79208,13.16162 -6.85468,24.93039zM221.24239,198.42736v0v0l-2.25359,-4.03769v32.39542c-0.0626,11.83137 -2.17534,20.37624 -6.33823,25.63463c-4.16289,5.25838 -10.21942,8.45098 -18.1696,9.57777h51.26927c-7.95018,-1.1268 -14.02237,-4.31939 -18.21655,-9.57777c-4.19419,-5.25838 -6.29128,-13.80327 -6.29128,-25.63463zM313.26415,226.78509v0l-40.28299,-64.79083c-3.69339,-6.63558 -7.51198,-12.59822 -11.45577,-17.8879c-3.94379,-5.28968 -8.37273,-9.49952 -13.28682,-12.62952c-4.91408,-3.12999 -10.78282,-4.69498 -17.6062,-4.69498h-36.15141c8.45098,1.1268 15.80646,4.31939 22.06644,9.57777c6.25998,5.25838 12.98947,13.80327 20.18845,25.63463l40.28299,64.79083c3.69339,6.63558 7.51198,12.59822 11.45577,17.8879c3.94379,5.28968 8.37273,9.49952 13.28682,12.62952c4.91408,3.12999 10.78282,4.69498 17.6062,4.69498h36.15141c-8.45098,-1.1268 -15.80646,-4.31939 -22.06644,-9.57777c-6.25998,-5.25838 -12.98947,-13.80327 -20.18845,-25.63463z" data-paper-data="{&quot;isPathIcon&quot;:true}" id="element-id-1485"></path></g></g></g><g class="watermark-group" style="opacity:0.040000010281801224"><path class="watermark-path" d="M129.52,370.3a11.88,11.88,0,0,1,2.58,5.58,12,12,0,0,1,.11,3,11.81,11.81,0,0,1-.64,2.93,12.34,12.34,0,0,1-1.41,2.72,11.65,11.65,0,0,1-2.13,2.32,12,12,0,0,1-2.64,1.69,13,13,0,0,1-2.91.9,12.47,12.47,0,0,1-3,.12,12.17,12.17,0,0,1-2.93-.64,11.8,11.8,0,0,1-2.72-1.38,12.19,12.19,0,0,1-4-4.79,11.85,11.85,0,0,1-.89-2.92,12.14,12.14,0,0,1-.13-3,11.54,11.54,0,0,1,.64-2.92,11.67,11.67,0,0,1,3.5-5,11.44,11.44,0,0,1,2.67-1.69,11.64,11.64,0,0,1,2.92-.91,10.71,10.71,0,0,1,3-.12,11.68,11.68,0,0,1,5.66,2,11.7,11.7,0,0,1,2.34,2.12m-1.4,8.76a13,13,0,0,1-1.22,2.32,9.68,9.68,0,0,1-1.81,2,7.44,7.44,0,0,1-2.38,1.37,6.17,6.17,0,0,1-5.11-.46,8.73,8.73,0,0,1-3.85-4.58,6.69,6.69,0,0,1-.34-2.66,6.09,6.09,0,0,1,.77-2.47,7.15,7.15,0,0,1,1.75-2.11,9.58,9.58,0,0,1,1.09-.81,8.23,8.23,0,0,1,1.12-.63,8.14,8.14,0,0,1,1.19-.46,12.71,12.71,0,0,1,1.32-.37l2,2.38a12.83,12.83,0,0,0-1.56.17,7.86,7.86,0,0,0-1.23.32,4.5,4.5,0,0,0-1,.49,6.41,6.41,0,0,0-.93.67,4.49,4.49,0,0,0-1.15,1.39,3.87,3.87,0,0,0-.45,1.58,4.12,4.12,0,0,0,.26,1.63,6.11,6.11,0,0,0,2.36,2.82,4.43,4.43,0,0,0,1.57.53,3.91,3.91,0,0,0,1.62-.17,4.71,4.71,0,0,0,1.57-.89,10.5,10.5,0,0,0,.83-.79,5.71,5.71,0,0,0,.65-.93,10.13,10.13,0,0,0,.54-1.14,12.24,12.24,0,0,0,.44-1.49l2,2.33m-14.46,4.55a8.86,8.86,0,0,0,2.78,2.22,9,9,0,0,0,3.29.94,9.15,9.15,0,0,0,3.39-.37,8.68,8.68,0,0,0,3.11-1.69,8.8,8.8,0,0,0,2.22-2.78,9.15,9.15,0,0,0,1-3.29,8.95,8.95,0,0,0-4.83-8.76,9,9,0,0,0-6.73-.57,9,9,0,0,0-5.33,4.47,8.94,8.94,0,0,0-.57,6.71,8.76,8.76,0,0,0,1.7,3.12"></path><path class="watermark-path" d="M147,349c-.48.12-1.09.31-1.82.57a24.37,24.37,0,0,0-2.4,1A28.35,28.35,0,0,0,140,352a20.72,20.72,0,0,0-2.71,1.94c-.7.59-1.28,1.11-1.74,1.57a15.07,15.07,0,0,0-1.1,1.22,4.09,4.09,0,0,0-.59.92,2.32,2.32,0,0,0-.22.64,1.16,1.16,0,0,0,0,.47,1.83,1.83,0,0,0,.18.29,1.15,1.15,0,0,0,1,.37,5.54,5.54,0,0,0,1.51-.38q.87-.35,1.95-.9l2.26-1.18q1.2-.65,2.49-1.29c.87-.44,1.73-.83,2.59-1.17a18.94,18.94,0,0,1,2.6-.81,9.27,9.27,0,0,1,2.46-.29,6.25,6.25,0,0,1,2.24.49,5.12,5.12,0,0,1,1.89,1.47,6.35,6.35,0,0,1,1.41,2.61,6,6,0,0,1,.09,2.6,8.3,8.3,0,0,1-.9,2.52,17.79,17.79,0,0,1-1.62,2.37,23.92,23.92,0,0,1-2,2.15c-.72.67-1.41,1.29-2.09,1.87a33.79,33.79,0,0,1-5.33,3.7,32.29,32.29,0,0,1-4.91,2.28l-3.61-4.3a21.38,21.38,0,0,0,5.39-1.87,27.2,27.2,0,0,0,5.4-3.56,21.59,21.59,0,0,0,2.38-2.27,8.67,8.67,0,0,0,1.18-1.7,2.32,2.32,0,0,0,.27-1.19,1.34,1.34,0,0,0-.28-.74,1.21,1.21,0,0,0-1-.42,4.32,4.32,0,0,0-1.55.34,15.77,15.77,0,0,0-2,.88c-.72.37-1.48.77-2.27,1.21l-2.45,1.3c-.85.45-1.7.85-2.56,1.21a22.37,22.37,0,0,1-2.54.86,10,10,0,0,1-2.43.32,5.76,5.76,0,0,1-2.2-.45,5,5,0,0,1-1.89-1.45,6.12,6.12,0,0,1-1.31-2.41,6,6,0,0,1-.1-2.41,8.28,8.28,0,0,1,.81-2.38,14.06,14.06,0,0,1,1.49-2.24,22.37,22.37,0,0,1,1.85-2.05q1-1,2-1.77c.7-.59,1.44-1.15,2.23-1.7s1.62-1.06,2.44-1.53,1.63-.91,2.43-1.3,1.58-.75,2.3-1L147,349"></path><path class="watermark-path" d="M186.76,337.57l-10.6-12.63,3.92,18.24-4.66,3.91-17.27-7,10.6,12.63-4.86,4.07-15.09-18,6.59-5.54,18.69,7.52-4.15-19.71,6.57-5.52,15.09,18-4.83,4.05"></path><path class="watermark-path" d="M208.84,313.24l-10,8.42,1.16,4.82L194.56,331l-5.68-25.89,5.42-4.55,24.51,10.09-5.42,4.55-4.55-2m-11.23,3.45,6.57-5.52-8.83-3.87,2.26,9.39"></path><path class="watermark-path" d="M227.49,281.38c-.48.12-1.09.31-1.82.57a24.37,24.37,0,0,0-2.4,1,26.11,26.11,0,0,0-2.7,1.47,20.72,20.72,0,0,0-2.71,1.94c-.7.59-1.28,1.11-1.74,1.57a13.39,13.39,0,0,0-1.1,1.22,4.29,4.29,0,0,0-.59.91,2.48,2.48,0,0,0-.22.65,1.16,1.16,0,0,0,0,.47,1.83,1.83,0,0,0,.18.29,1.15,1.15,0,0,0,1,.37,5.54,5.54,0,0,0,1.51-.38q.87-.34,2-.9l2.26-1.18q1.2-.64,2.49-1.29c.87-.44,1.73-.83,2.59-1.17a18.94,18.94,0,0,1,2.6-.81,9.27,9.27,0,0,1,2.46-.29,6.08,6.08,0,0,1,2.24.49,5.09,5.09,0,0,1,1.89,1.46,6.47,6.47,0,0,1,1.41,2.61,6.07,6.07,0,0,1,.09,2.61,8.3,8.3,0,0,1-.9,2.52,16.32,16.32,0,0,1-1.63,2.36,21.41,21.41,0,0,1-2,2.16c-.72.67-1.41,1.29-2.1,1.86a33.36,33.36,0,0,1-5.32,3.71,31.92,31.92,0,0,1-4.92,2.28l-3.6-4.3a21.38,21.38,0,0,0,5.39-1.87,27.2,27.2,0,0,0,5.4-3.56,21.59,21.59,0,0,0,2.38-2.27,8.67,8.67,0,0,0,1.18-1.7A2.32,2.32,0,0,0,231,293a1.34,1.34,0,0,0-.28-.74,1.21,1.21,0,0,0-1-.42,4.32,4.32,0,0,0-1.55.34,16.54,16.54,0,0,0-2,.88c-.71.37-1.47.77-2.26,1.21l-2.46,1.3c-.84.44-1.7.85-2.55,1.21a24.53,24.53,0,0,1-2.54.86A10,10,0,0,1,214,298a5.76,5.76,0,0,1-2.2-.45,5,5,0,0,1-1.89-1.45,6.12,6.12,0,0,1-1.31-2.41,5.78,5.78,0,0,1-.1-2.41,8,8,0,0,1,.81-2.38,14.61,14.61,0,0,1,1.49-2.25,22.26,22.26,0,0,1,1.85-2q1-1,2-1.77c.7-.59,1.44-1.15,2.23-1.7s1.62-1.06,2.44-1.53,1.63-.91,2.43-1.31,1.58-.74,2.3-1l3.5,4.16"></path><path class="watermark-path" d="M261.64,274.74l-6.29-7.5L243,277.61l6.3,7.5-4.86,4.07-15.09-18,4.85-4.08,5.49,6.55L252,263.3l-5.49-6.55,4.86-4.07,15.09,18-4.86,4.08"></path><path class="watermark-path" d="M272.18,265.9l-15.09-18,4.86-4.08,15.09,18-4.86,4.08"></path><path class="watermark-path" d="M299.65,242.85l-22.51-2.18L287.51,253l-4.85,4.08-15.1-18,5.28-4.43,22.56,2.22L285,224.5l4.83-4.06,15.09,18-5.26,4.42"></path><path class="watermark-path" d="M306.68,205.52a31.88,31.88,0,0,1,5.29-3.66,34.48,34.48,0,0,1,5.14-2.35l3.69,4.39a20.77,20.77,0,0,0-2.37.61,20.47,20.47,0,0,0-2.61,1,25.12,25.12,0,0,0-2.76,1.49,23.9,23.9,0,0,0-2.8,2,20.42,20.42,0,0,0-2.8,2.77,12.77,12.77,0,0,0-1.64,2.52,7,7,0,0,0-.68,2.24,6,6,0,0,0,.66,3.64,8.16,8.16,0,0,0,.94,1.38,9.12,9.12,0,0,0,1.08,1.07,6.39,6.39,0,0,0,1.47.91,6.73,6.73,0,0,0,1.88.48,6.54,6.54,0,0,0,2.28-.18,11.67,11.67,0,0,0,2.74-1.07,19.38,19.38,0,0,0,3.18-2.22c.57-.48,1.06-.92,1.46-1.31a14.57,14.57,0,0,0,1-1.13,11.46,11.46,0,0,0,.81-1.05l.74-1.09-1.82-2.17-5.45,4.57-3.31-3.94,10.31-8.65,7.71,9.19a29,29,0,0,1-1.67,2.43q-1,1.26-2.1,2.52c-.74.84-1.5,1.65-2.3,2.44s-1.58,1.5-2.33,2.14a31,31,0,0,1-3.59,2.61,22.55,22.55,0,0,1-3.64,1.83,15.64,15.64,0,0,1-3.63.89,10.72,10.72,0,0,1-3.49-.15,10.45,10.45,0,0,1-3.28-1.33,12.54,12.54,0,0,1-3-2.67,12,12,0,0,1-2.08-3.44,10.45,10.45,0,0,1-.71-3.5,11.14,11.14,0,0,1,.51-3.51,15.72,15.72,0,0,1,1.56-3.43,21.62,21.62,0,0,1,2.42-3.28,30.3,30.3,0,0,1,3.15-3"></path><path class="watermark-path" d="M336.91,211.59l-15.1-18,4.86-4.08,11.79,14,13.13-11,3.31,3.94-18,15.1"></path><path class="watermark-path" d="M374.54,164.71a12.28,12.28,0,0,1,2.59,4.81,10.44,10.44,0,0,1,0,5,14.62,14.62,0,0,1-2.33,5,25.55,25.55,0,0,1-4.56,4.85,26.07,26.07,0,0,1-5.6,3.67,14.79,14.79,0,0,1-5.38,1.43,10.43,10.43,0,0,1-4.94-.89,13.24,13.24,0,0,1-6.87-8.18,10.48,10.48,0,0,1,0-5,14.51,14.51,0,0,1,2.36-5,25.23,25.23,0,0,1,4.57-4.89,25,25,0,0,1,5.59-3.64,14.45,14.45,0,0,1,5.35-1.43,10.31,10.31,0,0,1,4.93.92,12.22,12.22,0,0,1,4.28,3.38m-4.91,4.11a8.36,8.36,0,0,0-2-1.72,5.5,5.5,0,0,0-2.65-.85,7.72,7.72,0,0,0-3.32.57,14.49,14.49,0,0,0-4,2.52,16.72,16.72,0,0,0-2.38,2.4,10.15,10.15,0,0,0-1.39,2.24,6.71,6.71,0,0,0-.56,2.1,5.69,5.69,0,0,0,.1,1.9,6.21,6.21,0,0,0,.61,1.69,9.85,9.85,0,0,0,1,1.44,10.48,10.48,0,0,0,1.26,1.23,6.67,6.67,0,0,0,1.57.92,6.1,6.1,0,0,0,1.85.41,6.8,6.8,0,0,0,2.15-.2,11.06,11.06,0,0,0,2.45-1,17.67,17.67,0,0,0,2.77-1.94,14.39,14.39,0,0,0,3.18-3.52,7.74,7.74,0,0,0,1.14-3.17,5.54,5.54,0,0,0-.37-2.74,8.52,8.52,0,0,0-1.36-2.3"></path><path class="watermark-path" d="M382.66,141.76A32.3,32.3,0,0,1,388,138.1a34.12,34.12,0,0,1,5.15-2.35l3.69,4.4a19.62,19.62,0,0,0-2.37.6,22.08,22.08,0,0,0-2.61,1,26,26,0,0,0-2.77,1.49,23.9,23.9,0,0,0-2.8,2,21,21,0,0,0-2.8,2.78,13.19,13.19,0,0,0-1.64,2.51,7.29,7.29,0,0,0-.68,2.24,6.36,6.36,0,0,0,.06,2,5.8,5.8,0,0,0,.61,1.68,8.12,8.12,0,0,0,.93,1.38,9.16,9.16,0,0,0,1.08,1.08,6.56,6.56,0,0,0,1.48.9,6,6,0,0,0,1.87.48,6.76,6.76,0,0,0,2.28-.17,12,12,0,0,0,2.74-1.08,18.57,18.57,0,0,0,3.18-2.22c.58-.48,1.06-.92,1.46-1.31s.75-.77,1.05-1.12.57-.72.81-1.06l.73-1.09-1.82-2.17-5.45,4.57-3.3-3.94,10.3-8.65,7.71,9.19a29,29,0,0,1-1.67,2.43q-1,1.26-2.1,2.52c-.73.84-1.5,1.66-2.3,2.44s-1.57,1.5-2.33,2.14a31,31,0,0,1-3.59,2.61,22.15,22.15,0,0,1-3.64,1.83,15.56,15.56,0,0,1-3.62.89,11,11,0,0,1-3.49-.14,10.84,10.84,0,0,1-3.28-1.33,12.82,12.82,0,0,1-3-2.68,12.12,12.12,0,0,1-2.08-3.43A10.71,10.71,0,0,1,375,155a11.18,11.18,0,0,1,.51-3.51,15.51,15.51,0,0,1,1.57-3.43,21.44,21.44,0,0,1,2.42-3.28,30.19,30.19,0,0,1,3.14-3"></path><path class="watermark-path" d="M428.63,119.31a12.26,12.26,0,0,1,2.59,4.82,10.44,10.44,0,0,1,0,5,14.53,14.53,0,0,1-2.34,5,25.29,25.29,0,0,1-4.56,4.86,26,26,0,0,1-5.59,3.67,14.84,14.84,0,0,1-5.38,1.43,10.61,10.61,0,0,1-4.95-.89,12.15,12.15,0,0,1-4.3-3.37,12,12,0,0,1-2.56-4.81,10.48,10.48,0,0,1,0-5,14.39,14.39,0,0,1,2.35-5,27.89,27.89,0,0,1,10.16-8.53,14.49,14.49,0,0,1,5.36-1.43,10.27,10.27,0,0,1,4.92.92,12.21,12.21,0,0,1,4.28,3.37m-4.91,4.12a8.17,8.17,0,0,0-2-1.72,5.58,5.58,0,0,0-2.65-.86,7.86,7.86,0,0,0-3.31.58,14.49,14.49,0,0,0-4,2.52,16.21,16.21,0,0,0-2.38,2.4,9.85,9.85,0,0,0-1.4,2.24,7,7,0,0,0-.56,2.1,6,6,0,0,0,.1,1.9,6.23,6.23,0,0,0,.62,1.69,8.49,8.49,0,0,0,1,1.44,9.18,9.18,0,0,0,1.26,1.23,6.67,6.67,0,0,0,1.57.92,6,6,0,0,0,1.84.41,6.86,6.86,0,0,0,2.16-.2,11.26,11.26,0,0,0,2.45-1,17.62,17.62,0,0,0,2.76-1.94,14.67,14.67,0,0,0,3.19-3.52,7.71,7.71,0,0,0,1.13-3.17,5.53,5.53,0,0,0-.36-2.74,8.55,8.55,0,0,0-1.37-2.3"></path></g><rect data-element-id="element-id-32631" stroke-width="2" fill="transparent" class="invisible-element-box grouping-element" x="194" y="127" width="161" height="135" data-element-name="isIcon"></rect><rect data-element-id="element-id-1485" stroke-width="2" fill="transparent" class="invisible-element-box individual-element" x="194" y="127" width="161" height="135"></rect><rect data-element-id="element-id-49392" stroke-width="2" fill="transparent" class="invisible-element-box grouping-element" x="65" y="287" width="420" height="32" data-element-name="isPrimaryText"></rect><rect data-element-id="element-id-8547" stroke-width="2" fill="transparent" class="invisible-element-box grouping-element" x="138" y="331" width="274" height="12" data-element-name="isSecondaryText"></rect><rect data-element-id="element-id-91133" stroke-width="2" fill="transparent" class="invisible-element-box individual-element" x="65" y="287" width="30" height="32"></rect><rect data-element-id="element-id-65255" stroke-width="2" fill="transparent" class="invisible-element-box individual-element" x="99" y="287" width="30" height="32"></rect><rect data-element-id="element-id-13466" stroke-width="2" fill="transparent" class="invisible-element-box individual-element" x="141" y="287" width="30" height="32"></rect><rect data-element-id="element-id-81838" stroke-width="2" fill="transparent" class="invisible-element-box individual-element" x="186" y="287" width="30" height="32"></rect><rect data-element-id="element-id-30109" stroke-width="2" fill="transparent" class="invisible-element-box individual-element" x="220" y="287" width="30" height="32"></rect><rect data-element-id="element-id-4188" stroke-width="2" fill="transparent" class="invisible-element-box individual-element" x="253" y="287" width="30" height="32"></rect><rect data-element-id="element-id-17065" stroke-width="2" fill="transparent" class="invisible-element-box individual-element" x="287" y="287" width="30" height="32"></rect><rect data-element-id="element-id-34777" stroke-width="2" fill="transparent" class="invisible-element-box individual-element" x="321" y="287" width="30" height="32"></rect><rect data-element-id="element-id-50056" stroke-width="2" fill="transparent" class="invisible-element-box individual-element" x="355" y="287" width="30" height="32"></rect><rect data-element-id="element-id-43746" stroke-width="2" fill="transparent" class="invisible-element-box individual-element" x="388" y="287" width="30" height="32"></rect><rect data-element-id="element-id-33375" stroke-width="2" fill="transparent" class="invisible-element-box individual-element" x="422" y="287" width="30" height="32"></rect><rect data-element-id="element-id-30107" stroke-width="2" fill="transparent" class="invisible-element-box individual-element" x="455" y="287" width="30" height="32"></rect><rect data-element-id="element-id-59057" stroke-width="2" fill="transparent" class="invisible-element-box individual-element" x="132" y="287" width="5" height="32"></rect><rect data-element-id="element-id-54924" stroke-width="2" fill="transparent" class="invisible-element-box individual-element" x="138" y="332" width="14" height="11"></rect><rect data-element-id="element-id-37016" stroke-width="2" fill="transparent" class="invisible-element-box individual-element" x="335" y="331" width="11" height="12"></rect><rect data-element-id="element-id-73001" stroke-width="2" fill="transparent" class="invisible-element-box individual-element" x="270" y="332" width="10" height="11"></rect><rect data-element-id="element-id-59007" stroke-width="2" fill="transparent" class="invisible-element-box individual-element" x="189" y="332" width="9" height="11"></rect><rect data-element-id="element-id-45014" stroke-width="2" fill="transparent" class="invisible-element-box individual-element" x="225" y="332" width="9" height="11"></rect><rect data-element-id="element-id-78625" stroke-width="2" fill="transparent" class="invisible-element-box individual-element" x="403" y="332" width="9" height="11"></rect><rect data-element-id="element-id-71103" stroke-width="2" fill="transparent" class="invisible-element-box individual-element" x="167" y="332" width="8" height="11"></rect><rect data-element-id="element-id-31519" stroke-width="2" fill="transparent" class="invisible-element-box individual-element" x="249" y="332" width="8" height="11"></rect><rect data-element-id="element-id-90371" stroke-width="2" fill="transparent" class="invisible-element-box individual-element" x="293" y="332" width="8" height="11"></rect><rect data-element-id="element-id-73676" stroke-width="2" fill="transparent" class="invisible-element-box individual-element" x="315" y="332" width="8" height="11"></rect><rect data-element-id="element-id-55498" stroke-width="2" fill="transparent" class="invisible-element-box individual-element" x="360" y="332" width="8" height="11"></rect><rect data-element-id="element-id-18496" stroke-width="2" fill="transparent" class="invisible-element-box individual-element" x="381" y="332" width="8" height="11"></rect></svg>